<svg id="iea" xmlns="http://www.w3.org/2000/svg" viewBox="0 0 80.12 45.19"><title>iea</title><path d="M123,27.59h-8.11c-.18-4.06,2.3-7.57,6.65-9.13a25.06,25.06,0,0,1,16-.29c4.46,1.35,6.09,3.77,6.17,8.44.11,6.73.21,13.47.35,20.2a27.49,27.49,0,0,0,.45,3.21h-8.29l-1-2.67a16.66,16.66,0,0,1-14.06,3.31c-4.59-1-7.37-4-7.62-8.52-.27-4.89,1.79-8.13,6.62-9.42,3.57-1,7.32-1.26,11-1.93,3-.56,4.09-1.8,3.88-4.27a3.54,3.54,0,0,0-2.68-3.34C128.12,21.75,124.84,23.22,123,27.59Zm12.13,7.24c-2.61.44-4.92.74-7.19,1.26a12.42,12.42,0,0,0-4,1.53,4.22,4.22,0,0,0-.19,6.7c3.57,2.65,10.13.47,11.1-3.83A32.63,32.63,0,0,0,135.18,34.83Z" transform="translate(-64.46 -16.99)" style="fill:#fff"/><path d="M109.77,36c-6.88,0-13.62,0-20.36,0-2.94,0-3,.11-2.35,2.82,1.42,5.8,9,7.91,13.38,3.5a5.87,5.87,0,0,1,5.07-1.9c1.13.08,2.26,0,3.4,0-.26,6.07-7.81,11.2-15.46,10.59-11.68-.94-16.09-9.59-15.33-18.66C78.94,22.34,86.89,16,96.73,17.19,105.22,18.18,111.16,26.59,109.77,36Zm-8.5-5.4c-.7-5.1-3.14-7.28-7.52-7s-6.73,2.73-6.82,7Z" transform="translate(-64.46 -16.99)" style="fill:#fff"/><path d="M64.46,50.05V18.26h8.25V50.05Z" transform="translate(-64.46 -16.99)" style="fill:#fff"/><path d="M64.46,62.18v-6.3h8.29v6.3Z" transform="translate(-64.46 -16.99)" style="fill:#fff"/><path d="M83,62.18v-6.3h8.29v6.3Z" transform="translate(-64.46 -16.99)" style="fill:#fff"/><path d="M101.3,62.18v-6.3h8.29v6.3Z" transform="translate(-64.46 -16.99)" style="fill:#fff"/><path d="M119.22,62.18v-6.3h8.29v6.3Z" transform="translate(-64.46 -16.99)" style="fill:#fff"/><path d="M136.28,62.18v-6.3h8.29v6.3Z" transform="translate(-64.46 -16.99)" style="fill:#fff"/></svg>