<svg id="isega" xmlns="http://www.w3.org/2000/svg" viewBox="0 0 153.54 68.19">
  <title>isega</title>
  <g>
    <path d="M90.78,55.4h11.87c1.12,0,1.44.29,1.64,1.4a4.22,4.22,0,0,1-.13,1.66,1.56,1.56,0,0,1-1.64,1H79c-1.08,0-1.1,0-1.1,1.09s0,2.41,0,3.61a2.42,2.42,0,0,0,1.32,2,5.91,5.91,0,0,0,2.85.84c6.67.36,13.34.11,20,.16a6.15,6.15,0,0,1,1.2.1,1,1,0,0,1,.88.81,3.46,3.46,0,0,1-.26,2.41,1.75,1.75,0,0,1-1.61.75H94.87c-3.35,0-6.7,0-10.05,0a19.89,19.89,0,0,1-6.05-.87,10.53,10.53,0,0,1-4.51-2.52,4.93,4.93,0,0,1-1.14-2.29c-.49-1.91-.18-3.84-.23-5.76-.06-2.83,0-5.67,0-8.5-.06-3.3,1.58-5.41,4.48-6.68a16.2,16.2,0,0,1,5.48-1.21c2.16-.15,4.31-.07,6.46-.1a1.85,1.85,0,0,1,1.85.82,2.42,2.42,0,0,1,.06,2.54,1.49,1.49,0,0,1-1.37.71c-1.89,0-3.78-.18-5.66,0a16.86,16.86,0,0,0-4.46.77A2.79,2.79,0,0,0,77.77,51c0,1.11,0,2.23,0,3.34s.12,1.1,1.07,1.1Z" transform="translate(-28.29 -3.55)" style="fill: #fff"/>
    <path d="M161.52,43c1.73,0,2.56.39,3.27,1.49,1.64,2.54,3.48,4.94,5.22,7.41,2.47,3.51,4.9,7.07,7.41,10.55,1.38,1.91,2.72,3.85,4.08,5.77a2.48,2.48,0,0,1-.06,2.58,2.32,2.32,0,0,1-2.22.92c-1.33,0-1.85-1-2.46-1.91-1.29-1.83-2.54-3.69-3.8-5.55a1,1,0,0,0-.88-.48q-10.22,0-20.45,0a1,1,0,0,0-.95.48c-1.1,1.64-2.21,3.27-3.33,4.89a17.48,17.48,0,0,1-1.28,1.77,1.66,1.66,0,0,1-2,.39,2.34,2.34,0,0,1-1.58-1.52.9.9,0,0,1,.16-.7c.84-1.54,1.91-2.93,2.85-4.41,1.86-2.94,3.8-5.82,5.7-8.73s3.6-5.55,5.41-8.32q1.11-1.7,2.29-3.35A3.24,3.24,0,0,1,161.52,43Z" transform="translate(-28.29 -3.55)" style="fill: #fff"/>
    <path d="M50.31,67.18c3,0,5.94.09,8.9,0,1.82-.07,3.7,0,5.41-.93A2.23,2.23,0,0,0,66,64.05a10.78,10.78,0,0,0-.07-2.35,2.81,2.81,0,0,0-2.28-1.92,26.22,26.22,0,0,0-6.3-.7c-3.45-.13-6.9-.23-10.35-.43a10.14,10.14,0,0,1-5.52-1.81A4.7,4.7,0,0,1,39.38,53c0-1,0-1.93,0-2.9a5.46,5.46,0,0,1,3.27-5.26,11.56,11.56,0,0,1,5.17-1.31c2-.06,4.07-.17,6.11-.21.61,0,1.33.05,1.64.7a2.69,2.69,0,0,1,0,2.73,1.34,1.34,0,0,1-1.16.58c-.49,0-1,.06-1.48,0a28.92,28.92,0,0,0-5,.34,4.26,4.26,0,0,0-3.49,1.8,1.37,1.37,0,0,0-.19.75c0,.67,0,1.35,0,2A1.81,1.81,0,0,0,45.37,54a7.6,7.6,0,0,0,3.26.86c3.75.24,7.5.07,11.25.15a22.42,22.42,0,0,1,4.76.59,11.31,11.31,0,0,1,4.06,1.84A5.51,5.51,0,0,1,71,61.92a18.34,18.34,0,0,1-.29,4.69,4.17,4.17,0,0,1-2.26,2.88,14.19,14.19,0,0,1-4.62,1.37,75,75,0,0,1-10.45.38c-4,0-8,0-11.94,0-.7,0-1.43,0-1.79-.75a3,3,0,0,1,0-2.83c.3-.57,1-.46,1.52-.46C44.24,67.17,47.27,67.18,50.31,67.18Z" transform="translate(-28.29 -3.55)" style="fill: #fff"/>
    <path d="M111.48,57.27q0,3.31,0,6.61a2.65,2.65,0,0,0,1.89,2.59,12.39,12.39,0,0,0,3.2.57c3.82.26,7.63,0,11.45.14a26.89,26.89,0,0,0,3.76-.22,6.19,6.19,0,0,0,3.35-1.34,1.65,1.65,0,0,0,.66-1.38c0-2.27,0-4.54,0-6.82,0-1.4.65-2.18,2-2,.58.06,1.17,0,1.75,0a1.06,1.06,0,0,1,1.1,1,61.13,61.13,0,0,1,0,9.15A4.85,4.85,0,0,1,138.24,69a12.85,12.85,0,0,1-4.45,1.79,24.86,24.86,0,0,1-5.33.38c-3,0-6.07,0-9.11,0a23.61,23.61,0,0,1-6.71-.7,10,10,0,0,1-4.55-2.34,5.28,5.28,0,0,1-1.58-3.76c0-4.79,0-9.58,0-14.37a5.4,5.4,0,0,1,3.14-4.84,15.16,15.16,0,0,1,4.94-1.62,28.43,28.43,0,0,1,5-.31c1,0,2,0,3,0,.71,0,1.47,0,1.88.73a2.64,2.64,0,0,1,0,2.67,1.46,1.46,0,0,1-1.31.67c-.74,0-1.49,0-2.23,0a34.6,34.6,0,0,0-6,.33A4.86,4.86,0,0,0,112,48.89a1.66,1.66,0,0,0-.57,1.3C111.48,52.55,111.48,54.91,111.48,57.27Z" transform="translate(-28.29 -3.55)" style="fill: #fff"/>
    <path d="M36.44,57.26c0,4,0,8,0,11.93a1.76,1.76,0,0,1-2.25,1.95,9.47,9.47,0,0,0-1.21,0,1.31,1.31,0,0,1-1.46-1.49q0-10.48,0-21c0-1.28,0-2.56,0-3.84,0-.81.3-1.26,1.09-1.32a9.85,9.85,0,0,1,2.46-.1c1,.16,1.34.69,1.34,1.74C36.45,49.16,36.44,53.21,36.44,57.26Z" transform="translate(-28.29 -3.55)" style="fill: #fff"/>
    <path d="M29.37,30.67a11.75,11.75,0,0,1,.23-1.73A2.44,2.44,0,0,1,32,27a14.07,14.07,0,0,1,2.6.23c1.5.22,2.91.79,4.42,1a12.55,12.55,0,0,1,2.38.58,2.49,2.49,0,0,1,1.23,2.84,9.06,9.06,0,0,1-1,3.05,6.83,6.83,0,0,1-3.16,2.75,6.58,6.58,0,0,1-2.38.53,6.21,6.21,0,0,1-5.57-3.31A6.18,6.18,0,0,1,29.37,30.67Z" transform="translate(-28.29 -3.55)" style="fill: #fff"/>
    <path d="M54,19.82A2.18,2.18,0,0,1,52,22a1,1,0,0,1-.56-.15A2.35,2.35,0,0,0,50,21.43c-.65,0-.87-.6-1.24-1s-.37-.87-.84-.74-.34.69-.48,1.07c-.39,1.13-.48,2.33-1,3.43a9.83,9.83,0,0,0-.38,1.12c-.07.08-.11.21-.26.13a5.06,5.06,0,0,1,.34-2,26.59,26.59,0,0,0,.72-3.26c0-.37.24-.67.27-1a3.35,3.35,0,0,0-1.63-3.11c-1-.68-2-1.3-2.94-1.94-.08-.08-.22-.13-.13-.29a6.82,6.82,0,0,1,3.8,1.53c1,.8,1.53,2,2.4,2.89a5,5,0,0,0,1.62,1.37,1.27,1.27,0,0,1,.4.25,1.92,1.92,0,0,0,3.14-.2C54,19.66,54.06,19.68,54,19.82Z" transform="translate(-28.29 -3.55)" style="fill: #fff"/>
    <path d="M32.92,12.91c.08-.66-.13-.87-.87-1A5.07,5.07,0,0,1,29,10.4a2.29,2.29,0,0,1-.66-1.6A8.87,8.87,0,0,1,28.59,6c.4-1.27,1.48-1.74,2.58-2.2a4.84,4.84,0,0,1,2-.26c1.28,0,2.56.07,3.84,0a4.81,4.81,0,0,1,3.25,1.22c0,.39-.26.22-.46.18a11.24,11.24,0,0,0-4.7-1,14,14,0,0,0-3.76.53,2.53,2.53,0,0,0-2,2.72c0,.42,0,.85-.09,1.27a1.28,1.28,0,0,0,.42,1.15,4.68,4.68,0,0,0,4.26,1.32,10.17,10.17,0,0,1-.66,2A.18.18,0,0,1,32.92,12.91Z" transform="translate(-28.29 -3.55)" style="fill: #fff"/>
    <path d="M45.88,25.47l.26-.13A24.56,24.56,0,0,1,45,28.61a.59.59,0,0,1-1,.25c-.67-.51-1.34-1-2-1.6a15.09,15.09,0,0,0-4.84-2.82,2.58,2.58,0,0,0-.67-.07c-.08-.07-.22-.11-.13-.26a9.7,9.7,0,0,1,6.51,2.24l1.18,1c.22.18.44.51.73.34a1,1,0,0,0,.45-.78A3,3,0,0,1,45.88,25.47Z" transform="translate(-28.29 -3.55)" style="fill: #fff"/>
    <path d="M32.92,12.91h.27c-.14,1-.21,2-.31,3-.15,1.46-.27,2.93-.44,4.39s-.39,2.86-.58,4.29c0,.23-.16.39-.4.36a.45.45,0,0,1-.42-.52c0-.44.21-.88.22-1.31,0-1.81.42-3.58.59-5.37a42.18,42.18,0,0,1,.8-4.28A2.29,2.29,0,0,1,32.92,12.91Z" transform="translate(-28.29 -3.55)" style="fill: #fff"/>
    <path d="M38.83,12.26a11.77,11.77,0,0,1-2.6-1.08,3.25,3.25,0,0,1,2.75,1C39,12.24,39,12.33,38.83,12.26Z" transform="translate(-28.29 -3.55)" style="fill: #fff"/>
    <path d="M50.06,9.16a6.23,6.23,0,0,1-1.13-1c-.08-.07-.21-.13-.1-.26a.18.18,0,0,1,.29,0c.32.36.78.6,1,1.1A.1.1,0,0,1,50.06,9.16Z" transform="translate(-28.29 -3.55)" style="fill: #fff"/>
    <path d="M39.77,5c.17,0,.36,0,.46-.18l.93.58a.2.2,0,0,1,.07.17A2.69,2.69,0,0,1,39.77,5Z" transform="translate(-28.29 -3.55)" style="fill: #fff"/>
    <path d="M41.23,5.52l-.07-.17c.36,0,.58.26.92.37C41.64,6.15,41.47,5.71,41.23,5.52Z" transform="translate(-28.29 -3.55)" style="fill: #fff"/>
    <path d="M42.51,13.84l.13.29a3.07,3.07,0,0,1-1-.46A.58.58,0,0,1,42.51,13.84Z" transform="translate(-28.29 -3.55)" style="fill: #fff"/>
    <path d="M50.06,9.16V9l.8,1c0,.13,0,.17-.13.13C50.55,9.74,50.13,9.58,50.06,9.16Z" transform="translate(-28.29 -3.55)" style="fill: #fff"/>
    <path d="M47.87,7.26l-.78-.44s-.06-.05,0-.08,0,0,0,0a1.62,1.62,0,0,1,.93.44C48,7.24,48,7.32,47.87,7.26Z" transform="translate(-28.29 -3.55)" style="fill: #fff"/>
    <path d="M47.87,7.26,48,7.13l.74.54C48.22,7.82,48.1,7.44,47.87,7.26Z" transform="translate(-28.29 -3.55)" style="fill: #fff"/>
    <path d="M54.38,18.32c0,.27.09.56-.11.81-.09,0-.1-.1-.15-.14v-.67A.16.16,0,0,1,54.38,18.32Z" transform="translate(-28.29 -3.55)" style="fill: #fff"/>
    <path d="M54.11,19l.15.14a1.47,1.47,0,0,1-.28.69l-.12-.14Z" transform="translate(-28.29 -3.55)" style="fill: #fff"/>
    <path d="M38.83,12.26l.16-.13a.79.79,0,0,1,.48.33C39.14,12.65,39,12.39,38.83,12.26Z" transform="translate(-28.29 -3.55)" style="fill: #fff"/>
    <path d="M50.74,10.07l.13-.13c.16.09.3.2.23.43C50.88,10.4,50.83,10.21,50.74,10.07Z" transform="translate(-28.29 -3.55)" style="fill: #fff"/>
    <path d="M46.19,6.17c.13,0,.24,0,.25.17s-.09.08-.14.08-.23,0-.23-.15S46.16,6.21,46.19,6.17Z" transform="translate(-28.29 -3.55)" style="fill: #fff"/>
    <path d="M54.38,18.32h-.26c0-.13-.07-.35.16-.33S54.37,18.2,54.38,18.32Z" transform="translate(-28.29 -3.55)" style="fill: #fff"/>
    <path d="M36.43,24.12l.13.26c-.26.06-.43-.14-.72-.18A.74.74,0,0,1,36.43,24.12Z" transform="translate(-28.29 -3.55)" style="fill: #fff"/>
    <path d="M47.1,6.69a.75.75,0,0,0,0,.12c-.14,0-.3-.07-.35-.24s0-.08.06-.09S47,6.57,47.1,6.69Z" transform="translate(-28.29 -3.55)" style="fill: #fff"/>
    <path d="M161.82,59.67h-6.73c-.23,0-.53.11-.66-.18s0-.47.18-.68q2.48-3.59,5-7.19c.62-.91,1.22-1.83,1.83-2.74.34-.5.54-.52.88,0q2.82,4.14,5.62,8.3c.4.59.84,1.17,1.21,1.78s.18.74-.42.74Z" transform="translate(-28.29 -3.55)"/>
  </g>
</svg>
