<svg id="julio_carpio" data-name="julio carpio" xmlns="http://www.w3.org/2000/svg" viewBox="0 0 175.2 42.71"><title>juliocarpio</title><path d="M53.84,61.06c-5.26,0-9.36-1.34-12.17-4a12.29,12.29,0,0,1-3.76-9V18.34H53.84v4H42.43V48.25A8.53,8.53,0,0,0,45,54.3C46.91,56.1,49.89,57,53.84,57Z" transform="translate(-17.43 -18.34)" style="fill:#fff"/><path d="M17.43,61.06c5.26,0,9.36-1.34,12.17-4a12.29,12.29,0,0,0,3.76-9V18.34H17.43v4H28.84V48.25a8.53,8.53,0,0,1-2.55,6.06C24.36,56.1,21.38,57,17.43,57Z" transform="translate(-17.43 -18.34)" style="fill:#fff"/><path d="M69.08,40.52a4.47,4.47,0,0,1-.19,1.27,3.29,3.29,0,0,1-.61,1.15,3.06,3.06,0,0,1-1.1.84,4,4,0,0,1-1.7.32,3.57,3.57,0,0,1-2.23-.68,3.14,3.14,0,0,1-1.14-2l1.5-.3a2.09,2.09,0,0,0,.61,1.18,1.8,1.8,0,0,0,1.27.44,2.12,2.12,0,0,0,1.05-.23,1.68,1.68,0,0,0,.63-.61,2.58,2.58,0,0,0,.31-.86,5.62,5.62,0,0,0,.09-1V31.17h1.5Z" transform="translate(-17.43 -18.34)" style="fill:#fff"/><path d="M82.29,39a7.27,7.27,0,0,1-.26,2,4.53,4.53,0,0,1-.82,1.63,4,4,0,0,1-1.47,1.12,6,6,0,0,1-4.42,0,4,4,0,0,1-1.47-1.12A4.53,4.53,0,0,1,73,40.93a7.25,7.25,0,0,1-.26-2v-7.8h1.5v7.58a6.71,6.71,0,0,0,.16,1.48A3.66,3.66,0,0,0,75,41.5a2.71,2.71,0,0,0,1,.88,3.89,3.89,0,0,0,3.13,0,2.71,2.71,0,0,0,1-.88,3.66,3.66,0,0,0,.53-1.26,6.71,6.71,0,0,0,.16-1.48V31.17h1.5Z" transform="translate(-17.43 -18.34)" style="fill:#fff"/><path d="M86,31.17h1.5V42.39h5.77v1.39H86Z" transform="translate(-17.43 -18.34)" style="fill:#fff"/><path d="M95.51,31.17H97v12.6h-1.5Z" transform="translate(-17.43 -18.34)" style="fill:#fff"/><path d="M106.62,44.09a6.84,6.84,0,0,1-2.64-.5,6.35,6.35,0,0,1-2.08-1.38,6.19,6.19,0,0,1-1.37-2.1,7.38,7.38,0,0,1,0-5.29,6.2,6.2,0,0,1,1.37-2.1A6.35,6.35,0,0,1,104,31.35a7.26,7.26,0,0,1,5.29,0,6.35,6.35,0,0,1,2.08,1.38,6.2,6.2,0,0,1,1.37,2.1,7.39,7.39,0,0,1,0,5.29,6.2,6.2,0,0,1-1.37,2.1,6.35,6.35,0,0,1-2.08,1.38A6.84,6.84,0,0,1,106.62,44.09Zm0-1.39a4.9,4.9,0,0,0,2-.41,4.77,4.77,0,0,0,1.58-1.12,5.12,5.12,0,0,0,1-1.66,5.87,5.87,0,0,0,0-4.08,5.13,5.13,0,0,0-1-1.66,4.78,4.78,0,0,0-1.58-1.12,5.19,5.19,0,0,0-4,0A4.77,4.77,0,0,0,103,33.77a5.12,5.12,0,0,0-1,1.66,5.88,5.88,0,0,0,0,4.08,5.12,5.12,0,0,0,1,1.66,4.76,4.76,0,0,0,1.58,1.12A4.9,4.9,0,0,0,106.62,42.71Z" transform="translate(-17.43 -18.34)" style="fill:#fff"/><path d="M130.64,33.77a3.6,3.6,0,0,0-1.41-1.15,4.15,4.15,0,0,0-1.74-.38,4.37,4.37,0,0,0-1.93.43A4.84,4.84,0,0,0,124,33.81a5.27,5.27,0,0,0-1,1.67,5.62,5.62,0,0,0-.36,2,5.82,5.82,0,0,0,.36,2.06,5.14,5.14,0,0,0,1,1.66,4.64,4.64,0,0,0,1.51,1.11,4.89,4.89,0,0,0,4,0,4.68,4.68,0,0,0,1.58-1.31l1.12.94a5.19,5.19,0,0,1-2.06,1.67,6.62,6.62,0,0,1-2.72.53,6.41,6.41,0,0,1-2.53-.5,6.22,6.22,0,0,1-2-1.38,6.35,6.35,0,0,1-1.35-2.09,7,7,0,0,1-.49-2.65,7.09,7.09,0,0,1,.47-2.6,6.26,6.26,0,0,1,5.94-4,6.72,6.72,0,0,1,2.47.46,4.54,4.54,0,0,1,2,1.51Z" transform="translate(-17.43 -18.34)" style="fill:#fff"/><path d="M139.06,31.17h1.41l5.36,12.6h-1.74l-1.28-3.1h-6.3l-1.3,3.1H133.5Zm.68,1.92h0l-2.62,6.2h5.14Z" transform="translate(-17.43 -18.34)" style="fill:#fff"/><path d="M148.12,31.17h3.22a15.27,15.27,0,0,1,1.81.11,4.86,4.86,0,0,1,1.61.46,2.92,2.92,0,0,1,1.16,1,3.39,3.39,0,0,1,.45,1.86,3.07,3.07,0,0,1-.84,2.24A4,4,0,0,1,153.21,38l3.58,5.8H155l-3.42-5.66h-1.92v5.66h-1.5Zm1.5,5.55H151q.62,0,1.29,0a4.42,4.42,0,0,0,1.23-.23,2.14,2.14,0,0,0,.93-.61,1.77,1.77,0,0,0,.37-1.2,2,2,0,0,0-.27-1.09,1.81,1.81,0,0,0-.7-.63,3,3,0,0,0-1-.29,8.45,8.45,0,0,0-1.09-.07h-2.1Z" transform="translate(-17.43 -18.34)" style="fill:#fff"/><path d="M159.62,31.17h3.74a8,8,0,0,1,1.66.17,4.13,4.13,0,0,1,1.41.57,2.93,2.93,0,0,1,1,1.07,3.91,3.91,0,0,1,0,3.36,3.06,3.06,0,0,1-1,1.07A4.13,4.13,0,0,1,165,38a6.49,6.49,0,0,1-1.39.16h-2.53v5.66h-1.5Zm1.5,5.55h2.53a3,3,0,0,0,1.82-.51,2.12,2.12,0,0,0,0-3.15,3,3,0,0,0-1.82-.51h-2.53Z" transform="translate(-17.43 -18.34)" style="fill:#fff"/><path d="M170.8,31.17h1.5v12.6h-1.5Z" transform="translate(-17.43 -18.34)" style="fill:#fff"/><path d="M181.91,44.09a6.84,6.84,0,0,1-2.64-.5,6.35,6.35,0,0,1-2.08-1.38,6.2,6.2,0,0,1-1.37-2.1,7.38,7.38,0,0,1,0-5.29,6.2,6.2,0,0,1,1.37-2.1,6.35,6.35,0,0,1,2.08-1.38,7.26,7.26,0,0,1,5.29,0,6.35,6.35,0,0,1,2.08,1.38,6.2,6.2,0,0,1,1.37,2.1,7.38,7.38,0,0,1,0,5.29,6.2,6.2,0,0,1-1.37,2.1,6.35,6.35,0,0,1-2.08,1.38A6.84,6.84,0,0,1,181.91,44.09Zm0-1.39a4.9,4.9,0,0,0,2-.41,4.77,4.77,0,0,0,1.58-1.12,5.12,5.12,0,0,0,1-1.66,5.87,5.87,0,0,0,0-4.08,5.13,5.13,0,0,0-1-1.66,4.78,4.78,0,0,0-1.58-1.12,5.19,5.19,0,0,0-4,0,4.77,4.77,0,0,0-1.58,1.12,5.12,5.12,0,0,0-1,1.66,5.88,5.88,0,0,0,0,4.08,5.12,5.12,0,0,0,1,1.66,4.76,4.76,0,0,0,1.58,1.12A4.89,4.89,0,0,0,181.91,42.71Z" transform="translate(-17.43 -18.34)" style="fill:#fff"/><path d="M189.88,30.79a1.33,1.33,0,0,1,.11-.54,1.4,1.4,0,0,1,.73-.73,1.37,1.37,0,0,1,1.07,0,1.42,1.42,0,0,1,.44.3,1.41,1.41,0,0,1,.3.44,1.37,1.37,0,0,1,0,1.07,1.4,1.4,0,0,1-.73.73,1.37,1.37,0,0,1-1.07,0,1.4,1.4,0,0,1-.73-.73A1.32,1.32,0,0,1,189.88,30.79Zm.2,0a1.14,1.14,0,0,0,.09.46,1.18,1.18,0,0,0,.63.63,1.19,1.19,0,0,0,.92,0,1.18,1.18,0,0,0,.63-.63,1.19,1.19,0,0,0,0-.92,1.18,1.18,0,0,0-.63-.63,1.19,1.19,0,0,0-.92,0,1.18,1.18,0,0,0-.63.63A1.14,1.14,0,0,0,190.08,30.79Zm.88.79h-.2V30h.61a.54.54,0,0,1,.39.11.44.44,0,0,1,.12.33.5.5,0,0,1,0,.19.38.38,0,0,1-.09.13.42.42,0,0,1-.13.09l-.15,0,.47.7h-.23l-.48-.7H191Zm0-.88h.42l.15,0a.26.26,0,0,0,.11-.08.25.25,0,0,0,0-.15.24.24,0,0,0,0-.13.24.24,0,0,0-.08-.08l-.12,0H191Z" transform="translate(-17.43 -18.34)" style="fill:#fff"/></svg>