<svg id="jornada_ecommerce" data-name="jornada ecommerce" xmlns="http://www.w3.org/2000/svg" viewBox="0 0 40.27 47.35">
  <title>logo</title>
  <g id="Layer_6" data-name="Layer 6">
    <path d="M13.26,38.63A18.31,18.31,0,0,1,7.72,24.95,18.22,18.22,0,0,1,13.26,11.3,18.74,18.74,0,0,1,26.83,5.91,18.56,18.56,0,0,1,40.35,11.3a18.31,18.31,0,0,1,5.49,13.65,18.35,18.35,0,0,1-5.51,13.68A18.57,18.57,0,0,1,26.8,44,18.66,18.66,0,0,1,13.26,38.63Zm20.68-5.88a11.07,11.07,0,0,0,2.68-7.79,11.08,11.08,0,0,0-2.68-7.79,9.25,9.25,0,0,0-7.16-2.92,9.25,9.25,0,0,0-7.16,2.92,11.07,11.07,0,0,0-2.68,7.79,11.07,11.07,0,0,0,2.68,7.79,9.24,9.24,0,0,0,7.16,2.92A9.25,9.25,0,0,0,33.94,32.74Z" transform="translate(-7.72 -5.91)" style="fill: #fd9827"/>
    <path d="M31.77,24.88a4.89,4.89,0,0,1-5,5,4.89,4.89,0,0,1-5-5,4.89,4.89,0,0,1,5-5,4.89,4.89,0,0,1,5,5Z" transform="translate(-7.72 -5.91)" style="fill: #fef065"/>
    <g id="dwnMEl.tif">
      <path d="M46.17,42l-7.85.16L41.61,49l-4.49,2.24-3.45-6.88L28.13,51l-.46-.13L27.85,27,46.29,41.59Z" transform="translate(-7.72 -5.91)" style="fill: #fff;stroke: #000;stroke-miterlimit: 10;stroke-width: 3px"/>
    </g>
  </g>
</svg>
