<svg id="munileg" xmlns="http://www.w3.org/2000/svg" viewBox="0 0 167.82 60.13"><title>munileg</title><path d="M184.29,27.88c-1.7,1.41-5.11,1.21-6.84-.42,0-.38.06-.59.49-.43,2.05,1.41,3,1.11,3.91-1.17a.54.54,0,0,1,.8,0c.71.37-.08,2.26,1.63,1.6Z" transform="translate(-16.47 -8.77)" style="fill:#fff"/><path d="M28.62,39.29c1.1-3.75,2.08-6.87,2.91-10,.32-1.23.8-1.77,2.15-1.68,1.87.12,3.75,0,5.63,0,.67,0,1.6-.3,1.52.95-.05.79.36,1.84-1.14,1.76-1-.05-1.19.73-1.19,1.52,0,3.62,0,7.24,0,10.86,0,.86.28,1.54,1.2,1.51,1.47,0,1.12,1,1.15,1.77.05,1.32-1,.84-1.57.86-2.08.05-4.16,0-6.24,0-.56,0-1.49.4-1.43-.78,0-.76-.45-1.85,1.05-1.85,1.22,0,1.29-.92,1.28-1.85,0-3.42,0-6.84,0-10.7a52.34,52.34,0,0,0-2.32,7.15c-.73,2.29-1.42,4.61-2,6.94-.27,1.08-.9,1.11-1.76,1.13a1.32,1.32,0,0,1-1.55-1.14c-1.14-4.06-2.37-8.09-3.55-12.14-.11-.37-.09-.81-.63-1,0,3.27,0,6.53,0,9.78,0,.94.08,1.8,1.31,1.82s.92,1,1,1.74c.1,1.13-.75.87-1.36.88-1.81,0-3.62,0-5.43,0-.54,0-1.16,0-1.07-.77.07-.65-.42-1.69.7-1.77,1.58-.12,1.56-1.1,1.55-2.24,0-3.35,0-6.71,0-10.06,0-.82.07-1.74-1.13-1.7s-1.1-.82-1.14-1.62c-.06-1.13.68-1.09,1.46-1.09,2,0,4,0,6,0,1,0,1.4.32,1.65,1.28C26.52,32.17,27.51,35.44,28.62,39.29Z" transform="translate(-16.47 -8.77)" style="fill:#fff"/><path d="M127,47.19c-2.38-2.09-2.4-2.67-.06-5.08.36-.37.55-.49.16-1.08-2.64-3.94-1-7.52,3.77-8.13a4.27,4.27,0,0,1,1.6,0c1.87.5,3.6,1,5.37-.57.89-.8,2.12-.27,2.43,1.08s-.33,1.88-1.59,2c-.53,0-1.4-.35-1.12,1,.85,4-1.56,6.63-5.78,6.43-.8,0-2.14-.74-2.26.37-.14,1.32,1.4.78,2.19.94,1.7.36,3.45.48,5.15.85s3.35,1.25,3.48,3.35-1.16,3.19-2.91,3.88a16,16,0,0,1-9.28.51c-1.44-.3-3-.79-3.34-2.49S126.05,48,127,47.19Z" transform="translate(-16.47 -8.77)" style="fill:#fff"/><path d="M77,39.87c0,.87,0,1.74,0,2.61s-.09,1.75,1.23,1.82.7,1.06.78,1.7c.12.94-.58.87-1.19.87-1.87,0-3.75,0-5.62,0-.46,0-1.21.28-1.2-.6,0-.63-.39-1.63.31-1.82,1.67-.45,1.22-1.67,1.26-2.72s0-2.28,0-3.41c0-1,0-2.1-1.3-2s-2.84.26-3,2,0,3.21,0,4.81c0,.61.18,1.05.83,1.17,1.29.23.73,1.25.75,1.93,0,1.16-.93.68-1.48.7-1.81.06-3.61,0-5.42,0-.66,0-1.26,0-1.11-.92.1-.62-.46-1.62.78-1.68s1.25-.9,1.23-1.82c0-1.14,0-2.28,0-3.41s.58-2.49-1.54-2.39c-.76,0-.39-1-.45-1.51s0-1,.73-1.17c1.3-.27,2.57-.7,3.86-1,.38-.1,1-.21,1.11.1.58,2.52,1.82.6,2.59.31,3.41-1.26,7.37-.05,6.94,4.72C76.94,38.66,77,39.26,77,39.87Z" transform="translate(-16.47 -8.77)" style="fill:#fff"/><path d="M98.27,46.87c-2,0-4,0-6,0-.55,0-1.33.22-1.26-.78,0-.72-.41-1.74.91-1.82s1.35-.83,1.34-1.81c0-3.49,0-7,0-10.46,0-1-.16-1.72-1.4-1.71s-.79-1-.86-1.64.35-1,1.09-1q3.62,0,7.24,0c.8,0,1.11.33,1,1.09s.36,1.63-.9,1.59S98,30.91,98,31.94c0,3.49.05,7,0,10.46,0,1.19.46,1.52,1.55,1.46a5.61,5.61,0,0,0,5.37-3.54c.5-1.23,1.1-1.35,2.26-.92,1.51.56.49,1.42.29,2.05-.56,1.78-.8,4.18-2.06,5.09s-3.61.28-5.48.32C99.35,46.88,98.81,46.87,98.27,46.87Z" transform="translate(-16.47 -8.77)" style="fill:#fff"/><path d="M57.8,38.7c0,1.14,0,2.28,0,3.42s-.13,2,1.43,2.08c1,.08.47,1.18.57,1.83s-.39.84-1,.86c-1.34,0-2.67.11-4,.16-.2,0-.54,0-.58-.07-.86-2.15-2-.47-2.93-.17-3.26,1.07-7-.06-6.64-4.7.12-1.4,0-2.81,0-4.22,0-1,.17-2-1.37-2.17-1.07-.12-.57-1.17-.61-1.83-.05-.84.64-.66,1.14-.7,5.24-.38,5.24-.38,5.24,4.88,0,1.21,0,2.41,0,3.62,0,1,0,2.22,1.43,2.12,1.26-.09,2.66-.46,2.83-2a44.3,44.3,0,0,0,0-4.82c0-.61-.22-1.11-.87-1.12-1.4,0-1.14-1-1.12-1.84,0-1.28,1-.79,1.64-.8,4.79-.12,4.79-.1,4.79,4.69Z" transform="translate(-16.47 -8.77)" style="fill:#fff"/><path d="M118.34,40.09h-3c-1.77,0-2,.37-1.22,1.93,1.1,2.2,3.48,2.52,6,.77.62-.43,1.06-1.18,2-.24s1,1.32,0,2.21a8.13,8.13,0,0,1-10,1.22,7.2,7.2,0,0,1-2.81-8.65,7.42,7.42,0,0,1,7.4-4.49A6.3,6.3,0,0,1,122.8,38c.35,1.44.19,2.34-1.65,2.09A20.6,20.6,0,0,0,118.34,40.09Z" transform="translate(-16.47 -8.77)" style="fill:#fff"/><path d="M87.33,38.54c0,1.27,0,2.54,0,3.82,0,1-.05,1.82,1.35,1.94,1.09.1.58,1.15.65,1.81.08.8-.54.76-1.09.76-2.08,0-4.15,0-6.23,0-.68,0-1.24-.07-1.13-.94.08-.65-.37-1.58.83-1.7.39,0,1,0,1-.46a37.07,37.07,0,0,0,.09-6.6c0-.39-.46-.45-.8-.42-1.29.11-1.1-.79-1.15-1.59-.07-1.06.59-1.13,1.4-1.21a12.74,12.74,0,0,0,2.54-.56c2.55-.81,2.54-.83,2.55,1.94Q87.33,36.94,87.33,38.54Z" transform="translate(-16.47 -8.77)" style="fill:#fff"/><path d="M146,35.25a8.48,8.48,0,0,1,7.62-3.38c4.67.28,9.38.14,14.07,0,1.76,0,2.23.69,2.12,2.27-.05.76-.27,1.12-1,1.07-.4,0-.8,0-1.21,0Z" transform="translate(-16.47 -8.77)" style="fill:#fff"/><path d="M181.15,44.52a2.49,2.49,0,0,0,.42-2c0-3,0-6,0-9.05,0-.53-.31-1.29.75-1.24.9,0,.64.68.64,1.15q.06,6.23.1,12.45a3.78,3.78,0,0,0,0,1.2c.32.9.78,2.12.11,2.62-1,.75-2.45.27-3.7.24-.8,0-.62-.8-.55-1.26.73-5.11.35-10.24.45-15.36,0-.54-.1-1.11.76-1s.54.62.55,1c0,3.08,0,6.17,0,9.25A2.42,2.42,0,0,0,181.15,44.52Z" transform="translate(-16.47 -8.77)" style="fill:#fff"/><path d="M173.76,40.43a40.46,40.46,0,0,0,.44,7.86c.27,1.22-.17,1.91-1.57,1.69A6.39,6.39,0,0,0,171,50c-.92.09-1.42-.19-1.27-1.2.77-5.16.35-10.36.46-15.55,0-.45-.14-.95.62-1,.91,0,.67.58.67,1.08,0,3.28,0,6.57,0,9.85,0,.41-.26,1.1.43,1.12s.48-.67.49-1.08c0-3.28,0-6.57,0-9.85,0-.46-.35-1.1.59-1.12s.74.51.74,1C173.76,35.51,173.76,37.72,173.76,40.43Z" transform="translate(-16.47 -8.77)" style="fill:#fff"/><path d="M178.08,38.56a8.33,8.33,0,0,0,0,1.2c.22,1.45-.27,1.92-1.82,1.93s-1.69-.73-1.61-1.93,0-2.13,0-3.19.4-1.8,1.6-1.85,1.78.67,1.8,1.85C178.09,37.23,178.08,37.89,178.08,38.56Z" transform="translate(-16.47 -8.77)" style="fill:#fff"/><path d="M178.09,46.49c-.58.7,1.09,2.4-1.05,2.68-1.6.2-2.76,0-2.38-2.12a9,9,0,0,0,0-2.19c-.08-1.21.4-2,1.65-2s1.81.66,1.77,1.89C178.07,45.26,178.09,45.79,178.09,46.49Z" transform="translate(-16.47 -8.77)" style="fill:#fff"/><path d="M87.51,29.47a2.57,2.57,0,0,1-5.13-.2,2.57,2.57,0,0,1,5.13.2Z" transform="translate(-16.47 -8.77)" style="fill:#fff"/><path d="M168.67,29.8h15.06C182.8,30.8,170.45,30.95,168.67,29.8Z" transform="translate(-16.47 -8.77)" style="fill:#fff"/><path d="M173,12.59l.31-.51c.85-1.32,1.4-3.43,3.13-3.31s2.36,2.14,3.07,3.66a.57.57,0,0,1,0,.61c-.05,0-.11.12-.16.11-2.09-.19-4.18.19-6.27,0A.4.4,0,0,1,173,12.59Z" transform="translate(-16.47 -8.77)" style="fill:#fff"/><path d="M160.12,46.71c-.36.77.93,3-1.52,2.36-2-.56-.46-2.58-.83-3.89a1.2,1.2,0,0,1,1.14-1.69,1,1,0,0,1,1.2,1C160.16,45.18,160.12,45.85,160.12,46.71Z" transform="translate(-16.47 -8.77)" style="fill:#fff"/><path d="M155.66,46.67c-.32.82.88,3.09-1.57,2.4-1.85-.52-.5-2.49-.8-3.78-.18-.78-.08-1.69,1-1.8a1.11,1.11,0,0,1,1.31,1.18C155.69,45.27,155.66,45.87,155.66,46.67Z" transform="translate(-16.47 -8.77)" style="fill:#fff"/><path d="M148.79,46.52c.43-1.06-.69-2.91,1.22-2.95,2.08,0,1.21,1.9,1.2,3s1.07,2.89-1.35,2.62C147.88,48.93,149.42,47.28,148.79,46.52Z" transform="translate(-16.47 -8.77)" style="fill:#fff"/><path d="M162.05,46.54c.42-1.06-.68-2.91,1.19-3,2.07-.07,1.26,1.87,1.22,2.93,0,.88,1,2.47-.95,2.65C161,49.38,162.66,47.35,162.05,46.54Z" transform="translate(-16.47 -8.77)" style="fill:#fff"/><path d="M169,46.79c-.38.71.93,2.91-1.42,2.29-2.15-.57-.56-2.65-.94-4a1.16,1.16,0,0,1,1.23-1.6A1.05,1.05,0,0,1,169,44.61C169,45.27,169,45.94,169,46.79Z" transform="translate(-16.47 -8.77)" style="fill:#fff"/><path d="M174.63,27.88c-.81.8-4.94,1.22-5.64.54a2,2,0,0,1-.29-.68c1.37,0,1-1.28,1.16-1.93s0-1.66.56-2.35a4.22,4.22,0,0,1,.5,2c-.06,2.32,1,2.87,3.35,2C174.59,27.42,174.77,27.5,174.63,27.88Z" transform="translate(-16.47 -8.77)" style="fill:#fff"/><path d="M155.68,39.76c-.11.81.46,1.89-1.2,1.9-1.85,0-1.15-1.24-1.19-2s-.38-2.29,1.13-2.28S155.6,38.76,155.68,39.76Z" transform="translate(-16.47 -8.77)" style="fill:#fff"/><path d="M160.15,39.76c-.13.81.48,1.9-1.2,1.9-1.84,0-1.14-1.24-1.19-2.06s-.31-2.28,1.18-2.27C160.6,37.35,160,38.82,160.15,39.76Z" transform="translate(-16.47 -8.77)" style="fill:#fff"/><path d="M166.59,39.7c0-1.15-.2-2.32,1.14-2.37,1.53-.05,1.26,1.23,1.27,2.19s.43,2.36-1.53,2.12C165.69,41.42,167.17,40.06,166.59,39.7Z" transform="translate(-16.47 -8.77)" style="fill:#fff"/><path d="M164.55,39.67c-.1.87.49,2-1.29,2s-1.06-1.2-1.09-1.95c0-1-.44-2.43,1.24-2.38C164.88,37.38,164.48,38.72,164.55,39.67Z" transform="translate(-16.47 -8.77)" style="fill:#fff"/><path d="M151.28,39.74c-.06.92.4,1.95-1.23,1.91-1.86,0-1.06-1.31-1.13-2.1-.09-.94-.31-2.28,1.2-2.22S151.14,38.86,151.28,39.74Z" transform="translate(-16.47 -8.77)" style="fill:#fff"/><path d="M179.45,13l.08-.53c1.14-.62,1.28-.5,1.42.62.2,1.59-.22,2.18-2,2-2.24-.2-4.52,0-6.78-.05-.4,0-1,0-.78-.56.34-.89-.19-2.05.67-2.67.44-.32.42.74.93.8a.86.86,0,0,1,0,.34c0,.07,0,.15,0,.2C174,14.62,178.43,14.5,179.45,13Z" transform="translate(-16.47 -8.77)" style="fill:#fff"/><path d="M175.33,16.59a1.25,1.25,0,0,1,2.18,0,12.41,12.41,0,0,1,.11,3c0,.78-.51,1-1.18,1s-1.19-.26-1.19-1A16,16,0,0,1,175.33,16.59Z" transform="translate(-16.47 -8.77)" style="fill:#fff"/><path d="M175.33,16.59c0,.86,0,1.71,0,2.57s.27,1.16,1.13,1.16,1.17-.32,1.12-1.16,0-1.71,0-2.57c.09.1.26.21.24.29-.32,2.52.47,4.14,3.29,4.17a77.8,77.8,0,0,1-9.54.1c.3-.79,1-.56,1.53-.5,1.62.21,2.1-.49,1.95-2C174.92,18,174.7,17.19,175.33,16.59Z" transform="translate(-16.47 -8.77)" style="fill:#fff"/><path d="M177.79,23.89a1.36,1.36,0,0,1-1.49,1.29A1.21,1.21,0,0,1,175,23.94a1.24,1.24,0,0,1,1.34-1.39C177.24,22.52,177.66,23.08,177.79,23.89Z" transform="translate(-16.47 -8.77)" style="fill:#fff"/><path d="M171.51,21.16l9.54-.1c-.65.86-1.57.43-2.33.39C176.32,21.35,173.88,21.91,171.51,21.16Z" transform="translate(-16.47 -8.77)" style="fill:#fff"/><path d="M174.63,27.88l-.36-.38c1.07-1.4,2.23-2.08,3.68-.46l-.49.43C176.39,26.8,175.52,27.41,174.63,27.88Z" transform="translate(-16.47 -8.77)" style="fill:#fff"/><path d="M182.65,25.87l-.8,0a1.54,1.54,0,0,0-.11-.57A1,1,0,0,1,181.9,24a.41.41,0,0,1,.67,0,1.1,1.1,0,0,1,.17,1.27A1.82,1.82,0,0,0,182.65,25.87Z" transform="translate(-16.47 -8.77)" style="fill:#fff"/><path d="M132.61,50.79c-.87-.16-1.79-.27-2.68-.51-.58-.16-1.15-.5-1-1.27a1.31,1.31,0,0,1,1.38-1.18c1.65.16,3.29.42,4.93.66a1,1,0,0,1,1,.85c.07.71-.51.9-1,1C134.39,50.56,133.53,50.64,132.61,50.79Z" transform="translate(-16.47 -8.77)" style="fill:#010203"/><path d="M116.16,38c-.66-.46-2,.62-2-.8,0-1.08,1-1.64,2.18-1.63s2.14.74,2,1.77C118.19,38.54,116.88,37.52,116.16,38Z" transform="translate(-16.47 -8.77)" style="fill:#090d16"/><path d="M179.45,13c.95.58.58,1.27-.17,1.34a38.08,38.08,0,0,1-6.12.06c-.75-.06-1.09-.84-.14-1.42.06,0,.14.06.19,0A8.8,8.8,0,0,1,179.45,13Z" transform="translate(-16.47 -8.77)" style="fill:#fff"/><path d="M16.65,65.82V65.5c.76-.07.86-.14.86-.94V58.9c0-.82-.07-.85-.83-.91V57.7a9.28,9.28,0,0,0,1.77-.42v7.29c0,.79.1.86.86.94v.31Z" transform="translate(-16.47 -8.77)" style="fill:#fff"/><path d="M25.26,64.8a2.72,2.72,0,0,1-2,1.16A2.37,2.37,0,0,1,21,63.41a3.09,3.09,0,0,1,.79-2.1,2.43,2.43,0,0,1,1.76-.87,1.86,1.86,0,0,1,1.8,1.82c0,.24-.06.34-.28.38s-1.7.16-3.13.2c0,1.63.95,2.3,1.79,2.3a2,2,0,0,0,1.37-.6ZM22,62.35c.67,0,1.33,0,2,0,.22,0,.29-.07.29-.24a1.1,1.1,0,0,0-1.06-1.2C22.68,60.88,22.16,61.38,22,62.35Z" transform="translate(-16.47 -8.77)" style="fill:#fff"/><path d="M32.26,60.66a1.88,1.88,0,0,1-.54.61l-.68,0a1.61,1.61,0,0,1,.36,1.07,2,2,0,0,1-2.1,1.92,5,5,0,0,1-.61-.06.76.76,0,0,0-.36.49c0,.24.22.47.76.47h1.26c.74,0,1.73.24,1.73,1.42s-1.4,2.37-3,2.37c-1.33,0-2.06-.78-2.08-1.46a.93.93,0,0,1,.29-.67,11.59,11.59,0,0,1,1-.84,1.6,1.6,0,0,1-.89-.66.9.9,0,0,1-.13-.5A2.58,2.58,0,0,0,28.31,64a1.73,1.73,0,0,1-1.06-1.61,2.05,2.05,0,0,1,2.15-2,2.38,2.38,0,0,1,1.15.3,14.26,14.26,0,0,0,1.63-.17Zm-3.77,5.55a1.3,1.3,0,0,0-.55.94c0,.65.7,1.14,1.58,1.14,1.14,0,1.73-.59,1.73-1.33a.87.87,0,0,0-.55-.85,3.06,3.06,0,0,0-1.15-.16A1.44,1.44,0,0,0,28.49,66.21Zm-.2-4c0,.94.46,1.61,1.13,1.61s1-.48,1-1.43-.44-1.62-1.13-1.62C28.76,60.79,28.29,61.29,28.29,62.23Z" transform="translate(-16.47 -8.77)" style="fill:#fff"/><path d="M33.72,65.82V65.5c.76-.07.84-.14.84-1V62.07c0-.74,0-.79-.76-.91v-.29a7.55,7.55,0,0,0,1.7-.47v4.14c0,.82.08.89.85,1v.31Zm.64-7a.62.62,0,0,1,.61-.62.6.6,0,0,1,.6.62.61.61,0,0,1-.61.61A.63.63,0,0,1,34.36,58.78Z" transform="translate(-16.47 -8.77)" style="fill:#fff"/><path d="M41.07,62c-.23-.71-.65-1.19-1.24-1.19a.78.78,0,0,0-.78.83c0,.54.48.82,1,1,.9.37,1.51.8,1.51,1.63a1.8,1.8,0,0,1-2,1.65,2.41,2.41,0,0,1-1.38-.41A5.65,5.65,0,0,1,38,64.14l.31-.06c.22.79.76,1.49,1.48,1.49a.84.84,0,0,0,.85-.84c0-.53-.35-.82-.95-1.09s-1.5-.73-1.5-1.66A1.65,1.65,0,0,1,40,60.43a2.8,2.8,0,0,1,1.07.2,9.1,9.1,0,0,1,.26,1.28Z" transform="translate(-16.47 -8.77)" style="fill:#fff"/><path d="M43.1,65.82V65.5c.76-.07.86-.14.86-.94V58.9c0-.82-.07-.85-.83-.91V57.7a9.28,9.28,0,0,0,1.77-.42v7.29c0,.79.1.86.86.94v.31Z" transform="translate(-16.47 -8.77)" style="fill:#fff"/><path d="M51.18,66a1,1,0,0,1-.56-.23,1.25,1.25,0,0,1-.29-.54,3.78,3.78,0,0,1-1.42.77,1.45,1.45,0,0,1-1.44-1.46,1.2,1.2,0,0,1,1-1.19,8.58,8.58,0,0,0,1.86-.78v-.22c0-.86-.41-1.36-1-1.36a.67.67,0,0,0-.54.24,1.74,1.74,0,0,0-.36.79.33.33,0,0,1-.35.28.59.59,0,0,1-.53-.52c0-.18.16-.31.38-.48a5.36,5.36,0,0,1,1.8-.84,1.57,1.57,0,0,1,1,.32,1.75,1.75,0,0,1,.54,1.46v2.23c0,.54.22.72.42.72a.92.92,0,0,0,.43-.13l.12.31Zm-.88-3c-.25.13-.83.38-1.08.5-.47.22-.73.44-.73.88a.88.88,0,0,0,.85.92,1.72,1.72,0,0,0,1-.43Z" transform="translate(-16.47 -8.77)" style="fill:#fff"/><path d="M58.19,64.74a2.85,2.85,0,0,1-2,1.22,2.4,2.4,0,0,1-2.4-2.51A2.88,2.88,0,0,1,55,61.1a3.17,3.17,0,0,1,1.81-.67,1.79,1.79,0,0,1,1.07.31.44.44,0,0,1,.19.37.59.59,0,0,1-.4.52c-.06,0-.12,0-.23-.13A1.74,1.74,0,0,0,56.2,61c-.79,0-1.49.66-1.49,1.92a2,2,0,0,0,1.81,2.22A2,2,0,0,0,58,64.49Z" transform="translate(-16.47 -8.77)" style="fill:#fff"/><path d="M59.78,65.82V65.5c.76-.07.84-.14.84-1V62.07c0-.74,0-.79-.76-.91v-.29a7.55,7.55,0,0,0,1.7-.47v4.14c0,.82.08.89.85,1v.31Zm.64-7a.62.62,0,0,1,.61-.62.6.6,0,0,1,.6.62.61.61,0,0,1-.61.61A.63.63,0,0,1,60.41,58.78Z" transform="translate(-16.47 -8.77)" style="fill:#fff"/><path d="M69.3,63.11A2.67,2.67,0,0,1,66.7,66a2.6,2.6,0,0,1-2.63-2.65,2.73,2.73,0,0,1,2.63-2.88A2.6,2.6,0,0,1,69.3,63.11Zm-4.11-.18c0,1.51.66,2.64,1.64,2.64.74,0,1.36-.55,1.36-2.19,0-1.4-.56-2.54-1.61-2.54C65.83,60.83,65.19,61.57,65.19,62.93Zm1.07-3.18c.23-.5.72-1.7.8-1.91a3.76,3.76,0,0,1,1-.11l0,.11-1.5,2.06Z" transform="translate(-16.47 -8.77)" style="fill:#fff"/><path d="M74.4,65.82V65.5c.71-.07.79-.17.79-1v-2c0-.83-.29-1.37-1.09-1.37a2.14,2.14,0,0,0-1.31.61v2.82c0,.82.07.86.78.94v.31H71V65.5c.82-.08.88-.14.88-.94V62.09c0-.77-.07-.8-.72-.92v-.28a7.22,7.22,0,0,0,1.67-.49v1c.24-.18.5-.36.8-.56a1.84,1.84,0,0,1,1-.36c.95,0,1.55.66,1.55,1.82v2.32c0,.82.06.86.76.94v.31Z" transform="translate(-16.47 -8.77)" style="fill:#fff"/><path d="M88.94,65.82V65.5c.71-.07.84-.12.84-1v-2c0-.85-.3-1.39-1.06-1.39a2.21,2.21,0,0,0-1.34.62,2.8,2.8,0,0,1,0,.5v2.34c0,.75.11.83.77.9v.31H85.62V65.5c.74-.07.85-.13.85-.92V62.52c0-.89-.31-1.38-1-1.38a2.23,2.23,0,0,0-1.31.62v2.82c0,.78.1.85.68.92v.31H82.28V65.5c.79-.07.9-.14.9-.92V62.1c0-.77,0-.83-.73-.94v-.28a7.33,7.33,0,0,0,1.67-.49v1c.25-.17.52-.38.88-.61a1.79,1.79,0,0,1,1-.32,1.43,1.43,0,0,1,1.33,1,11.13,11.13,0,0,1,1-.67,1.65,1.65,0,0,1,.9-.31c.94,0,1.52.66,1.52,1.83v2.31c0,.8.1.85.78.92v.31Z" transform="translate(-16.47 -8.77)" style="fill:#fff"/><path d="M98.78,65.53A13.47,13.47,0,0,0,97,66l-.07-.07V65c-.28.2-.55.42-.89.62a1.71,1.71,0,0,1-.92.3c-.8,0-1.49-.49-1.49-1.79V61.82c0-.66,0-.71-.73-.84v-.28a14.2,14.2,0,0,0,1.72-.22c0,.37,0,.94,0,1.75v1.61c0,1.07.52,1.36,1.06,1.36a1.87,1.87,0,0,0,1.29-.58V61.83c0-.68-.07-.73-.94-.85v-.28a12.79,12.79,0,0,0,1.88-.22v4c0,.6.1.68.55.71l.34,0Z" transform="translate(-16.47 -8.77)" style="fill:#fff"/><path d="M103.74,65.82V65.5c.71-.07.79-.17.79-1v-2c0-.83-.29-1.37-1.09-1.37a2.14,2.14,0,0,0-1.31.61v2.82c0,.82.07.86.78.94v.31h-2.6V65.5c.82-.08.88-.14.88-.94V62.09c0-.77-.07-.8-.72-.92v-.28a7.22,7.22,0,0,0,1.67-.49v1c.24-.18.5-.36.8-.56a1.84,1.84,0,0,1,1-.36c.95,0,1.55.66,1.55,1.82v2.32c0,.82.06.86.76.94v.31Z" transform="translate(-16.47 -8.77)" style="fill:#fff"/><path d="M107.93,65.82V65.5c.76-.07.84-.14.84-1V62.07c0-.74,0-.79-.76-.91v-.29a7.55,7.55,0,0,0,1.7-.47v4.14c0,.82.08.89.85,1v.31Zm.64-7a.62.62,0,0,1,.61-.62.6.6,0,0,1,.6.62.61.61,0,0,1-.61.61A.63.63,0,0,1,108.57,58.78Z" transform="translate(-16.47 -8.77)" style="fill:#fff"/><path d="M116.68,64.74a2.85,2.85,0,0,1-2,1.22,2.4,2.4,0,0,1-2.4-2.51,2.88,2.88,0,0,1,1.2-2.35,3.17,3.17,0,0,1,1.81-.67,1.79,1.79,0,0,1,1.07.31.44.44,0,0,1,.19.37.59.59,0,0,1-.4.52c-.06,0-.12,0-.23-.13a1.74,1.74,0,0,0-1.2-.49c-.79,0-1.49.66-1.49,1.92A2,2,0,0,0,115,65.14a2,2,0,0,0,1.46-.66Z" transform="translate(-16.47 -8.77)" style="fill:#fff"/><path d="M118.26,65.82V65.5c.76-.07.84-.14.84-1V62.07c0-.74,0-.79-.76-.91v-.29a7.55,7.55,0,0,0,1.7-.47v4.14c0,.82.08.89.85,1v.31Zm.64-7a.62.62,0,0,1,.61-.62.6.6,0,0,1,.6.62.61.61,0,0,1-.61.61A.63.63,0,0,1,118.9,58.78Z" transform="translate(-16.47 -8.77)" style="fill:#fff"/><path d="M125.1,60.61a1.34,1.34,0,0,1,.59-.18,2.14,2.14,0,0,1,2.12,2.27,3.4,3.4,0,0,1-3,3.26,2,2,0,0,1-.83-.22v1.57c0,.91.08,1,1,1.06v.32h-2.84v-.32c.77-.07.88-.14.88-.94V62c0-.78,0-.8-.79-.9v-.29a9.12,9.12,0,0,0,1.74-.52v.95ZM124,64.91a1.66,1.66,0,0,0,1.13.47c1,0,1.68-.86,1.68-2.22s-.73-2-1.61-2a2.35,2.35,0,0,0-1.2.5Z" transform="translate(-16.47 -8.77)" style="fill:#fff"/><path d="M133.51,66a1,1,0,0,1-.56-.23,1.24,1.24,0,0,1-.29-.54,3.78,3.78,0,0,1-1.42.77,1.45,1.45,0,0,1-1.44-1.46,1.2,1.2,0,0,1,1-1.19,8.55,8.55,0,0,0,1.86-.78v-.22c0-.86-.41-1.36-1-1.36a.68.68,0,0,0-.54.24,1.73,1.73,0,0,0-.36.79.34.34,0,0,1-.35.28.59.59,0,0,1-.53-.52c0-.18.16-.31.38-.48a5.37,5.37,0,0,1,1.8-.84,1.56,1.56,0,0,1,1,.32,1.74,1.74,0,0,1,.54,1.46v2.23c0,.54.22.72.42.72a.92.92,0,0,0,.43-.13l.12.31Zm-.88-3c-.25.13-.83.38-1.08.5-.47.22-.73.44-.73.88a.88.88,0,0,0,.85.92,1.71,1.71,0,0,0,1-.43Z" transform="translate(-16.47 -8.77)" style="fill:#fff"/><path d="M135.87,65.82V65.5c.76-.07.86-.14.86-.94V58.9c0-.82-.07-.85-.83-.91V57.7a9.28,9.28,0,0,0,1.78-.42v7.29c0,.79.1.86.86.94v.31Z" transform="translate(-16.47 -8.77)" style="fill:#fff"/><path d="M149.16,63.11a2.67,2.67,0,0,1-2.6,2.85,2.6,2.6,0,0,1-2.63-2.65,2.73,2.73,0,0,1,2.63-2.88A2.6,2.6,0,0,1,149.16,63.11ZM145,62.93c0,1.51.66,2.64,1.64,2.64.74,0,1.36-.55,1.36-2.19,0-1.4-.56-2.54-1.61-2.54C145.69,60.83,145,61.57,145,62.93Z" transform="translate(-16.47 -8.77)" style="fill:#fff"/><path d="M154.26,65.82V65.5c.71-.07.79-.17.79-1v-2c0-.83-.29-1.37-1.09-1.37a2.14,2.14,0,0,0-1.31.61v2.82c0,.82.07.86.78.94v.31h-2.6V65.5c.82-.08.88-.14.88-.94V62.09c0-.77-.07-.8-.72-.92v-.28a7.22,7.22,0,0,0,1.67-.49v1c.24-.18.5-.36.8-.56a1.84,1.84,0,0,1,1-.36c.95,0,1.55.66,1.55,1.82v2.32c0,.82.06.86.76.94v.31Z" transform="translate(-16.47 -8.77)" style="fill:#fff"/><path d="M161.48,63.44h-2.73l.17-.66h2.75Z" transform="translate(-16.47 -8.77)" style="fill:#fff"/><path d="M163.54,65.82V65.5c.76-.07.86-.14.86-.94V58.9c0-.82-.07-.85-.83-.91V57.7a9.28,9.28,0,0,0,1.78-.42v7.29c0,.79.1.86.86.94v.31Z" transform="translate(-16.47 -8.77)" style="fill:#fff"/><path d="M167.8,65.82V65.5c.76-.07.84-.14.84-1V62.07c0-.74,0-.79-.76-.91v-.29a7.55,7.55,0,0,0,1.7-.47v4.14c0,.82.08.89.85,1v.31Zm.64-7a.62.62,0,0,1,.61-.62.6.6,0,0,1,.6.62.61.61,0,0,1-.61.61A.63.63,0,0,1,168.43,58.78Z" transform="translate(-16.47 -8.77)" style="fill:#fff"/><path d="M175.43,65.82V65.5c.71-.07.79-.17.79-1v-2c0-.83-.29-1.37-1.09-1.37a2.14,2.14,0,0,0-1.31.61v2.82c0,.82.07.86.78.94v.31H172V65.5c.82-.08.88-.14.88-.94V62.09c0-.77-.07-.8-.72-.92v-.28a7.22,7.22,0,0,0,1.67-.49v1c.24-.18.5-.36.8-.56a1.84,1.84,0,0,1,1-.36c.95,0,1.55.66,1.55,1.82v2.32c0,.82.06.86.76.94v.31Z" transform="translate(-16.47 -8.77)" style="fill:#fff"/><path d="M183.92,64.8A2.72,2.72,0,0,1,182,66a2.37,2.37,0,0,1-2.34-2.55,3.09,3.09,0,0,1,.79-2.1,2.43,2.43,0,0,1,1.76-.87,1.86,1.86,0,0,1,1.8,1.82c0,.24-.06.34-.28.38s-1.7.16-3.13.2c0,1.63.95,2.3,1.79,2.3a2,2,0,0,0,1.37-.6Zm-3.29-2.45c.67,0,1.33,0,2,0,.22,0,.29-.07.29-.24a1.1,1.1,0,0,0-1.05-1.2C181.34,60.88,180.82,61.38,180.64,62.35Z" transform="translate(-16.47 -8.77)" style="fill:#fff"/></svg>