<svg id="poderlocal" xmlns="http://www.w3.org/2000/svg" viewBox="0 0 179.31 23.38"><title>poderlocal</title><path d="M19.42,47.38c1.94,0,3.88-.08,5.81,0a6.28,6.28,0,0,1,5.4,4.05c1.29,3.3-1.26,6.85-4,7.59a31.53,31.53,0,0,1-6.83.68c-1.71.08-1.73,0-1.73,1.71,0,1.48,0,3,0,4.45s.4,1.69,1.76,1.86a3.59,3.59,0,0,1,1.13.62c-.39.26-.76.74-1.16.76-2.1.1-4.2.1-6.31.07-.29,0-.58-.38-.87-.59.26-.29.47-.78.78-.84,1.71-.35,1.86-.46,1.86-2.25q0-7.3,0-14.6c0-2-.4-2.31-1.92-2.32-.24,0-.48-.48-.71-.75.3-.2.6-.57.9-.58,1.94-.05,3.88,0,5.82,0Zm-1.3,6h0c0,1.28-.07,2.56,0,3.83a1.36,1.36,0,0,0,.92.94,36.78,36.78,0,0,0,5.05-.24,3.8,3.8,0,0,0,3.39-3.66c.21-2.41-.7-4.43-2.67-4.86a34.19,34.19,0,0,0-6.11-.45c-.21,0-.6.62-.62,1C18.06,51,18.11,52.18,18.11,53.33Z" transform="translate(-12.69 -46.13)" style="fill:#fff"/><path d="M62.81,67.42a37.87,37.87,0,0,1-3.9,1.71c-4,1.23-6.94-1.34-8-4.55A8.9,8.9,0,0,1,51.86,57a7.08,7.08,0,0,1,9.71-2.45l1.27.7c0-2.1,0-4-.06-5.82,0-.19-.86-.33-1.31-.51s-1.1-.32-1.18-.61c-.21-.78.47-.82,1.06-1,.91-.24,1.78-.64,2.67-1,1.26-.44,1.51-.2,1.5,1.09,0,6.15,0,12.29,0,18.44,0,1.23.52,1.93,1.87,1.9.27,0,.56.4.84.62-.27.24-.51.65-.81.7a32.87,32.87,0,0,1-3.68.41c-.24,0-.61-.34-.72-.6A6.27,6.27,0,0,1,62.81,67.42Zm.07-5.5h0c0-.91,0-1.82,0-2.72a3.79,3.79,0,0,0-.41-1.77,4.83,4.83,0,0,0-4.54-2.24,4.17,4.17,0,0,0-3.76,2.61,8.53,8.53,0,0,0,0,7.18,4.28,4.28,0,0,0,5,2.64c2.73-.66,3.73-1.85,3.73-4.46Q62.88,62.53,62.88,61.92Z" transform="translate(-12.69 -46.13)" style="fill:#fff"/><path d="M179.66,61.55c0,1.36,0,2.72,0,4.08,0,1.86.9,2.6,2.73,2.5a4,4,0,0,1,1.08.25c-.3.28-.55.69-.91.82a4.12,4.12,0,0,1-5-1.48c-.43-.65-.82-.44-1.35-.21a25.2,25.2,0,0,1-4.56,1.77,6.64,6.64,0,0,1-3.48-.39,3.38,3.38,0,0,1-2.4-3.41,3.93,3.93,0,0,1,3-3.73,51.28,51.28,0,0,1,7-1.49c1.07-.16,1.4-.51,1.37-1.54,0-1.39-.25-2.69-1.58-3.39a4.59,4.59,0,0,0-4.72.07c-.58.36-.85,1.23-1.27,1.86a14.78,14.78,0,0,1-1.46,2c-.12.12-1.09-.23-1.1-.41-.05-.81-.2-1.87.23-2.41a7.78,7.78,0,0,1,2.93-2.28,9.07,9.07,0,0,1,7.1,0,3.54,3.54,0,0,1,2.42,3.53C179.64,59,179.66,60.27,179.66,61.55Zm-2.56,2.34a5.91,5.91,0,0,0,0-1.54c-.09-.28-.52-.69-.74-.66a51.13,51.13,0,0,0-5.69,1,2.57,2.57,0,0,0-1.91,2.94,2.66,2.66,0,0,0,2.85,2,19.42,19.42,0,0,0,4-1.35C176.72,65.85,177.43,65,177.09,63.89Z" transform="translate(-12.69 -46.13)" style="fill:#fff"/><path d="M119.37,69.2c-2.1,0-4.21,0-6.31,0-.42,0-.83-.39-1.24-.59.36-.29.71-.8,1.08-.82A1.53,1.53,0,0,0,114.53,66q0-7.8,0-15.59c0-1.08-.45-1.79-1.7-1.83-.34,0-.67-.41-1-.63.32-.23.63-.67,1-.67,2.14,0,4.29,0,6.43,0,.3,0,.6.28.89.44-.3.2-.59.52-.92.57-1.6.27-2,.63-2,2.26q0,7.43,0,14.85c0,1.68.26,2,1.95,1.92a21.29,21.29,0,0,0,4.39-.48,6.42,6.42,0,0,0,4.06-3.4,3.64,3.64,0,0,1,.64-1,2.88,2.88,0,0,1,1-.35c.1.34.37.75.27,1-.73,1.83-1.5,3.64-2.37,5.41a1.68,1.68,0,0,1-1.28.6c-2.18.06-4.37,0-6.56,0Z" transform="translate(-12.69 -46.13)" style="fill:#fff"/><path d="M47.82,61.51c-.29,4.22-3.34,8-7.72,8-4.91,0-7.53-3.06-7.61-7.83s3.1-8.17,7.8-8.15S47.62,56.64,47.82,61.51Zm-12.32,0c0,.66,0,1.32,0,2a5,5,0,0,0,4,4.63A4.35,4.35,0,0,0,44.24,65a9.79,9.79,0,0,0-.1-7.26c-1.3-3.19-4.57-3.9-7.13-1.62C35.38,57.6,35.37,59.54,35.49,61.5Z" transform="translate(-12.69 -46.13)" style="fill:#fff"/><path d="M146.38,61.59c-.34,4.18-3.32,7.86-7.67,7.92-4.94.07-7.65-3.1-7.67-8,0-4.73,3.23-8,7.88-8S146.22,56.71,146.38,61.59ZM134,61.52l-.3.09a33.43,33.43,0,0,0,1.26,4.3,3.83,3.83,0,0,0,4,2.22,4,4,0,0,0,3.56-2.47,9.44,9.44,0,0,0,.21-7.92c-1.28-3.2-4.57-3.88-7.13-1.59C133.93,57.62,133.93,59.56,134,61.52Z" transform="translate(-12.69 -46.13)" style="fill:#fff"/><path d="M78.55,59.79c-1.36,0-2.72,0-4.08,0-.38,0-1,.35-1.07.65-.64,2.44,1.14,6,3.45,6.91s4.19.1,5.95-1.33c.22-.18.39-.48.64-.57a3,3,0,0,1,1,0c0,.3.11.71,0,.88C80.21,71,73.48,70.3,71.22,65.16a8.17,8.17,0,0,1,1.07-9c2.22-2.68,5.21-3.19,8.42-2.31a5.5,5.5,0,0,1,3.77,4.23c.26.95-.11,1.65-1.22,1.66-1.57,0-3.13,0-4.7,0Zm-1.09-1.12v-.06h3.22c.72,0,.93-.37.82-1a3.58,3.58,0,0,0-3.63-2.75c-2,.07-3.73,1.39-3.92,3-.08.64.11.93.79.9C75.64,58.64,76.55,58.67,77.46,58.67Z" transform="translate(-12.69 -46.13)" style="fill:#fff"/><path d="M151.72,61.24a7.8,7.8,0,0,0,1.5,4.42c1.78,2.53,5.3,2.79,7.83.62a9.14,9.14,0,0,1,1.24-1c.22-.13.59,0,.89,0,0,.3.06.7-.1.87-2.63,2.78-5.91,4.36-10,2.49-3.09-1.4-4.7-5.55-3.92-9.06,1.4-6.33,8.81-7.35,12.1-4.75a5.91,5.91,0,0,1,1.61,2.09,1.38,1.38,0,0,1-1,1.92c-.38.1-1-.57-1.47-.94-.14-.11-.17-.37-.26-.55-.75-1.56-1.81-2.66-3.71-2.52a4.65,4.65,0,0,0-4.08,3.27C152,59.13,151.92,60.2,151.72,61.24Z" transform="translate(-12.69 -46.13)" style="fill:#fff"/><path d="M188,69.16c-1,0-2.07.06-3.09,0-.32,0-.6-.47-.9-.72.27-.23.54-.64.82-.65,1.39-.06,1.7-.88,1.7-2.07,0-5.2,0-10.4,0-15.59,0-1-.4-1.26-1.32-1.25-.43,0-1.17-.24-1.24-.51-.23-.86.53-.87,1.14-1,.94-.27,1.84-.7,2.78-1s1.25,0,1.24,1c-.05,6.14-.1,12.29-.1,18.43,0,1.36.62,1.87,1.94,2.09.36.06.65.49,1,.75-.33.22-.64.59-1,.62-1,.09-2,0-3,0Z" transform="translate(-12.69 -46.13)" style="fill:#fff"/><path d="M92.22,56.11c.86-.6,1.5-1.1,2.18-1.52a4.79,4.79,0,0,1,4.2-.84c1,.36,1.5,1.15,1.17,2a1.61,1.61,0,0,1-2.37.74A3.85,3.85,0,0,0,92.34,58a1.65,1.65,0,0,0-.21.82c0,2.23,0,4.45.1,6.68,0,1.73.29,2,2,2.31.27.05.49.41.73.62-.25.26-.5.73-.77.74-2.18.08-4.37.1-6.55.07a.91.91,0,0,1-.61-.66,1,1,0,0,1,.56-.75c2-.57,2-.55,2-2.61,0-2.52,0-5,0-7.55,0-1.06-.37-1.37-1.37-1.34-.42,0-1.15-.24-1.23-.52-.25-.87.51-.86,1.13-1,.87-.24,1.68-.65,2.53-1,1.13-.42,1.41-.2,1.39,1C92.09,55.11,92.16,55.49,92.22,56.11Z" transform="translate(-12.69 -46.13)" style="fill:#fff"/></svg>