<svg id="prestashop" xmlns="http://www.w3.org/2000/svg" viewBox="0 0 191.5 67.46">
  <title>prestashop</title>
  <g>
    <path d="M107.75,36.59c0-.53-.08-1-.12-1.45s0-.73-.51-.79c-.09,0-.19-.22-.24-.35-.17-.52-.32-1.06-.49-1.62A15.62,15.62,0,0,0,112,28.67a16.47,16.47,0,0,1-7.83.8,3.85,3.85,0,0,0,1,3.2c-.52-.06-1-.07-1.55-.18-1.28-.28-2.26-1-2.3-2.3,0-.17-.22-.35-.38-.48-.87-.76-1.75-1.5-2.62-2.25l.11-.15,3,1.54c1.62-2.72,2.43-5.7,2.71-10A32.32,32.32,0,0,1,110.89,26l.22,0a16.74,16.74,0,0,0,.43-2.56,28.8,28.8,0,0,0-.25-3.26,3.13,3.13,0,0,0-1.19-2.08,2.22,2.22,0,0,0-3.25.34c-.33.39-.62.81-1,1.3a6.34,6.34,0,0,1,1.2-2.89,1.43,1.43,0,0,1,2.19-.36c.1.09.27.1.53,0-.37-.48-.7-1-1.11-1.42a11.2,11.2,0,0,0-19.51,8.34,10.85,10.85,0,0,0,3.31,7.25,8.81,8.81,0,0,0,1.42,1.07c.32.2.45.39.33.75-.18.55-.34,1.11-.51,1.66,0,.06,0,.18-.05.18-.94.17-.59.92-.67,1.48,0,.26-.1.52-.15.78a15.94,15.94,0,0,1,7.34-30,15.94,15.94,0,0,1,7.57,30.05Z" transform="translate(-7.5 -6.54)" style="fill: #fff"/>
    <path d="M179.32,47.77h4v3.08a22.94,22.94,0,0,1,2.25-2.12c2.67-1.92,6.63-1.69,9.62.54,3.36,2.52,4.22,6,3.62,10a9.05,9.05,0,0,1-6.18,7.58c-3.23,1.16-6.1.31-8.58-2l-.54-.5s0,0-.16,0V74h-4ZM195,57.43c-.14-.75-.22-1.52-.43-2.25a5.69,5.69,0,0,0-8.49-3.29,6.28,6.28,0,0,0-2.8,5.31,6.13,6.13,0,0,0,4,6.19C191.15,64.61,194.92,61.69,195,57.43Z" transform="translate(-7.5 -6.54)" style="fill: #fff"/>
    <path d="M11.72,59.58V67H7.5V41.73A4,4,0,0,1,8,41.67c3.43,0,6.86,0,10.29.15a14.71,14.71,0,0,1,3.92.82A6.57,6.57,0,0,1,26.88,48,16,16,0,0,1,27,52.76c-.46,3.47-2.54,5.6-6.13,6.31a43.51,43.51,0,0,1-5.72.5C14,59.64,12.91,59.58,11.72,59.58Zm0-3.87H17a13.45,13.45,0,0,0,1.4-.09c2.69-.3,4-1.63,4.28-4.34a9.39,9.39,0,0,0,0-1.8,3.63,3.63,0,0,0-2.63-3.34c-2.72-.9-5.52-.48-8.32-.59Z" transform="translate(-7.5 -6.54)" style="fill: #fff"/>
    <path d="M133,44.17l-2.23,3.13a11.17,11.17,0,0,0-7.55-2.21,6,6,0,0,0-1.75.4,2.81,2.81,0,0,0-.22,5.16c1.28.54,2.64.89,4,1.36a43.19,43.19,0,0,1,5.45,2c4.14,2.15,4.15,8.72.4,11.39a9.79,9.79,0,0,1-5,1.8,15.41,15.41,0,0,1-11.89-4l2.49-3c1.71.9,3.28,1.87,5,2.56a7.61,7.61,0,0,0,5.25.25,3.06,3.06,0,0,0,2.42-2.78,2.8,2.8,0,0,0-2.14-3c-1.88-.67-3.85-1.09-5.74-1.74a24.53,24.53,0,0,1-3.5-1.6c-3.6-1.92-3.78-8.84.2-11.22a12.32,12.32,0,0,1,9.61-1.16A11.32,11.32,0,0,1,133,44.17Z" transform="translate(-7.5 -6.54)" style="fill: #fff"/>
    <path d="M106.89,50.7V47.78h4V67h-3.95V64.12a22.42,22.42,0,0,1-2.42,1.95,8.73,8.73,0,0,1-12.9-5.73C90.82,57,91,53.82,93.21,51c2.55-3.29,7.18-4.55,10.52-2.79A22.3,22.3,0,0,1,106.89,50.7ZM95.28,57.49c0,.33,0,.66.07,1a5.85,5.85,0,0,0,8.5,4.55,6.39,6.39,0,0,0,3-6.85A5.83,5.83,0,0,0,100.55,51,6.21,6.21,0,0,0,95.28,57.49Z" transform="translate(-7.5 -6.54)" style="fill: #fff"/>
    <path d="M136.68,66.95V40.21h4v11A7.42,7.42,0,0,1,144.38,48a7.55,7.55,0,0,1,8.32,1.8,6.66,6.66,0,0,1,1.64,4.39c.06,4.17,0,8.35,0,12.52a1.29,1.29,0,0,1-.07.27h-4c0-.33,0-.65,0-1,0-3.57,0-7.14-.12-10.71a3.85,3.85,0,0,0-2.32-3.78c-2.85-1.16-6.7.32-7.09,3.93-.18,1.69-.12,3.4-.14,5.1,0,2.11,0,4.23,0,6.4Z" transform="translate(-7.5 -6.54)" style="fill: #fff"/>
    <path d="M46.76,61.32c2,3.09,6.71,3,10.42-.14l2.34,2.57a11.25,11.25,0,0,1-6.84,3.51,10,10,0,0,1-10-4.77c-3.31-6-.1-14.3,7.86-15a10,10,0,0,1,7.15,1.89,7.21,7.21,0,0,1,2.94,5.39.75.75,0,0,1-.57.9q-6.27,2.61-12.53,5.25ZM56,53.6c-1-2.14-3.57-2.94-6.34-2.08a6,6,0,0,0-4.2,6.62Z" transform="translate(-7.5 -6.54)" style="fill: #fff"/>
    <path d="M156.6,57.4a10.15,10.15,0,1,1,10.2,9.91A9.85,9.85,0,0,1,156.6,57.4Zm16.22.09a6.09,6.09,0,1,0-12.17-.17,6.09,6.09,0,1,0,12.17.17Z" transform="translate(-7.5 -6.54)" style="fill: #fff"/>
    <path d="M76.65,49.47l-1.36,2.66c-1.63-.43-3.13-.95-4.68-1.2a6.32,6.32,0,0,0-2.57.32,1.62,1.62,0,0,0-1.23,1.66A1.54,1.54,0,0,0,68,54.46c1.64.55,3.31,1,4.93,1.58a11.38,11.38,0,0,1,2.26,1.17C78,59,77.78,63.88,75,65.82c-2.41,1.67-5,1.75-7.72,1.16a13.21,13.21,0,0,1-5.54-2.58l1.83-2.94a41.68,41.68,0,0,0,4.31,1.94,9.5,9.5,0,0,0,3.16.28A2.65,2.65,0,0,0,72.48,63a1.57,1.57,0,0,0-.12-2.69A40.64,40.64,0,0,0,68.6,58.7,26.77,26.77,0,0,1,65,57c-3.19-2-2.45-6.42.28-8.15A10.54,10.54,0,0,1,76.65,49.47Z" transform="translate(-7.5 -6.54)" style="fill: #fff"/>
    <path d="M83.95,51c0,1.24,0,2.39,0,3.53,0,1.95,0,3.9,0,5.85,0,1.29.15,2.53,1.48,3.14A3,3,0,0,0,89,62.74a1.83,1.83,0,0,1,.25-.16l1.63,2.79A6.55,6.55,0,0,1,84,66.93a5.87,5.87,0,0,1-4-5.22,10.67,10.67,0,0,1-.09-1.23q0-9.1,0-18.2c0-.16,0-.33,0-.55h4v6h5V51Z" transform="translate(-7.5 -6.54)" style="fill: #fff"/>
    <path d="M40.32,47.47v4c-.56.08-1.15.12-1.73.24a5.31,5.31,0,0,0-4.14,4.41,15.89,15.89,0,0,0-.32,3.27c0,2.5,0,5,0,7.55h-4V47.78h4V51.3C35.69,49.2,37.51,47.63,40.32,47.47Z" transform="translate(-7.5 -6.54)" style="fill: #fff"/>
    <path d="M106.8,35.2a8.55,8.55,0,0,0,.19,1.33c.11.37,0,.5-.31.64a15.81,15.81,0,0,1-12.78,0,.62.62,0,0,1-.33-.45,14.83,14.83,0,0,1,.18-1.48Z" transform="translate(-7.5 -6.54)" style="fill: #fff"/>
    <path d="M103.79,18.66a9,9,0,0,0-10.19.87c.2-1.7,2.47-3.64,4.51-3.88C100.48,15.37,103.08,16.73,103.79,18.66Z" transform="translate(-7.5 -6.54)" style="fill: #fff"/>
    <path d="M96.16,22.57c1.07-.27,2.14-.56,3.22-.79a1.1,1.1,0,0,0,1-.9c.18-.72.46-1.41.75-2.24.23.68.41,1.27.63,1.83a13.93,13.93,0,0,0,.65,1.43,1.57,1.57,0,0,1-.19,1.73,1.62,1.62,0,0,1-1.7.4c-1-.36-2-.68-3-1-.44-.14-.9-.23-1.35-.34Zm5.74-.69c-.37-.26-.61-.56-.79-.52s-.4.36-.59.55c.19.18.38.51.56.51S101.53,22.15,101.9,21.88Z" transform="translate(-7.5 -6.54)" style="fill: #fff"/>
    <path d="M95.65,34.36,96.12,33a12,12,0,0,0,8.39,0l.48,1.4Z" transform="translate(-7.5 -6.54)" style="fill: #fff"/>
    <path d="M110.19,20.17l.78,2.57a4.31,4.31,0,0,1-.36.65c-.1.14-.32.31-.46.29s-.34-.22-.49-.37a.33.33,0,0,1-.07-.25c.14-1,.29-2,.44-2.94Z" transform="translate(-7.5 -6.54)" style="fill: #fff"/>
    <path d="M101.9,21.88c-.37.26-.59.54-.82.54s-.37-.33-.56-.51c.19-.2.37-.51.59-.55S101.53,21.62,101.9,21.88Z" transform="translate(-7.5 -6.54)"/>
  </g>
</svg>
