<svg id="doppler" xmlns="http://www.w3.org/2000/svg" viewBox="0 0 173.51 61.1">
  <title>doppler</title>
  <g>
    <path d="M18.51,42.19c0-4.72,0-9.43,0-14.15,0-2.29.93-3.67,2.72-4.19a3.46,3.46,0,0,1,1-.15c3.49,0,7-.1,10.47,0,9.1.33,15.43,6.21,16.56,15.23.54,4.3.33,8.52-1.6,12.49-2.79,5.73-7.59,8.6-13.78,9.08-3.76.29-7.55.17-11.33.12-2.59,0-4-1.5-4-4.12C18.48,51.75,18.51,47,18.51,42.19ZM26.37,53a64.17,64.17,0,0,0,7.25-.05,7.9,7.9,0,0,0,6.83-5.56,15.21,15.21,0,0,0,0-10.44,8,8,0,0,0-4.22-4.7c-3.16-1.51-6.5-.92-9.81-1Z" transform="translate(-18.5 -10.44)" style="fill: #fff"/>
    <path d="M87.65,35.41c3.28-4.35,11.08-4.27,15.19.38,4.6,5.21,5.67,15.71-.36,21.76a10.84,10.84,0,0,1-14.31,1.27c-.13-.09-.26-.16-.56-.34,0,.79,0,1.45,0,2.11,0,2.39,0,4.78,0,7.18a3.65,3.65,0,0,1-4.47,3.7,3.6,3.6,0,0,1-2.9-3.22,10.17,10.17,0,0,1,0-1.26q0-15,0-30a7,7,0,0,1,.18-1.72,3.7,3.7,0,0,1,7-.42C87.48,35,87.56,35.22,87.65,35.41ZM99.48,46.56A33.65,33.65,0,0,0,98,42.27a4.83,4.83,0,0,0-4.65-2.77,5.11,5.11,0,0,0-4.84,3,8.94,8.94,0,0,0-.06,7.86,5.09,5.09,0,0,0,4.88,3.22,4.93,4.93,0,0,0,4.8-2.86A30.91,30.91,0,0,0,99.48,46.56Z" transform="translate(-18.5 -10.44)" style="fill: #fff"/>
    <path d="M116.52,58.49c0,3,0,5.8,0,8.61a6.72,6.72,0,0,1-.19,1.72,3.51,3.51,0,0,1-3.93,2.7,3.62,3.62,0,0,1-3.28-3.39c0-.32,0-.65,0-1q0-15.12,0-30.24a6.54,6.54,0,0,1,.19-1.72,3.71,3.71,0,0,1,7-.44c.09.2.18.39.28.61,3.37-4.38,11.21-4.2,15.27.5,4.38,5.07,5.46,14.93.15,21a11,11,0,0,1-14.82,2C117,58.77,116.83,58.68,116.52,58.49Zm11.84-12a32.28,32.28,0,0,0-1.47-4.32,4.83,4.83,0,0,0-4.68-2.71,5.11,5.11,0,0,0-4.81,3,8.93,8.93,0,0,0,.14,8.12,5,5,0,0,0,4.79,2.9,5,5,0,0,0,4.8-3A32.78,32.78,0,0,0,128.37,46.52Z" transform="translate(-18.5 -10.44)" style="fill: #fff"/>
    <path d="M154.79,49.11c.46,3.1,2.9,5.09,6.26,5.27a7.75,7.75,0,0,0,4.45-1.07c.83-.49,1.64-1,2.49-1.49a2.67,2.67,0,0,1,3.37.44,2.93,2.93,0,0,1,.79,3.52,7,7,0,0,1-1.75,2.14c-4.79,3.71-13.63,4.62-19.11-.69a14,14,0,0,1-4.12-11.85c.54-5.73,3.24-10.14,8.76-12.32,6.92-2.73,14.71,1.23,17.12,8.66a17.12,17.12,0,0,1,.62,4.94A2.25,2.25,0,0,1,171.51,49a9.37,9.37,0,0,1-1.54.13H154.79Zm11.49-5c-.49-3.73-3-5.86-6.44-5.58a5.77,5.77,0,0,0-5.12,5.58Z" transform="translate(-18.5 -10.44)" style="fill: #fff"/>
    <path d="M77.79,47.25c-.2,4.86-2.13,9.43-7.1,12.12a13.11,13.11,0,0,1-19.15-9.14c-1.2-5.85.16-11,4.74-15,6.6-5.74,16.68-3.08,20.24,5.23A16.75,16.75,0,0,1,77.79,47.25Zm-19.4-.89a27.8,27.8,0,0,0,1.12,4.13,5,5,0,0,0,4.89,3,5.16,5.16,0,0,0,5-2.94,8.77,8.77,0,0,0,.07-7.93,5.47,5.47,0,0,0-10,.08A31.47,31.47,0,0,0,58.39,46.37Z" transform="translate(-18.5 -10.44)" style="fill: #fff"/>
    <path d="M137.83,42c0-4.55,0-9.11,0-13.66a8.75,8.75,0,0,1,.2-2,3.66,3.66,0,0,1,7.16.26,10.07,10.07,0,0,1,.15,1.73q0,13.76,0,27.52a10,10,0,0,1-.16,1.83,3.66,3.66,0,0,1-7.15.2,8.88,8.88,0,0,1-.2-2C137.82,51.21,137.83,46.59,137.83,42Z" transform="translate(-18.5 -10.44)" style="fill: #fff"/>
    <path d="M183.07,35.54c.51-.55,1-1.1,1.46-1.6a5.09,5.09,0,0,1,3.9-1.41,3.76,3.76,0,0,1,3.44,4.8A2.87,2.87,0,0,1,190,39.16c-1.21.53-2.44,1-3.65,1.55A5,5,0,0,0,183,46c.15,3.29,0,6.59,0,9.89a8.37,8.37,0,0,1-.19,1.92A3.5,3.5,0,0,1,179,60.6a3.57,3.57,0,0,1-3.32-3.23,13.77,13.77,0,0,1-.1-1.74q0-9.26,0-18.52c0-.39,0-.77.05-1.16a3.48,3.48,0,0,1,2.77-3.3,3.39,3.39,0,0,1,4,1.71C182.64,34.74,182.85,35.14,183.07,35.54Z" transform="translate(-18.5 -10.44)" style="fill: #fff"/>
    <path d="M93.53,10.44c6.88,0,11,4.93,12.54,9.16a3.64,3.64,0,0,1-2.24,4.72,3.82,3.82,0,0,1-4.94-2.18C97.47,18.49,94,17,90.79,18.69A6.07,6.07,0,0,0,88,22a3.8,3.8,0,0,1-5,2.26,3.71,3.71,0,0,1-2.1-4.88C82.56,15.14,86.65,10.34,93.53,10.44Z" transform="translate(-18.5 -10.44)" style="fill: #fff"/>
  </g>
</svg>
