<svg id="hj" xmlns="http://www.w3.org/2000/svg" viewBox="0 0 189.76 57.92">
  <title>hj</title>
  <g>
    <path d="M151,35.7h-.86q-15.1,0-30.2,0a3.17,3.17,0,0,1-1.53-.41q-8.55-5-17-10.14a1.41,1.41,0,0,0-1.7,0q-8.49,5.12-17,10.19a2.15,2.15,0,0,1-1,.33q-15.62,0-31.24,0l-.58-.05C61.2,22,75.51,13.75,93.08,11.92c23.41-2.44,42.65,5.87,58,23.46Zm-3.91-1.37.1-.27C134,20.24,118,13.08,98.84,13.54,81,14,66,21.13,53.87,34.21a2.86,2.86,0,0,0,1,.13c8.28,0,16.56,0,24.85-.08a4.17,4.17,0,0,0,2-.56q9.05-5.35,18.05-10.79a1.1,1.1,0,0,1,1.32,0q9.24,5.54,18.52,11a3,3,0,0,0,1.44.39q12.55,0,25.11,0Z" transform="translate(-6.91 -11.5)" style="fill: #fff"/>
    <path d="M114.46,40.82c-2.57-.63-4.88,1.49-6.19,3.65-1.66,2.74-1.14,5.83,1.42,8.69A3.18,3.18,0,0,1,106,52.1a5,5,0,0,1-.78-4.82,10.84,10.84,0,0,1,10.72-8.13c.77,0,1.53,0,2.44,0L113.79,53.9l2.94.33c.63-1.23,1.15-2.48,1.87-3.6A8.65,8.65,0,0,1,123.26,47c2.51-.82,4.69.5,4.75,3.12a12.9,12.9,0,0,1-5.61,11.33c-2.55,1.82-5.15.62-5.71-2.48a18.74,18.74,0,0,1-.09-3.08c0-.28,0-.56.09-1-1,0-2,.06-3,.17-.18,0-.38.38-.47.62-.61,1.67-1.15,3.37-1.8,5a14.34,14.34,0,0,1-6.71,7.9,6.37,6.37,0,0,1-3.73.82,3,3,0,0,1-2.73-3.6,12.06,12.06,0,0,1,4.19-7.8,14.77,14.77,0,0,1,7.36-3.73.9.9,0,0,0,.61-.46C111.79,49.5,113.11,45.2,114.46,40.82ZM109.9,55.69c-.3,0-.42,0-.53,0a2.56,2.56,0,0,0-.42.07c-4.75,1.28-7.54,4.56-9.13,9a3.87,3.87,0,0,0-.07,1.7,1.89,1.89,0,0,0,2.94,1.57,7.8,7.8,0,0,0,2-1.6C107.45,63.41,108.5,59.53,109.9,55.69Zm14.92-4.58a11,11,0,0,0-.25-1.61,1.2,1.2,0,0,0-2.06-.71,4.37,4.37,0,0,0-1.19,1.33,16.38,16.38,0,0,0-1.87,8.64,3.59,3.59,0,0,0,.16.85c.33,1.19,1.21,1.47,2.13.62a5.29,5.29,0,0,0,1.09-1.43A18.27,18.27,0,0,0,124.82,51.11Z" transform="translate(-6.91 -11.5)" style="fill: #fff"/>
    <path d="M33.5,40.91c-1.34,4.51-2.64,8.85-3.93,13.2-.47,1.57-.94,3.14-1.35,4.72a3.07,3.07,0,0,0,.1,1,4.43,4.43,0,0,0,1-.38,11.83,11.83,0,0,0,1.15-1l.61.73c-1.26,1-2.4,2-3.68,2.75s-2.11.16-2.18-1.24A9.32,9.32,0,0,1,25.47,58c.59-2.3,1.29-4.58,2-6.93H21.05l-1.43,4.66A14.5,14.5,0,0,1,14,63.95a10.75,10.75,0,0,1-3.44,1.47,2.8,2.8,0,0,1-3.63-3,11,11,0,0,1,2-6,14,14,0,0,1,8.89-6.34,1.19,1.19,0,0,0,.66-.73q1.14-3.57,2.2-7.16a1.05,1.05,0,0,1,1-.89c.76-.1,1.5-.28,2.42-.45l-2.72,9.23c2.1,0,4.1,0,6.09,0,.17,0,.41-.41.49-.67.76-2.38,1.52-4.76,2.22-7.15a1.08,1.08,0,0,1,1-.88C31.87,41.27,32.6,41.1,33.5,40.91ZM18.08,51.34l-.22-.16a8.8,8.8,0,0,0-1.19.38,15.44,15.44,0,0,0-6.49,5.22,10.37,10.37,0,0,0-2.1,5.64c0,1.59,1,2.36,2.41,1.75a7.3,7.3,0,0,0,2.69-1.9,14.46,14.46,0,0,0,2.29-3.71C16.46,56.22,17.22,53.76,18.08,51.34Z" transform="translate(-6.91 -11.5)" style="fill: #fff"/>
    <path d="M15.18,67c.48-1.65.48-1.65,2-1.65H95.48c-.21,1.48-.41,1.65-1.81,1.65H15.18Z" transform="translate(-6.91 -11.5)" style="fill: #fff"/>
    <path d="M49.39,57.53l2.53-5.74c.57-1.29,1.1-2.59,1.72-3.85a1.55,1.55,0,0,1,.85-.66c.7-.23,1.44-.36,2.3-.57l-.55,8.95.14,0c.59-1.2,1.16-2.41,1.77-3.6a16.62,16.62,0,0,1,3.68-5.16,12.57,12.57,0,0,1,2.49-1.46c.19-.1.49,0,.74.16-3.19,1.67-4.66,4.63-6,7.6-1.14,2.5-2,5.12-3,7.71-.2.55-.43.86-1,.91s-1.29.18-2,.28l.62-10.95c-.24.46-.38.69-.49.93-1.28,2.89-2.58,5.77-3.83,8.66-.26.61-.56,1-1.3,1a12.18,12.18,0,0,0-1.88.3c.11-2,.23-3.84.33-5.73.12-2.3.24-4.59.31-6.89.06-1.79-.26-2-2-1.42-.11,0-.22,0-.53.1.14-.31.18-.62.31-.67a13.85,13.85,0,0,1,3.11-1.1c1.39-.19,2.08.6,2,2-.08,2-.21,4-.33,6-.06,1-.12,2.06-.19,3.09Z" transform="translate(-6.91 -11.5)" style="fill: #fff"/>
    <path d="M188.77,65.3c-.3,1.54-.43,1.65-1.8,1.65H111.41c.17-1.43.41-1.65,1.71-1.65h75.65Z" transform="translate(-6.91 -11.5)" style="fill: #fff"/>
    <path d="M127.81,61.72l5.7-19.07h-2l-.15-.22c.18-.17.35-.45.55-.48,1.55-.25,3.11-.44,4.77-.67l-2.86,10,.13.06a15.81,15.81,0,0,1,1.58-1.88,24.16,24.16,0,0,1,3.12-2.38A1.86,1.86,0,0,1,141,47c.69.61.32,1.46.1,2.19-.93,3.08-1.9,6.15-2.8,9.23-.17.58-.77,1.38,0,1.79.42.24,1.2-.16,2-.3,0,.16,0,.57-.19.67a19.62,19.62,0,0,1-3.2,1.63c-1.29.45-1.94-.13-1.88-1.48a6.61,6.61,0,0,1,.29-1.6c.77-2.59,1.57-5.16,2.36-7.74a3.79,3.79,0,0,0,.23-.83,7.17,7.17,0,0,0-.08-1.06c-.4.08-.9,0-1.17.26a12.83,12.83,0,0,0-3.84,5.42c-.69,1.79-1.18,3.66-1.72,5.51a.88.88,0,0,1-.89.74C129.41,61.46,128.7,61.59,127.81,61.72Z" transform="translate(-6.91 -11.5)" style="fill: #fff"/>
    <path d="M96.14,59.25c-.05.36,0,.66-.13.77a20.63,20.63,0,0,1-2.52,2.06c-1.06.67-1.86.25-2-1a24.73,24.73,0,0,1,0-2.69,21.73,21.73,0,0,1-1.73,2A10,10,0,0,1,87.55,62a1.7,1.7,0,0,1-2.5-.9,5.76,5.76,0,0,1-.45-3.79,15.65,15.65,0,0,1,4.13-8.47A6.31,6.31,0,0,1,94,46.7c.22,0,.61-.14.66-.3.41-1.22.75-2.45,1.14-3.78h-2.2c.24-.34.35-.67.52-.69,1.61-.26,3.22-.46,4.91-.69l-2.33,8c-.87,3-1.78,6-2.61,9-.16.59-.31,1.58,0,1.82.62.5,1.12-.33,1.65-.68Zm-9-.5c0,1.49.48,1.82,1.49,1.29a2.65,2.65,0,0,0,1-.71,16.68,16.68,0,0,0,2-3.25c.89-2.29,1.57-4.67,2.28-7,.11-.35.06-1.05-.12-1.13a1.68,1.68,0,0,0-1.34,0A5.06,5.06,0,0,0,91,49.27a23.85,23.85,0,0,0-3.38,7.39C87.42,57.46,87.26,58.28,87.15,58.75Z" transform="translate(-6.91 -11.5)" style="fill: #fff"/>
    <path d="M183.44,51.55a34.85,34.85,0,0,1,3-3.21,8.44,8.44,0,0,1,2.91-1.57c1.27-.39,1.91.29,1.58,1.59-.48,1.92-1.1,3.8-1.67,5.7-.49,1.65-1,3.29-1.48,4.95a4.6,4.6,0,0,0,0,1.29c.4-.11.8-.2,1.19-.33a5.06,5.06,0,0,0,.75-.46c0,.45,0,.88-.11,1a20.64,20.64,0,0,1-3.48,1.78c-1.08.36-1.68-.29-1.6-1.45a6.34,6.34,0,0,1,.27-1.35c.81-2.72,1.65-5.44,2.47-8.16a1.27,1.27,0,0,0,.1-.33c0-.48,0-1,0-1.45a4.06,4.06,0,0,0-1.44.54,14.12,14.12,0,0,0-3.79,5.77c-.53,1.61-1,3.25-1.5,4.85a1.29,1.29,0,0,1-.8.68,22.59,22.59,0,0,1-2.37.37l4.16-13.47h-2l-.13-.29c.24-.17.46-.46.72-.5,1.5-.25,3-.44,4.64-.68Z" transform="translate(-6.91 -11.5)" style="fill: #fff"/>
    <path d="M141.78,61.73,146,48.25h-2l-.14-.28c.21-.17.41-.45.64-.49,1.52-.25,3.06-.45,4.7-.68l-1.44,4.82a31.67,31.67,0,0,1,2.69-3,9.77,9.77,0,0,1,2.9-1.77c1.55-.59,2.32.18,1.87,1.77-.87,3-1.83,6-2.75,9.06a17,17,0,0,0-.49,1.74,1.11,1.11,0,0,0,.16.84c.1.12.53,0,.78-.09a9.5,9.5,0,0,0,1.13-.65c0,.43,0,.82-.12.94a7.08,7.08,0,0,1-3.55,1.82c-1,.14-1.54-.31-1.51-1.34a5.3,5.3,0,0,1,.22-1.35c.82-2.75,1.66-5.49,2.49-8.24a4.82,4.82,0,0,0,.25-.91,4.72,4.72,0,0,0-.08-.91c-.35,0-.78,0-1,.16A6.68,6.68,0,0,0,149.32,51a15.17,15.17,0,0,0-3.26,6.09c-.29,1.23-.74,2.41-1.08,3.63a.83.83,0,0,1-.83.7C143.41,61.46,142.68,61.6,141.78,61.73Z" transform="translate(-6.91 -11.5)" style="fill: #fff"/>
    <path d="M74.07,47.3,71.18,57.63A7.57,7.57,0,0,0,70.86,59c0,.34,0,.84.19,1s.67,0,1,0a3.31,3.31,0,0,0,.65-.3c-.07.34,0,.62-.16.71a19.93,19.93,0,0,1-2.35,1.58c-.93.49-1.54.16-1.76-.88a6.62,6.62,0,0,1-.1-1.45c0-.45.08-.9.15-1.52a15.59,15.59,0,0,1-1.36,1.7,14.51,14.51,0,0,1-2.46,2c-1.22.72-2.18.32-2.79-1a6.86,6.86,0,0,1-.21-4.48,16,16,0,0,1,3.42-7C67.6,46.32,70.19,45.87,74.07,47.3ZM63.84,58.86l.23.08c-.05,1.06.5,1.43,1.46.94a2.75,2.75,0,0,0,1-.71,11.68,11.68,0,0,0,1.81-2.69c1-2.68,1.83-5.43,2.73-8.15.16-.49-.06-.7-.5-.8a1.85,1.85,0,0,0-2,.9,23.5,23.5,0,0,0-2.34,3.89C65.28,54.45,64.61,56.68,63.84,58.86Z" transform="translate(-6.91 -11.5)" style="fill: #fff"/>
    <path d="M43.87,51.56a14.61,14.61,0,0,1-4.7,9,7,7,0,0,1-1.65,1.08,3.23,3.23,0,0,1-4.71-1.84,7.79,7.79,0,0,1-.39-4.24,10.89,10.89,0,0,1,5.34-8.22l.38-.2C41.43,45.55,44,47.24,43.87,51.56Zm-3.18-.11a16.45,16.45,0,0,0-.34-2.2,1.14,1.14,0,0,0-1.94-.69,4.66,4.66,0,0,0-1.27,1.37,13.61,13.61,0,0,0-1.77,6,14.35,14.35,0,0,0,.11,3.59c.19,1.13,1.13,1.39,2,.62a5.74,5.74,0,0,0,1.24-1.63A19.14,19.14,0,0,0,40.69,51.45Z" transform="translate(-6.91 -11.5)" style="fill: #fff"/>
    <path d="M165.92,56.56a10.94,10.94,0,0,1,5.46-9.18A6.94,6.94,0,0,1,173,46.7a3.25,3.25,0,0,1,4.33,2.82,9.41,9.41,0,0,1-.14,3.24A13.92,13.92,0,0,1,173,60.38a8.43,8.43,0,0,1-2.65,1.53,2.86,2.86,0,0,1-3.45-1.24A7,7,0,0,1,165.92,56.56Zm8.4-5a18.07,18.07,0,0,0-.39-2.36,1.1,1.1,0,0,0-1.83-.67A4.92,4.92,0,0,0,170.72,50,13.63,13.63,0,0,0,169,56a14,14,0,0,0,.15,3.58c.19,1.05,1.08,1.31,1.88.6a6.27,6.27,0,0,0,1.39-1.83A19.76,19.76,0,0,0,174.32,51.55Z" transform="translate(-6.91 -11.5)" style="fill: #fff"/>
    <path d="M157.39,57.14a3.53,3.53,0,0,0,0,.88,9.79,9.79,0,0,0,.77,2.4,1.34,1.34,0,0,0,2.46-.2,3.92,3.92,0,0,0-.38-3.85c-.64-1.15-1.34-2.28-1.93-3.46a3.85,3.85,0,0,1-.41-3,5.13,5.13,0,0,1,.61-1.32,5.81,5.81,0,0,1,5.66-1.89,1.93,1.93,0,0,1,1.46,2.67c-.24.79-.49,1.57-.73,2.36l-.26,0c-.06-.24-.1-.49-.18-.73a11.59,11.59,0,0,0-.92-2.52,1.73,1.73,0,0,0-2.43-.54,1.65,1.65,0,0,0-.59,2.33c.56,1.19,1.29,2.3,1.86,3.49a21.77,21.77,0,0,1,1.45,3.48,3.22,3.22,0,0,1-2.18,4.26,9.23,9.23,0,0,1-2.85.53,3.38,3.38,0,0,1-3.21-2.32.84.84,0,0,1,0-.64c.46-.71,1-1.38,1.47-2.07Z" transform="translate(-6.91 -11.5)" style="fill: #fff"/>
    <path d="M74.08,62l4.55-14.06h-2c-.19-.74.28-.72.67-.78l4.48-.63-1.27,4.44.12,0c.63-.81,1.24-1.63,1.9-2.42a4.94,4.94,0,0,1,2.83-1.85c1.23-.25,1.71.29,1.32,1.47l-.65,2C84.87,49,83.86,48.93,82.64,50A13.25,13.25,0,0,0,79,55.88c-.58,1.71-1.15,3.43-1.77,5.12a1.21,1.21,0,0,1-.76.63C75.75,61.8,75,61.86,74.08,62Z" transform="translate(-6.91 -11.5)" style="fill: #fff"/>
    <path d="M95,35.58H93.27c-.45-1.83,1-4.57,3.08-6,2.4-1.65,5.79-1.61,7.56-.35A6.89,6.89,0,0,0,95,35.58Z" transform="translate(-6.91 -11.5)" style="fill: #fff"/>
    <path d="M101,35.64H96.26a11.36,11.36,0,0,1,.28-1.49.72.72,0,0,1,.56-.36c1.29,0,2.57,0,3.92,0Z" transform="translate(-6.91 -11.5)" style="fill: #fff"/>
    <path d="M107.23,35.63h-4.73V33.78c1.36,0,2.7,0,4,0,.18,0,.41.39.5.64A6.74,6.74,0,0,1,107.23,35.63Z" transform="translate(-6.91 -11.5)" style="fill: #fff"/>
    <path d="M101,30.38c0,.25,0,.5,0,.75s0,.79,0,1.23H97.6A4,4,0,0,1,101,30.38Z" transform="translate(-6.91 -11.5)" style="fill: #fff"/>
    <path d="M106,32.38h-3.5v-2A4.2,4.2,0,0,1,106,32.38Z" transform="translate(-6.91 -11.5)" style="fill: #fff"/>
    <path d="M196.67,45.11a2.62,2.62,0,0,1-2.52,2.45A1.61,1.61,0,0,1,192.44,46a2.54,2.54,0,0,1,2.43-2.42A1.56,1.56,0,0,1,196.67,45.11Zm-.43.12A1.21,1.21,0,0,0,195,43.92a2.07,2.07,0,0,0-2.1,2,1.27,1.27,0,0,0,1.37,1.33A2.14,2.14,0,0,0,196.24,45.23Z" transform="translate(-6.91 -11.5)" style="fill: #fff"/>
    <path d="M196.24,45.23a2.14,2.14,0,0,1-2,2,1.27,1.27,0,0,1-1.37-1.33,2.07,2.07,0,0,1,2.1-2A1.21,1.21,0,0,1,196.24,45.23Zm-1.3.52c.12-.08.29-.13.35-.24s.35-.61.26-.73a1.1,1.1,0,0,0-.77-.34c-.26,0-.72.09-.78.26a15.74,15.74,0,0,0-.44,1.94l.21.06.52-1.16.75,1.19.16-.09Z" transform="translate(-6.91 -11.5)"/>
    <path d="M132.69,25.14c-4.47,2.16-8.68,4.19-12.89,6.21a2.72,2.72,0,0,1-.79.12l-.09-.23,7.52-9.59Z" transform="translate(-6.91 -11.5)" style="fill: #fff"/>
    <path d="M68.46,25l6-3.33,7.66,9.75-.14.26a15.43,15.43,0,0,1-2.57-1.19c-.91-.42-1.8-.89-2.7-1.34L74,27.77l-2.69-1.34Z" transform="translate(-6.91 -11.5)" style="fill: #fff"/>
    <path d="M74.92,21.43,81,19,86.11,29l-1,.62Z" transform="translate(-6.91 -11.5)" style="fill: #fff"/>
    <path d="M114.9,28.86,120.07,19l5.89,2.4-3.52,2.82c-1.95,1.56-3.92,3.09-5.82,4.71C116,29.53,115.51,29.47,114.9,28.86Z" transform="translate(-6.91 -11.5)" style="fill: #fff"/>
    <path d="M110.73,26.47l2.55-9.37,6.36,1.77-2.41,2.74c-1.44,1.64-2.92,3.25-4.3,4.93-.59.72-1.08.8-1.74.2A2.91,2.91,0,0,0,110.73,26.47Z" transform="translate(-6.91 -11.5)" style="fill: #fff"/>
    <path d="M68,25.28l8.64,7.14-.08.29c-1-.16-2-.26-3-.5-3.64-.9-7.28-1.85-11.12-2.84Z" transform="translate(-6.91 -11.5)" style="fill: #fff"/>
    <path d="M133.11,25.43l5.46,4c-.46.14-.72.24-1,.3-3.32.83-6.66,1.57-9.94,2.52a7.17,7.17,0,0,1-3.32.17Z" transform="translate(-6.91 -11.5)" style="fill: #fff"/>
    <path d="M87.61,17.11l2.57,9.49-1.33.83-7.32-8.63Z" transform="translate(-6.91 -11.5)" style="fill: #fff"/>
    <path d="M88.1,17l6-1c.11,1.37.23,2.61.32,3.85.08,1.06.11,2.12.24,3.18A1,1,0,0,1,94,24.31a13.73,13.73,0,0,0-1.36.8Z" transform="translate(-6.91 -11.5)" style="fill: #fff"/>
    <path d="M106.77,16.05l6,.95-4.51,8c-.59-.35-1.19-.67-1.76-1a.72.72,0,0,1-.29-.54C106.39,21,106.58,18.63,106.77,16.05Z" transform="translate(-6.91 -11.5)" style="fill: #fff"/>
    <path d="M97,22.47,94.66,16l5.52-.25c-.2,1.77-.37,3.39-.57,5,0,.15-.22.31-.37.41C98.54,21.59,97.82,22,97,22.47Z" transform="translate(-6.91 -11.5)" style="fill: #fff"/>
    <path d="M103.91,22.26A3.46,3.46,0,0,1,101,18.32a16.5,16.5,0,0,0-.25-2.41h5.5Z" transform="translate(-6.91 -11.5)" style="fill: #fff"/>
    <path d="M62.06,29.7l5.61,2.8H59Z" transform="translate(-6.91 -11.5)" style="fill: #fff"/>
    <path d="M138.9,29.75,142,32.52h-8.47l-.05-.11Z" transform="translate(-6.91 -11.5)" style="fill: #fff"/>
    <path d="M194.94,45.76l.27.87-.16.09-.75-1.19-.52,1.16-.21-.06A15.74,15.74,0,0,1,194,44.7c.06-.16.51-.27.78-.26a1.1,1.1,0,0,1,.77.34c.09.12-.13.49-.26.73S195.06,45.67,194.94,45.76Z" transform="translate(-6.91 -11.5)" style="fill: #fff"/>
  </g>
</svg>
