<?xml version="1.0" encoding="utf-8"?>
<!-- Generator: Adobe Illustrator 21.1.0, SVG Export Plug-In . SVG Version: 6.00 Build 0)  -->
<svg version="1.1" xmlns="http://www.w3.org/2000/svg" xmlns:xlink="http://www.w3.org/1999/xlink" x="0px" y="0px"
	 viewBox="0 0 203 77" style="enable-background:new 0 0 203 77;" xml:space="preserve">
<style type="text/css">
	.st0{display:none;}
	.st1{display:inline;}
	.st2{fill:#FFFFFF;}
	.st3{fill:#010203;}
	.st4{fill:#090D16;}
	.st5{display:inline;fill:#FFFFFF;}
	.st6{font-family:'MinionPro-Regular';}
	.st7{font-size:12px;}
	.st8{letter-spacing:1;}
</style>
<g id="bg" class="st0">
	<rect class="st1" width="203" height="77"/>
</g>
<g id="hj" class="st0">
	<g class="st1">
		<path class="st2" d="M151,35.7c-0.3,0-0.6,0-0.9,0c-10.1,0-20.1,0-30.2,0c-0.5,0-1.1-0.1-1.5-0.4c-5.7-3.4-11.4-6.7-17-10.1
			c-0.6-0.4-1.1-0.4-1.7,0c-5.7,3.4-11.3,6.8-17,10.2c-0.3,0.2-0.7,0.3-1,0.3c-10.4,0-20.8,0-31.2,0c-0.1,0-0.2,0-0.6-0.1
			C61.2,22,75.5,13.8,93.1,11.9c23.4-2.4,42.6,5.9,58,23.5C151,35.5,151,35.6,151,35.7z M147.1,34.3c0-0.1,0.1-0.2,0.1-0.3
			C134,20.2,118,13.1,98.8,13.5C81,14,66,21.1,53.9,34.2c0.4,0.1,0.7,0.1,1,0.1c8.3,0,16.6,0,24.8-0.1c0.7,0,1.4-0.2,2-0.6
			c6-3.6,12-7.2,18.1-10.8c0.5-0.3,0.8-0.3,1.3,0c6.2,3.7,12.3,7.4,18.5,11c0.4,0.2,1,0.4,1.4,0.4c8.4,0,16.7,0,25.1,0
			C146.5,34.3,146.8,34.3,147.1,34.3z"/>
		<path class="st2" d="M114.5,40.8c-2.6-0.6-4.9,1.5-6.2,3.7c-1.7,2.7-1.1,5.8,1.4,8.7c-1.2,0.6-2.7,0.1-3.7-1.1
			c-1.2-1.4-1.2-3.1-0.8-4.8c1.3-4.9,5.5-8.1,10.7-8.1c0.8,0,1.5,0,2.4,0c-1.6,5.1-3,9.9-4.5,14.7c1.1,0.1,2.1,0.2,2.9,0.3
			c0.6-1.2,1.1-2.5,1.9-3.6c1.1-1.7,2.7-3,4.7-3.7c2.5-0.8,4.7,0.5,4.8,3.1c0.1,4.7-1.8,8.6-5.6,11.3c-2.6,1.8-5.1,0.6-5.7-2.5
			c-0.2-1-0.1-2.1-0.1-3.1c0-0.3,0-0.6,0.1-1c-1,0-2,0.1-3,0.2c-0.2,0-0.4,0.4-0.5,0.6c-0.6,1.7-1.2,3.4-1.8,5
			c-1.3,3.4-3.4,6.2-6.7,7.9c-1.2,0.6-2.4,1-3.7,0.8c-1.9-0.2-2.9-1.6-2.7-3.6c0.3-3.2,1.9-5.7,4.2-7.8c2.1-1.9,4.5-3.2,7.4-3.7
			c0.2,0,0.5-0.3,0.6-0.5C111.8,49.5,113.1,45.2,114.5,40.8z M109.9,55.7c-0.3,0-0.4,0-0.5,0c-0.1,0-0.3,0-0.4,0.1
			c-4.7,1.3-7.5,4.6-9.1,9c-0.2,0.5-0.1,1.1-0.1,1.7c0.2,1.6,1.5,2.3,2.9,1.6c0.7-0.4,1.4-1,2-1.6C107.5,63.4,108.5,59.5,109.9,55.7
			z M124.8,51.1c-0.1-0.4-0.1-1-0.3-1.6c-0.3-1.1-1.1-1.4-2.1-0.7c-0.5,0.3-0.9,0.8-1.2,1.3c-1.5,2.7-2,5.6-1.9,8.6
			c0,0.3,0.1,0.6,0.2,0.8c0.3,1.2,1.2,1.5,2.1,0.6c0.4-0.4,0.8-0.9,1.1-1.4C124,56.5,124.7,54,124.8,51.1z"/>
		<path class="st2" d="M33.5,40.9c-1.3,4.5-2.6,8.9-3.9,13.2c-0.5,1.6-0.9,3.1-1.4,4.7c-0.1,0.3,0.1,0.7,0.1,1
			c0.3-0.1,0.7-0.2,1-0.4c0.4-0.3,0.7-0.6,1.1-1c0.2,0.2,0.3,0.4,0.6,0.7c-1.3,1-2.4,2-3.7,2.7c-1.2,0.7-2.1,0.2-2.2-1.2
			c0-0.9,0-1.8,0.3-2.7c0.6-2.3,1.3-4.6,2-6.9c-2.2,0-4.2,0-6.4,0c-0.5,1.5-0.9,3.1-1.4,4.7c-1,3.3-2.7,6.2-5.6,8.2
			c-1,0.7-2.2,1.2-3.4,1.5c-2.1,0.5-3.6-0.8-3.6-3c0-2.2,0.8-4.2,2-6c2.1-3.3,5-5.5,8.9-6.3c0.3-0.1,0.6-0.4,0.7-0.7
			c0.8-2.4,1.5-4.8,2.2-7.2c0.2-0.5,0.4-0.8,1-0.9c0.8-0.1,1.5-0.3,2.4-0.5c-0.9,3.1-1.8,6.1-2.7,9.2c2.1,0,4.1,0,6.1,0
			c0.2,0,0.4-0.4,0.5-0.7c0.8-2.4,1.5-4.8,2.2-7.2c0.2-0.6,0.4-0.8,1-0.9C31.9,41.3,32.6,41.1,33.5,40.9z M18.1,51.3
			c-0.1-0.1-0.1-0.1-0.2-0.2c-0.4,0.1-0.8,0.2-1.2,0.4c-2.6,1.2-4.9,2.8-6.5,5.2c-1.1,1.7-2.1,3.5-2.1,5.6c0,1.6,1,2.4,2.4,1.8
			c1-0.4,2-1.1,2.7-1.9c0.9-1.1,1.7-2.4,2.3-3.7C16.5,56.2,17.2,53.8,18.1,51.3z"/>
		<path class="st2" d="M15.2,67c0.5-1.7,0.5-1.7,2-1.7c25.7,0,51.5,0,77.2,0c0.4,0,0.7,0,1.1,0c-0.2,1.5-0.4,1.7-1.8,1.7
			c-25.8,0-51.5,0-77.3,0C16,67,15.6,67,15.2,67z"/>
		<path class="st2" d="M49.4,57.5c0.8-1.9,1.7-3.8,2.5-5.7c0.6-1.3,1.1-2.6,1.7-3.9c0.1-0.3,0.5-0.6,0.9-0.7
			c0.7-0.2,1.4-0.4,2.3-0.6c-0.2,3-0.4,6-0.6,8.9c0,0,0.1,0,0.1,0c0.6-1.2,1.2-2.4,1.8-3.6c1-1.9,2-3.8,3.7-5.2
			c0.7-0.6,1.6-1,2.5-1.5c0.2-0.1,0.5,0,0.7,0.2c-3.2,1.7-4.7,4.6-6,7.6c-1.1,2.5-2,5.1-3,7.7c-0.2,0.5-0.4,0.9-1,0.9
			c-0.6,0-1.3,0.2-2,0.3c0.2-3.6,0.4-7.2,0.6-10.9c-0.2,0.5-0.4,0.7-0.5,0.9c-1.3,2.9-2.6,5.8-3.8,8.7c-0.3,0.6-0.6,1-1.3,1
			c-0.6,0-1.2,0.2-1.9,0.3c0.1-2,0.2-3.8,0.3-5.7c0.1-2.3,0.2-4.6,0.3-6.9c0.1-1.8-0.3-2-2-1.4c-0.1,0-0.2,0-0.5,0.1
			c0.1-0.3,0.2-0.6,0.3-0.7c1-0.4,2-1,3.1-1.1c1.4-0.2,2.1,0.6,2,2c-0.1,2-0.2,4-0.3,6c-0.1,1-0.1,2.1-0.2,3.1
			C49.3,57.5,49.3,57.5,49.4,57.5z"/>
		<path class="st2" d="M188.8,65.3c-0.3,1.5-0.4,1.7-1.8,1.7c-24.8,0-49.6,0-74.4,0c-0.4,0-0.7,0-1.1,0c0.2-1.4,0.4-1.7,1.7-1.7
			c24.8,0,49.7,0,74.5,0C188,65.3,188.4,65.3,188.8,65.3z"/>
		<path class="st2" d="M127.8,61.7c1.9-6.4,3.8-12.7,5.7-19.1c-0.7,0-1.3,0-2,0c0-0.1-0.1-0.1-0.1-0.2c0.2-0.2,0.3-0.4,0.6-0.5
			c1.6-0.2,3.1-0.4,4.8-0.7c-1,3.3-1.9,6.7-2.9,10c0,0,0.1,0,0.1,0.1c0.5-0.6,1-1.3,1.6-1.9c1-0.9,2-1.7,3.1-2.4
			c0.7-0.4,1.6-0.7,2.3-0.1c0.7,0.6,0.3,1.5,0.1,2.2c-0.9,3.1-1.9,6.1-2.8,9.2c-0.2,0.6-0.8,1.4,0,1.8c0.4,0.2,1.2-0.2,2-0.3
			c0,0.2,0,0.6-0.2,0.7c-1,0.6-2.1,1.2-3.2,1.6c-1.3,0.4-1.9-0.1-1.9-1.5c0-0.5,0.1-1.1,0.3-1.6c0.8-2.6,1.6-5.2,2.4-7.7
			c0.1-0.3,0.2-0.5,0.2-0.8c0-0.3,0-0.7-0.1-1.1c-0.4,0.1-0.9,0-1.2,0.3c-1.8,1.4-3,3.3-3.8,5.4c-0.7,1.8-1.2,3.7-1.7,5.5
			c-0.1,0.5-0.4,0.7-0.9,0.7C129.4,61.5,128.7,61.6,127.8,61.7z"/>
		<path class="st2" d="M96.1,59.3c-0.1,0.4,0,0.7-0.1,0.8c-0.8,0.7-1.6,1.5-2.5,2.1c-1.1,0.7-1.9,0.2-2-1c-0.1-0.9,0-1.8,0-2.7
			c-0.5,0.6-1.1,1.4-1.7,2c-0.7,0.6-1.4,1.2-2.2,1.6c-1.1,0.6-1.9,0.2-2.5-0.9c-0.7-1.2-0.6-2.5-0.5-3.8c0.5-3.2,1.9-6.1,4.1-8.5
			c1.4-1.5,3.2-2.3,5.3-2.2c0.2,0,0.6-0.1,0.7-0.3c0.4-1.2,0.7-2.5,1.1-3.8c-0.7,0-1.3,0-2.2,0c0.2-0.3,0.4-0.7,0.5-0.7
			c1.6-0.3,3.2-0.5,4.9-0.7c-0.8,2.7-1.6,5.4-2.3,8c-0.9,3-1.8,6-2.6,9c-0.2,0.6-0.3,1.6,0,1.8c0.6,0.5,1.1-0.3,1.6-0.7
			C95.8,59.4,95.9,59.4,96.1,59.3z M87.1,58.7c0,1.5,0.5,1.8,1.5,1.3c0.3-0.2,0.7-0.4,1-0.7c0.7-1.1,1.6-2.1,2-3.3
			c0.9-2.3,1.6-4.7,2.3-7c0.1-0.4,0.1-1.1-0.1-1.1c-0.4-0.2-1-0.2-1.3,0c-0.5,0.3-1,0.8-1.4,1.3c-1.7,2.2-2.6,4.8-3.4,7.4
			C87.4,57.5,87.3,58.3,87.1,58.7z"/>
		<path class="st2" d="M183.4,51.6c1-1.1,1.9-2.3,3-3.2c0.8-0.7,1.9-1.3,2.9-1.6c1.3-0.4,1.9,0.3,1.6,1.6c-0.5,1.9-1.1,3.8-1.7,5.7
			c-0.5,1.6-1,3.3-1.5,4.9c-0.1,0.4,0,0.9,0,1.3c0.4-0.1,0.8-0.2,1.2-0.3c0.2-0.1,0.3-0.2,0.7-0.5c0,0.5,0,0.9-0.1,1
			c-1.1,0.6-2.3,1.4-3.5,1.8c-1.1,0.4-1.7-0.3-1.6-1.5c0-0.5,0.1-0.9,0.3-1.3c0.8-2.7,1.6-5.4,2.5-8.2c0-0.1,0.1-0.2,0.1-0.3
			c0-0.5,0-1,0-1.4c-0.5,0.2-1.1,0.2-1.4,0.5c-1.7,1.6-3,3.5-3.8,5.8c-0.5,1.6-1,3.2-1.5,4.9c-0.1,0.3-0.5,0.6-0.8,0.7
			c-0.7,0.2-1.5,0.2-2.4,0.4c1.4-4.5,2.8-8.9,4.2-13.5c-0.7,0-1.3,0-2,0c0-0.1-0.1-0.2-0.1-0.3c0.2-0.2,0.5-0.5,0.7-0.5
			c1.5-0.3,3-0.4,4.6-0.7C184.4,48.4,183.9,49.9,183.4,51.6z"/>
		<path class="st2" d="M141.8,61.7c1.4-4.6,2.8-9,4.2-13.5c-0.7,0-1.3,0-2,0c0-0.1-0.1-0.2-0.1-0.3c0.2-0.2,0.4-0.5,0.6-0.5
			c1.5-0.3,3.1-0.5,4.7-0.7c-0.5,1.6-0.9,3.2-1.4,4.8c0.9-1,1.7-2.1,2.7-3c0.8-0.7,1.9-1.4,2.9-1.8c1.5-0.6,2.3,0.2,1.9,1.8
			c-0.9,3-1.8,6-2.7,9.1c-0.2,0.6-0.4,1.1-0.5,1.7c-0.1,0.3,0,0.7,0.2,0.8c0.1,0.1,0.5,0,0.8-0.1c0.3-0.1,0.6-0.3,1.1-0.7
			c0,0.4,0,0.8-0.1,0.9c-1,0.9-2.2,1.6-3.6,1.8c-1,0.1-1.5-0.3-1.5-1.3c0-0.5,0.1-0.9,0.2-1.4c0.8-2.8,1.7-5.5,2.5-8.2
			c0.1-0.3,0.2-0.6,0.2-0.9c0-0.3,0-0.6-0.1-0.9c-0.4,0-0.8,0-1,0.2c-0.5,0.4-1,0.8-1.4,1.3c-1.5,1.8-2.7,3.8-3.3,6.1
			c-0.3,1.2-0.7,2.4-1.1,3.6c-0.1,0.5-0.4,0.7-0.8,0.7C143.4,61.5,142.7,61.6,141.8,61.7z"/>
		<path class="st2" d="M74.1,47.3c-1,3.5-1.9,6.9-2.9,10.3c-0.1,0.4-0.3,0.9-0.3,1.3c0,0.3,0,0.8,0.2,1c0.2,0.2,0.7,0,1,0
			c0.2,0,0.3-0.1,0.7-0.3c-0.1,0.3,0,0.6-0.2,0.7c-0.8,0.6-1.5,1.1-2.4,1.6c-0.9,0.5-1.5,0.2-1.8-0.9c-0.1-0.5-0.1-1-0.1-1.5
			c0-0.5,0.1-0.9,0.1-1.5c-0.5,0.7-0.9,1.2-1.4,1.7c-0.8,0.7-1.6,1.5-2.5,2c-1.2,0.7-2.2,0.3-2.8-1c-0.7-1.5-0.5-3-0.2-4.5
			c0.6-2.6,1.7-4.9,3.4-7C67.6,46.3,70.2,45.9,74.1,47.3z M63.8,58.9c0.1,0,0.2,0.1,0.2,0.1c-0.1,1.1,0.5,1.4,1.5,0.9
			c0.4-0.2,0.7-0.4,1-0.7c0.7-0.9,1.4-1.7,1.8-2.7c1-2.7,1.8-5.4,2.7-8.1c0.2-0.5-0.1-0.7-0.5-0.8c-0.9-0.2-1.6,0.3-2,0.9
			c-0.9,1.2-1.7,2.5-2.3,3.9C65.3,54.5,64.6,56.7,63.8,58.9z"/>
		<path class="st2" d="M43.9,51.6c-0.4,3.1-1.8,6.4-4.7,9c-0.5,0.4-1.1,0.8-1.7,1.1c-2,1-3.9,0.2-4.7-1.8c-0.6-1.4-0.6-2.8-0.4-4.2
			c0.6-3.5,2.2-6.4,5.3-8.2c0.1-0.1,0.2-0.1,0.4-0.2C41.4,45.6,44,47.2,43.9,51.6z M40.7,51.5c-0.1-0.7-0.1-1.5-0.3-2.2
			c-0.3-1-1.1-1.3-1.9-0.7c-0.5,0.4-1,0.8-1.3,1.4c-1.1,1.8-1.6,3.9-1.8,6c-0.1,1.2-0.1,2.4,0.1,3.6c0.2,1.1,1.1,1.4,2,0.6
			c0.5-0.5,0.9-1,1.2-1.6C39.8,56.3,40.5,53.9,40.7,51.5z"/>
		<path class="st2" d="M165.9,56.6c0.3-3.7,1.8-7,5.5-9.2c0.5-0.3,1.1-0.5,1.7-0.7c2.2-0.6,4,0.6,4.3,2.8c0.1,1.1,0.1,2.2-0.1,3.2
			c-0.7,2.9-2,5.6-4.3,7.6c-0.8,0.7-1.7,1.2-2.7,1.5c-1.4,0.5-2.6,0-3.4-1.2C166.2,59.8,165.9,58.4,165.9,56.6z M174.3,51.6
			c-0.1-0.8-0.2-1.6-0.4-2.4c-0.3-0.9-1-1.2-1.8-0.7c-0.5,0.4-1,0.9-1.4,1.5c-1.1,1.8-1.6,3.9-1.7,6c-0.1,1.2-0.1,2.4,0.1,3.6
			c0.2,1.1,1.1,1.3,1.9,0.6c0.6-0.5,1-1.2,1.4-1.8C173.5,56.2,174.1,54,174.3,51.6z"/>
		<path class="st2" d="M157.4,57.1c0,0.3-0.1,0.6,0,0.9c0.2,0.8,0.4,1.7,0.8,2.4c0.6,1.1,1.9,0.9,2.5-0.2c0.7-1.4,0.3-2.6-0.4-3.9
			c-0.6-1.2-1.3-2.3-1.9-3.5c-0.5-0.9-0.8-1.9-0.4-3c0.2-0.5,0.3-0.9,0.6-1.3c1.1-1.5,3.9-2.4,5.7-1.9c1.4,0.4,1.9,1.3,1.5,2.7
			c-0.2,0.8-0.5,1.6-0.7,2.4c-0.1,0-0.2,0-0.3,0c-0.1-0.2-0.1-0.5-0.2-0.7c-0.3-0.9-0.4-1.8-0.9-2.5c-0.6-0.9-1.6-1-2.4-0.5
			c-0.8,0.5-1.1,1.3-0.6,2.3c0.6,1.2,1.3,2.3,1.9,3.5c0.5,1.1,1.1,2.3,1.5,3.5c0.6,2-0.2,3.5-2.2,4.3c-0.9,0.3-1.9,0.5-2.8,0.5
			c-1.4,0-2.7-1-3.2-2.3c-0.1-0.2-0.1-0.5,0-0.6c0.5-0.7,1-1.4,1.5-2.1C157.2,57.1,157.3,57.1,157.4,57.1z"/>
		<path class="st2" d="M74.1,62c1.5-4.7,3-9.3,4.6-14.1c-0.7,0-1.4,0-2,0c-0.2-0.7,0.3-0.7,0.7-0.8c1.4-0.2,2.9-0.4,4.5-0.6
			c-0.4,1.5-0.8,3-1.3,4.4c0,0,0.1,0,0.1,0c0.6-0.8,1.2-1.6,1.9-2.4c0.7-0.9,1.6-1.6,2.8-1.8c1.2-0.2,1.7,0.3,1.3,1.5
			c-0.2,0.6-0.4,1.3-0.7,2c-1.2-1.2-2.2-1.2-3.4-0.1c-1.8,1.6-2.9,3.6-3.6,5.9c-0.6,1.7-1.1,3.4-1.8,5.1c-0.1,0.3-0.5,0.6-0.8,0.6
			C75.7,61.8,75,61.9,74.1,62z"/>
		<path class="st2" d="M95,35.6c-0.6,0-1.2,0-1.8,0c-0.4-1.8,1-4.6,3.1-6c2.4-1.6,5.8-1.6,7.6-0.3C99,28,95.3,31.3,95,35.6z"/>
		<path class="st2" d="M101,35.6c-1.6,0-3.1,0-4.8,0c0.1-0.5,0.1-1,0.3-1.5c0.1-0.2,0.4-0.4,0.6-0.4c1.3,0,2.6,0,3.9,0
			C101,34.4,101,35,101,35.6z"/>
		<path class="st2" d="M107.2,35.6c-1.6,0-3.2,0-4.7,0c0-0.6,0-1.2,0-1.9c1.4,0,2.7,0,4,0c0.2,0,0.4,0.4,0.5,0.6
			C107.2,34.8,107.2,35.2,107.2,35.6z"/>
		<path class="st2" d="M101,30.4c0,0.2,0,0.5,0,0.7c0,0.4,0,0.8,0,1.2c-1.2,0-2.4,0-3.5,0C98.1,31.3,99.6,30.4,101,30.4z"/>
		<path class="st2" d="M106,32.4c-1.2,0-2.3,0-3.5,0c0-0.7,0-1.3,0-2C103.7,30.3,105.1,31.1,106,32.4z"/>
		<path class="st2" d="M196.7,45.1c0,1.2-1.2,2.4-2.5,2.5c-1,0-1.7-0.7-1.7-1.6c0-1.2,1.1-2.4,2.4-2.4
			C195.9,43.6,196.6,44.2,196.7,45.1z M196.2,45.2c0-0.8-0.5-1.3-1.3-1.3c-1.1,0-2.1,0.9-2.1,2c0,0.8,0.5,1.3,1.4,1.3
			C195.3,47.2,196.2,46.3,196.2,45.2z"/>
		<path d="M196.2,45.2c0,1-1,2-2,2c-0.8,0-1.4-0.5-1.4-1.3c0-1.1,1-2,2.1-2C195.8,43.9,196.2,44.4,196.2,45.2z M194.9,45.8
			c0.1-0.1,0.3-0.1,0.4-0.2c0.1-0.2,0.3-0.6,0.3-0.7c-0.1-0.2-0.5-0.3-0.8-0.3c-0.3,0-0.7,0.1-0.8,0.3c-0.2,0.6-0.3,1.3-0.4,1.9
			c0.1,0,0.1,0,0.2,0.1c0.2-0.3,0.3-0.7,0.5-1.2c0.3,0.5,0.5,0.8,0.7,1.2c0.1,0,0.1-0.1,0.2-0.1C195.1,46.4,195,46.1,194.9,45.8z"/>
		<path class="st2" d="M132.7,25.1c-4.5,2.2-8.7,4.2-12.9,6.2c-0.2,0.1-0.5,0.1-0.8,0.1c0-0.1-0.1-0.2-0.1-0.2
			c2.5-3.2,5-6.3,7.5-9.6C128.5,22.8,130.5,23.9,132.7,25.1z"/>
		<path class="st2" d="M68.5,25c2.1-1.1,4-2.2,6-3.3c2.6,3.3,5.1,6.5,7.7,9.7c0,0.1-0.1,0.2-0.1,0.3c-0.9-0.2-1.7-0.8-2.6-1.2
			c-0.9-0.4-1.8-0.9-2.7-1.3c-0.9-0.5-1.8-0.9-2.7-1.4c-0.9-0.5-1.8-0.9-2.7-1.3C70.4,26,69.5,25.5,68.5,25z"/>
		<path class="st2" d="M74.9,21.4c2.2-0.9,4.1-1.7,6.1-2.5c1.7,3.4,3.4,6.7,5.1,10.1c-0.3,0.2-0.6,0.4-1,0.6
			C81.8,26.9,78.4,24.2,74.9,21.4z"/>
		<path class="st2" d="M114.9,28.9c1.7-3.3,3.4-6.5,5.2-9.8c1.9,0.8,3.8,1.6,5.9,2.4c-1.3,1-2.4,1.9-3.5,2.8
			c-1.9,1.6-3.9,3.1-5.8,4.7C116,29.5,115.5,29.5,114.9,28.9z"/>
		<path class="st2" d="M110.7,26.5c0.8-3.1,1.7-6.2,2.5-9.4c2.1,0.6,4.1,1.1,6.4,1.8c-0.9,1-1.6,1.9-2.4,2.7
			c-1.4,1.6-2.9,3.2-4.3,4.9c-0.6,0.7-1.1,0.8-1.7,0.2C111.1,26.6,110.9,26.6,110.7,26.5z"/>
		<path class="st2" d="M68,25.3c3,2.4,5.8,4.8,8.6,7.1c0,0.1-0.1,0.2-0.1,0.3c-1-0.2-2-0.3-3-0.5c-3.6-0.9-7.3-1.9-11.1-2.8
			C64.3,28,66.2,26.6,68,25.3z"/>
		<path class="st2" d="M133.1,25.4c1.7,1.3,3.5,2.6,5.5,4c-0.5,0.1-0.7,0.2-1,0.3c-3.3,0.8-6.7,1.6-9.9,2.5
			c-1.1,0.3-2.1,0.4-3.3,0.2C127.2,30.1,130.1,27.8,133.1,25.4z"/>
		<path class="st2" d="M87.6,17.1c0.9,3.2,1.7,6.3,2.6,9.5c-0.4,0.3-0.9,0.6-1.3,0.8c-2.4-2.9-4.8-5.7-7.3-8.6
			C83.6,18.2,85.6,17.7,87.6,17.1z"/>
		<path class="st2" d="M88.1,17c2-0.3,3.9-0.6,6-1c0.1,1.4,0.2,2.6,0.3,3.9c0.1,1.1,0.1,2.1,0.2,3.2c0.1,0.6-0.1,1-0.6,1.2
			c-0.4,0.2-0.8,0.5-1.4,0.8C91.2,22.4,89.7,19.8,88.1,17z"/>
		<path class="st2" d="M106.8,16.1c2.1,0.3,4,0.6,6,0.9c-1.5,2.7-3,5.3-4.5,8c-0.6-0.3-1.2-0.7-1.8-1c-0.2-0.1-0.3-0.4-0.3-0.5
			C106.4,21,106.6,18.6,106.8,16.1z"/>
		<path class="st2" d="M97,22.5c-0.8-2.2-1.6-4.3-2.4-6.5c1.9-0.1,3.6-0.2,5.5-0.2c-0.2,1.8-0.4,3.4-0.6,5c0,0.2-0.2,0.3-0.4,0.4
			C98.5,21.6,97.8,22,97,22.5z"/>
		<path class="st2" d="M103.9,22.3c-2.2-0.5-3-1.9-2.9-3.9c0-0.8-0.2-1.6-0.2-2.4c1.8,0,3.6,0,5.5,0
			C105.4,18.2,104.6,20.3,103.9,22.3z"/>
		<path class="st2" d="M62.1,29.7c1.9,0.9,3.6,1.8,5.6,2.8c-3,0-5.7,0-8.7,0C60.1,31.5,61.1,30.6,62.1,29.7z"/>
		<path class="st2" d="M138.9,29.8c1,0.9,2,1.8,3.1,2.8c-2.9,0-5.7,0-8.5,0c0,0,0-0.1-0.1-0.1C135.3,31.5,137.1,30.6,138.9,29.8z"/>
		<path class="st2" d="M194.9,45.8c0.1,0.4,0.2,0.6,0.3,0.9c-0.1,0-0.1,0.1-0.2,0.1c-0.2-0.3-0.4-0.7-0.7-1.2
			c-0.2,0.5-0.4,0.8-0.5,1.2c-0.1,0-0.1,0-0.2-0.1c0.1-0.6,0.2-1.3,0.4-1.9c0.1-0.2,0.5-0.3,0.8-0.3c0.3,0,0.6,0.1,0.8,0.3
			c0.1,0.1-0.1,0.5-0.3,0.7C195.2,45.6,195.1,45.7,194.9,45.8z"/>
	</g>
</g>
<g id="doppler" class="st0">
	<g class="st1">
		<path class="st2" d="M18.5,42.2c0-4.7,0-9.4,0-14.2c0-2.3,0.9-3.7,2.7-4.2c0.3-0.1,0.6-0.1,1-0.1c3.5,0,7-0.1,10.5,0
			c9.1,0.3,15.4,6.2,16.6,15.2c0.5,4.3,0.3,8.5-1.6,12.5c-2.8,5.7-7.6,8.6-13.8,9.1c-3.8,0.3-7.6,0.2-11.3,0.1c-2.6,0-4-1.5-4-4.1
			C18.5,51.8,18.5,47,18.5,42.2z M26.4,53c2.5,0,4.9,0.2,7.3-0.1c3.3-0.4,5.7-2.4,6.8-5.6c1.2-3.5,1.2-7,0-10.4
			c-0.7-2.1-2.2-3.7-4.2-4.7c-3.2-1.5-6.5-0.9-9.8-1C26.4,38.6,26.4,45.8,26.4,53z"/>
		<path class="st2" d="M87.7,35.4c3.3-4.3,11.1-4.3,15.2,0.4c4.6,5.2,5.7,15.7-0.4,21.8c-4,4-9.7,4.5-14.3,1.3
			c-0.1-0.1-0.3-0.2-0.6-0.3c0,0.8,0,1.4,0,2.1c0,2.4,0,4.8,0,7.2c-0.1,2.6-2,4.1-4.5,3.7c-1.5-0.3-2.7-1.5-2.9-3.2
			c-0.1-0.4,0-0.8,0-1.3c0-10,0-20,0-30c0-0.6,0-1.2,0.2-1.7c0.4-1.7,1.7-2.7,3.4-2.8c1.7-0.1,2.9,0.7,3.6,2.4
			C87.5,35,87.6,35.2,87.7,35.4z M99.5,46.6c-0.5-1.5-0.8-3-1.4-4.3c-0.9-1.9-2.6-2.8-4.6-2.8c-2.2,0-3.9,1-4.8,3
			c-1.3,2.6-1.2,5.2-0.1,7.9c0.9,2.1,2.6,3.2,4.9,3.2c2.1,0,3.9-0.9,4.8-2.9C98.8,49.4,99,48,99.5,46.6z"/>
		<path class="st2" d="M116.5,58.5c0,3,0,5.8,0,8.6c0,0.6,0,1.2-0.2,1.7c-0.5,1.9-2,2.9-3.9,2.7c-1.8-0.2-3.1-1.5-3.3-3.4
			c0-0.3,0-0.6,0-1c0-10.1,0-20.2,0-30.2c0-0.6,0-1.2,0.2-1.7c0.5-1.6,1.7-2.6,3.4-2.7c1.6-0.1,2.9,0.7,3.6,2.3
			c0.1,0.2,0.2,0.4,0.3,0.6c3.4-4.4,11.2-4.2,15.3,0.5c4.4,5.1,5.5,14.9,0.1,21c-3.9,4.4-10,5.3-14.8,2
			C117,58.8,116.8,58.7,116.5,58.5z M128.4,46.5c-0.5-1.4-0.8-3-1.5-4.3c-0.9-1.8-2.6-2.8-4.7-2.7c-2.2,0-3.9,1-4.8,3
			c-1.3,2.7-1.2,5.5,0.1,8.1c1,1.9,2.7,2.9,4.8,2.9c2.2,0,3.9-1,4.8-3C127.7,49.3,127.9,48,128.4,46.5z"/>
		<path class="st2" d="M154.8,49.1c0.5,3.1,2.9,5.1,6.3,5.3c1.6,0.1,3.1-0.3,4.4-1.1c0.8-0.5,1.6-1,2.5-1.5c1.2-0.7,2.4-0.5,3.4,0.4
			c1,1,1.4,2.4,0.8,3.5c-0.4,0.8-1,1.6-1.8,2.1c-4.8,3.7-13.6,4.6-19.1-0.7c-3.3-3.2-4.5-7.3-4.1-11.9c0.5-5.7,3.2-10.1,8.8-12.3
			c6.9-2.7,14.7,1.2,17.1,8.7c0.5,1.6,0.6,3.3,0.6,4.9c0,1.3-0.8,2.1-2.2,2.3c-0.5,0.1-1,0.1-1.5,0.1c-4.7,0-9.4,0-14.1,0
			C155.6,49.1,155.2,49.1,154.8,49.1z M166.3,44.1c-0.5-3.7-3-5.9-6.4-5.6c-2.8,0.2-5.2,2.9-5.1,5.6
			C158.5,44.1,162.4,44.1,166.3,44.1z"/>
		<path class="st2" d="M77.8,47.3c-0.2,4.9-2.1,9.4-7.1,12.1c-7.9,4.3-17.3-0.3-19.1-9.1c-1.2-5.8,0.2-11,4.7-15
			c6.6-5.7,16.7-3.1,20.2,5.2C77.4,42.4,77.8,44.5,77.8,47.3z M58.4,46.4c0.3,1.3,0.5,2.8,1.1,4.1c0.9,2.1,2.7,3,4.9,3
			c2.2,0,3.9-0.9,5-2.9c1.3-2.6,1.3-5.3,0.1-7.9c-1-2.1-2.7-3.2-5-3.2c-2.3,0-4,1.1-5,3.2C59,43.8,58.8,45,58.4,46.4z"/>
		<path class="st2" d="M137.8,42c0-4.6,0-9.1,0-13.7c0-0.7,0-1.4,0.2-2c0.4-1.8,1.9-2.9,3.8-2.8c1.7,0.1,3.1,1.3,3.4,3
			c0.1,0.6,0.2,1.2,0.2,1.7c0,9.2,0,18.3,0,27.5c0,0.6,0,1.2-0.2,1.8c-0.3,1.7-1.7,2.9-3.4,3c-1.8,0.1-3.3-1-3.7-2.8
			c-0.2-0.7-0.2-1.3-0.2-2C137.8,51.2,137.8,46.6,137.8,42z"/>
		<path class="st2" d="M183.1,35.5c0.5-0.6,1-1.1,1.5-1.6c1.1-1.1,2.4-1.5,3.9-1.4c2.4,0.1,4.1,2.4,3.4,4.8c-0.3,1-1,1.5-1.9,1.8
			c-1.2,0.5-2.4,1-3.6,1.6c-2.3,1-3.5,2.7-3.3,5.3c0.1,3.3,0,6.6,0,9.9c0,0.6,0,1.3-0.2,1.9c-0.5,1.9-1.9,2.9-3.9,2.8
			c-1.7-0.1-3.1-1.4-3.3-3.2c-0.1-0.6-0.1-1.2-0.1-1.7c0-6.2,0-12.3,0-18.5c0-0.4,0-0.8,0.1-1.2c0.2-1.7,1.2-2.9,2.8-3.3
			c1.8-0.4,3.1,0.1,4,1.7C182.6,34.7,182.8,35.1,183.1,35.5z"/>
		<path class="st2" d="M93.5,10.4c6.9,0,11,4.9,12.5,9.2c0.7,2-0.3,4-2.2,4.7c-2,0.7-4.2-0.2-4.9-2.2c-1.4-3.6-4.9-5.1-8.1-3.5
			c-1.4,0.7-2.2,1.9-2.8,3.3c-0.8,2.1-2.9,3.1-5,2.3c-1.9-0.7-2.9-2.9-2.1-4.9C82.6,15.1,86.6,10.3,93.5,10.4z"/>
	</g>
</g>
<g id="prestashop" class="st0">
	<g class="st1">
		<path class="st2" d="M107.7,36.6c0-0.5-0.1-1-0.1-1.5c0-0.4,0-0.7-0.5-0.8c-0.1,0-0.2-0.2-0.2-0.4c-0.2-0.5-0.3-1.1-0.5-1.6
			c2.1-0.8,4-2.1,5.6-3.7c-2.5,0.9-5.1,1.2-7.8,0.8c-0.3,1.2,0.3,2.2,1,3.2c-0.5-0.1-1-0.1-1.5-0.2c-1.3-0.3-2.3-1-2.3-2.3
			c0-0.2-0.2-0.3-0.4-0.5c-0.9-0.8-1.7-1.5-2.6-2.3c0,0,0.1-0.1,0.1-0.1c1,0.5,2,1,3,1.5c1.6-2.7,2.4-5.7,2.7-10
			c2.8,1.9,4.8,4.5,6.8,7.1c0.1,0,0.1,0,0.2,0c0.2-0.9,0.4-1.7,0.4-2.6c0-1.1-0.1-2.2-0.2-3.3c-0.1-0.9-0.6-1.5-1.2-2.1
			c-1-0.9-2.3-0.7-3.3,0.3c-0.3,0.4-0.6,0.8-1,1.3c0.2-1.1,0.5-2.1,1.2-2.9c0.6-0.7,1.4-1.1,2.2-0.4c0.1,0.1,0.3,0.1,0.5,0
			c-0.4-0.5-0.7-1-1.1-1.4c-3.2-3.6-8.3-4.7-12.6-2.9c-4.5,1.9-7.2,6.4-6.9,11.2c0.2,2.8,1.3,5.3,3.3,7.2c0.4,0.4,0.9,0.8,1.4,1.1
			c0.3,0.2,0.4,0.4,0.3,0.8c-0.2,0.5-0.3,1.1-0.5,1.7c0,0.1,0,0.2-0.1,0.2c-0.9,0.2-0.6,0.9-0.7,1.5c0,0.3-0.1,0.5-0.1,0.8
			c-5.3-2.6-9.4-9.1-8.3-16.3c1.2-8,7.7-13.6,15.7-13.7c7.5-0.1,14.3,5.3,15.8,12.7C117.5,26.9,113.4,33.8,107.7,36.6z"/>
		<path class="st2" d="M179.3,47.8c1.4,0,2.7,0,4,0c0,1,0,2,0,3.1c0.8-0.8,1.4-1.5,2.2-2.1c2.7-1.9,6.6-1.7,9.6,0.5
			c3.4,2.5,4.2,6,3.6,10c-0.6,3.7-2.7,6.3-6.2,7.6c-3.2,1.2-6.1,0.3-8.6-2c-0.2-0.2-0.4-0.3-0.5-0.5c0,0,0,0-0.2,0
			c0,3.2,0,6.4,0,9.6c-1.4,0-2.7,0-4,0C179.3,65.3,179.3,56.5,179.3,47.8z M195,57.4c-0.1-0.8-0.2-1.5-0.4-2.3
			c-1.1-3.7-5.3-5.3-8.5-3.3c-1.9,1.2-2.7,3.1-2.8,5.3c-0.1,2.8,1.5,5.4,4,6.2C191.2,64.6,194.9,61.7,195,57.4z"/>
		<path class="st2" d="M11.7,59.6c0,2.5,0,4.9,0,7.4c-1.4,0-2.8,0-4.2,0c0-8.4,0-16.8,0-25.2c0.2,0,0.4-0.1,0.5-0.1
			c3.4,0,6.9,0,10.3,0.1c1.3,0.1,2.7,0.4,3.9,0.8c2.6,0.9,4.2,2.7,4.7,5.4c0.3,1.5,0.3,3.2,0.1,4.7c-0.5,3.5-2.5,5.6-6.1,6.3
			c-1.9,0.4-3.8,0.4-5.7,0.5C14,59.6,12.9,59.6,11.7,59.6z M11.8,55.7c1.8,0,3.6,0,5.3,0c0.5,0,0.9,0,1.4-0.1c2.7-0.3,4-1.6,4.3-4.3
			c0.1-0.6,0-1.2,0-1.8c-0.2-1.7-1-2.8-2.6-3.3c-2.7-0.9-5.5-0.5-8.3-0.6C11.8,49,11.8,52.3,11.8,55.7z"/>
		<path class="st2" d="M133,44.2c-0.8,1.1-1.5,2.1-2.2,3.1c-2.3-1.7-4.8-2.4-7.5-2.2c-0.6,0-1.2,0.2-1.8,0.4
			c-1.1,0.4-1.8,1.3-1.8,2.5c0,1.2,0.5,2.2,1.6,2.7c1.3,0.5,2.6,0.9,4,1.4c1.8,0.7,3.7,1.2,5.4,2c4.1,2.2,4.1,8.7,0.4,11.4
			c-1.5,1.1-3.2,1.7-5,1.8c-4.5,0.4-8.4-1-11.9-4c0.9-1.1,1.8-2.1,2.5-3c1.7,0.9,3.3,1.9,5,2.6c1.7,0.7,3.5,0.8,5.2,0.3
			c1.5-0.5,2.4-1.5,2.4-2.8c0.1-1.4-0.6-2.4-2.1-3c-1.9-0.7-3.9-1.1-5.7-1.7c-1.2-0.4-2.4-1-3.5-1.6c-3.6-1.9-3.8-8.8,0.2-11.2
			c3.1-1.8,6.3-2,9.6-1.2C130,42.1,131.7,43,133,44.2z"/>
		<path class="st2" d="M106.9,50.7c0-0.9,0-1.9,0-2.9c1.3,0,2.6,0,4,0c0,6.4,0,12.8,0,19.2c-1.3,0-2.6,0-3.9,0c0-0.9,0-1.9,0-2.8
			c-0.9,0.7-1.6,1.4-2.4,1.9c-5,3-11.6,0.1-12.9-5.7C90.8,57,91,53.8,93.2,51c2.5-3.3,7.2-4.6,10.5-2.8
			C104.9,48.8,105.8,49.8,106.9,50.7z M95.3,57.5c0,0.3,0,0.7,0.1,1c0.4,4,5,6.5,8.5,4.5c2.3-1.3,3.5-4,3-6.9
			c-0.6-3.3-3.2-5.5-6.3-5.1C97.5,51.4,95.3,54.2,95.3,57.5z"/>
		<path class="st2" d="M136.7,66.9c0-8.9,0-17.8,0-26.7c1.3,0,2.6,0,4,0c0,3.6,0,7.2,0,11c1-1.6,2.2-2.6,3.7-3.2
			c2.9-1.1,6.4-0.4,8.3,1.8c1.1,1.3,1.6,2.8,1.6,4.4c0.1,4.2,0,8.3,0,12.5c0,0.1,0,0.2-0.1,0.3c-1.3,0-2.6,0-4,0c0-0.3,0-0.6,0-1
			c0-3.6,0-7.1-0.1-10.7c0-1.6-0.7-3.1-2.3-3.8c-2.8-1.2-6.7,0.3-7.1,3.9c-0.2,1.7-0.1,3.4-0.1,5.1c0,2.1,0,4.2,0,6.4
			C139.4,66.9,138.1,66.9,136.7,66.9z"/>
		<path class="st2" d="M46.8,61.3c2,3.1,6.7,3,10.4-0.1c0.8,0.8,1.5,1.7,2.3,2.6c-1.9,2-4.2,3.1-6.8,3.5c-3.9,0.5-8.1-1.4-10-4.8
			c-3.3-6-0.1-14.3,7.9-15c2.6-0.2,5,0.3,7.1,1.9c1.8,1.4,2.8,3.1,2.9,5.4c0,0.5-0.1,0.7-0.6,0.9c-4.2,1.7-8.4,3.5-12.5,5.3
			C47.3,61.1,47,61.2,46.8,61.3z M56,53.6c-1-2.1-3.6-2.9-6.3-2.1c-2.9,0.9-4.7,3.7-4.2,6.6C49,56.6,52.5,55.1,56,53.6z"/>
		<path class="st2" d="M156.6,57.4c0-5.6,4.3-9.9,10.1-10c5.7-0.1,10.2,4.3,10.2,9.9c0,5.6-4.4,9.9-10.1,10
			C161,67.3,156.6,63.1,156.6,57.4z M172.8,57.5c0.1-3.7-2.4-6.3-6-6.4c-3.5-0.1-6.1,2.6-6.1,6.2c-0.1,3.6,2.5,6.3,6,6.4
			C170.1,63.8,172.8,61.1,172.8,57.5z"/>
		<path class="st2" d="M76.6,49.5c-0.5,1-1,1.9-1.4,2.7c-1.6-0.4-3.1-0.9-4.7-1.2c-0.8-0.1-1.7,0.1-2.6,0.3
			c-0.8,0.2-1.2,0.8-1.2,1.7c0,0.9,0.5,1.3,1.2,1.6c1.6,0.5,3.3,1,4.9,1.6c0.8,0.3,1.5,0.7,2.3,1.2c2.7,1.7,2.6,6.7-0.2,8.6
			c-2.4,1.7-5,1.8-7.7,1.2c-2-0.4-3.9-1.2-5.5-2.6c0.6-1,1.3-2,1.8-2.9c1.5,0.7,2.8,1.5,4.3,1.9c1,0.3,2.1,0.3,3.2,0.3
			c0.5,0,1.1-0.3,1.5-0.7c1-0.8,0.9-2.1-0.1-2.7c-1.2-0.7-2.5-1.1-3.8-1.6c-1.2-0.5-2.5-1-3.6-1.7c-3.2-2-2.5-6.4,0.3-8.2
			C68.5,46.8,73.3,47,76.6,49.5z"/>
		<path class="st2" d="M83.9,51c0,1.2,0,2.4,0,3.5c0,1.9,0,3.9,0,5.8c0,1.3,0.2,2.5,1.5,3.1c1.3,0.6,2.5,0.2,3.5-0.8
			c0.1-0.1,0.1-0.1,0.2-0.2c0.5,0.9,1.1,1.8,1.6,2.8c-2,1.8-4.3,2.4-6.8,1.6c-2.4-0.8-3.7-2.7-4-5.2c0-0.4-0.1-0.8-0.1-1.2
			c0-6.1,0-12.1,0-18.2c0-0.2,0-0.3,0-0.6c1.3,0,2.6,0,4,0c0,2,0,3.9,0,6c1.7,0,3.4,0,5,0c0,1.1,0,2.2,0,3.3
			C87.3,51,85.7,51,83.9,51z"/>
		<path class="st2" d="M40.3,47.5c0,1.4,0,2.6,0,4c-0.6,0.1-1.2,0.1-1.7,0.2c-2.4,0.5-3.6,2.2-4.1,4.4c-0.2,1.1-0.3,2.2-0.3,3.3
			c0,2.5,0,5,0,7.5c-1.4,0-2.7,0-4,0c0-6.4,0-12.7,0-19.2c1.3,0,2.6,0,4,0c0,1.2,0,2.3,0,3.5C35.7,49.2,37.5,47.6,40.3,47.5z"/>
		<path class="st2" d="M106.8,35.2c0.1,0.5,0.1,0.9,0.2,1.3c0.1,0.4,0,0.5-0.3,0.6c-4.3,1.8-8.5,1.8-12.8,0
			c-0.2-0.1-0.3-0.3-0.3-0.5c0-0.5,0.1-1,0.2-1.5C98.1,35.2,102.4,35.2,106.8,35.2z"/>
		<path class="st2" d="M103.8,18.7c-3.6-1.8-7-1.6-10.2,0.9c0.2-1.7,2.5-3.6,4.5-3.9C100.5,15.4,103.1,16.7,103.8,18.7z"/>
		<path class="st2" d="M96.2,22.6c1.1-0.3,2.1-0.6,3.2-0.8c0.5-0.1,0.8-0.3,1-0.9c0.2-0.7,0.5-1.4,0.7-2.2c0.2,0.7,0.4,1.3,0.6,1.8
			c0.2,0.5,0.4,1,0.7,1.4c0.3,0.5,0.2,1.3-0.2,1.7c-0.4,0.5-1.1,0.6-1.7,0.4c-1-0.4-2-0.7-3-1c-0.4-0.1-0.9-0.2-1.4-0.3
			C96.2,22.7,96.2,22.6,96.2,22.6z M101.9,21.9c-0.4-0.3-0.6-0.6-0.8-0.5c-0.2,0-0.4,0.4-0.6,0.6c0.2,0.2,0.4,0.5,0.6,0.5
			C101.3,22.4,101.5,22.1,101.9,21.9z"/>
		<path class="st2" d="M95.7,34.4c0.2-0.5,0.3-0.9,0.5-1.4c2.8,1,5.6,1,8.4,0c0.2,0.5,0.3,0.9,0.5,1.4
			C101.9,34.4,98.8,34.4,95.7,34.4z"/>
		<path class="st2" d="M110.2,20.2c0.2,0.8,0.5,1.6,0.8,2.6c-0.1,0.1-0.2,0.4-0.4,0.7c-0.1,0.1-0.3,0.3-0.5,0.3
			c-0.2,0-0.3-0.2-0.5-0.4c-0.1-0.1-0.1-0.2-0.1-0.3c0.1-1,0.3-2,0.4-2.9C110.1,20.1,110.1,20.2,110.2,20.2z"/>
		<path d="M101.9,21.9c-0.4,0.3-0.6,0.5-0.8,0.5c-0.2,0-0.4-0.3-0.6-0.5c0.2-0.2,0.4-0.5,0.6-0.6C101.3,21.3,101.5,21.6,101.9,21.9z
			"/>
	</g>
</g>
<g id="iea" class="st0">
	<g class="st1">
		<path class="st2" d="M127.4,24c-3.6,0-7,0-10.5,0c-0.2-5.2,3-9.8,8.6-11.8c6.8-2.4,13.8-2.5,20.7-0.4c5.8,1.7,7.9,4.9,8,10.9
			c0.1,8.7,0.3,17.4,0.5,26.1c0,1.3,0.4,2.7,0.6,4.1c-3.7,0-7.2,0-10.7,0c-0.4-1.1-0.8-2.2-1.3-3.5c-5.5,4.2-11.5,5.7-18.2,4.3
			c-5.9-1.3-9.5-5.2-9.8-11c-0.3-6.3,2.3-10.5,8.5-12.2c4.6-1.2,9.5-1.6,14.2-2.5c3.9-0.7,5.3-2.3,5-5.5c-0.2-2.2-1.3-3.6-3.5-4.3
			C134,16.5,129.8,18.4,127.4,24z M143.1,33.4c-3.4,0.6-6.4,1-9.3,1.6c-1.8,0.4-3.7,1-5.2,2c-3,2-3,6.6-0.2,8.7
			c4.6,3.4,13.1,0.6,14.3-4.9C143.2,38.3,143,35.8,143.1,33.4z"/>
		<path class="st2" d="M110.3,34.9c-8.9,0-17.6,0-26.3,0c-3.8,0-3.9,0.1-3,3.6c1.8,7.5,11.6,10.2,17.3,4.5c2-2,4-2.6,6.5-2.5
			c1.5,0.1,2.9,0,4.4,0c-0.3,7.8-10.1,14.5-20,13.7c-15.1-1.2-20.8-12.4-19.8-24.1c1.1-13,11.3-21.1,24.1-19.6
			C104.4,11.9,112.1,22.7,110.3,34.9z M99.3,27.9c-0.9-6.6-4.1-9.4-9.7-9.1c-5.5,0.3-8.7,3.5-8.8,9.1C86.9,27.9,93,27.9,99.3,27.9z"
			/>
		<path class="st2" d="M51.8,53c0-13.8,0-27.3,0-41.1c3.6,0,7,0,10.7,0c0,13.6,0,27.2,0,41.1C59,53,55.5,53,51.8,53z"/>
		<path class="st2" d="M51.8,68.7c0-2.7,0-5.3,0-8.1c3.5,0,7,0,10.7,0c0,2.7,0,5.3,0,8.1C59,68.7,55.6,68.7,51.8,68.7z"/>
		<path class="st2" d="M75.7,68.7c0-2.7,0-5.3,0-8.1c3.5,0,7,0,10.7,0c0,2.7,0,5.3,0,8.1C82.9,68.7,79.5,68.7,75.7,68.7z"/>
		<path class="st2" d="M99.3,68.7c0-2.7,0-5.3,0-8.1c3.5,0,7,0,10.7,0c0,2.7,0,5.3,0,8.1C106.6,68.7,103.1,68.7,99.3,68.7z"/>
		<path class="st2" d="M122.5,68.7c0-2.7,0-5.3,0-8.1c3.5,0,7,0,10.7,0c0,2.7,0,5.3,0,8.1C129.7,68.7,126.3,68.7,122.5,68.7z"/>
		<path class="st2" d="M144.5,68.7c0-2.7,0-5.3,0-8.1c3.5,0,7,0,10.7,0c0,2.7,0,5.3,0,8.1C151.8,68.7,148.3,68.7,144.5,68.7z"/>
	</g>
</g>
<g id="poderlocal" class="st0">
	<g class="st1">
		<path class="st2" d="M19.4,28.4c1.9,0,3.9-0.1,5.8,0c2.5,0.1,4.6,1.9,5.4,4.1c1.3,3.3-1.3,6.8-4,7.6c-2.2,0.6-4.5,0.6-6.8,0.7
			c-1.7,0.1-1.7,0-1.7,1.7c0,1.5,0,3,0,4.5c0,1.4,0.4,1.7,1.8,1.9c0.4,0,0.8,0.4,1.1,0.6c-0.4,0.3-0.8,0.7-1.2,0.8
			c-2.1,0.1-4.2,0.1-6.3,0.1c-0.3,0-0.6-0.4-0.9-0.6c0.3-0.3,0.5-0.8,0.8-0.8c1.7-0.4,1.9-0.5,1.9-2.2c0-4.9,0-9.7,0-14.6
			c0-2-0.4-2.3-1.9-2.3c-0.2,0-0.5-0.5-0.7-0.7c0.3-0.2,0.6-0.6,0.9-0.6c1.9-0.1,3.9,0,5.8,0C19.4,28.3,19.4,28.3,19.4,28.4z
			 M18.1,34.3C18.1,34.3,18.1,34.3,18.1,34.3c0,1.3,0,2.6,0.1,3.8c0,0.4,0.6,0.9,0.9,0.9c1.7,0,3.4,0,5.1-0.2c2-0.3,3.2-1.7,3.4-3.7
			c0.2-2.4-0.7-4.4-2.7-4.9c-2-0.4-4.1-0.4-6.1-0.5c-0.2,0-0.6,0.6-0.6,1C18.1,32,18.1,33.2,18.1,34.3z"/>
		<path class="st2" d="M62.8,48.4c-1.4,0.6-2.6,1.3-3.9,1.7c-4,1.2-6.9-1.3-8-4.6c-0.8-2.6-0.6-5.2,0.9-7.6c2.1-3.4,6.3-4.4,9.7-2.5
			c0.3,0.2,0.6,0.3,1.3,0.7c0-2.1,0-4-0.1-5.8c0-0.2-0.9-0.3-1.3-0.5c-0.4-0.2-1.1-0.3-1.2-0.6c-0.2-0.8,0.5-0.8,1.1-1
			c0.9-0.2,1.8-0.6,2.7-1c1.3-0.4,1.5-0.2,1.5,1.1c0,6.1,0,12.3,0,18.4c0,1.2,0.5,1.9,1.9,1.9c0.3,0,0.6,0.4,0.8,0.6
			c-0.3,0.2-0.5,0.7-0.8,0.7c-1.2,0.2-2.4,0.3-3.7,0.4c-0.2,0-0.6-0.3-0.7-0.6C62.8,49.5,62.9,49,62.8,48.4z M62.9,42.9
			C62.9,42.9,62.9,42.9,62.9,42.9c0-0.9,0-1.8,0-2.7c0-0.6-0.1-1.3-0.4-1.8c-1.1-1.6-2.6-2.4-4.5-2.2c-1.7,0.1-3.1,1-3.8,2.6
			c-1,2.4-1.1,4.8,0,7.2c1,2.1,2.9,3.1,5,2.6c2.7-0.7,3.7-1.9,3.7-4.5C62.9,43.7,62.9,43.3,62.9,42.9z"/>
		<path class="st2" d="M179.7,42.6c0,1.4,0,2.7,0,4.1c0,1.9,0.9,2.6,2.7,2.5c0.4,0,0.7,0.2,1.1,0.2c-0.3,0.3-0.6,0.7-0.9,0.8
			c-1.9,0.7-3.9,0.1-5-1.5c-0.4-0.7-0.8-0.4-1.4-0.2c-1.5,0.6-3,1.4-4.6,1.8c-1.1,0.2-2.4,0-3.5-0.4c-1.5-0.5-2.5-1.7-2.4-3.4
			c0.1-1.9,1.2-3.2,3-3.7c2.3-0.7,4.6-1.1,7-1.5c1.1-0.2,1.4-0.5,1.4-1.5c0-1.4-0.2-2.7-1.6-3.4c-1.6-0.8-3.2-0.8-4.7,0.1
			c-0.6,0.4-0.8,1.2-1.3,1.9c-0.5,0.7-0.9,1.4-1.5,2c-0.1,0.1-1.1-0.2-1.1-0.4c-0.1-0.8-0.2-1.9,0.2-2.4c0.8-0.9,1.8-1.8,2.9-2.3
			c2.3-1,4.8-1,7.1,0c1.5,0.6,2.4,1.8,2.4,3.5C179.6,40,179.7,41.3,179.7,42.6z M177.1,44.9c0-0.6,0.1-1.1,0-1.5
			c-0.1-0.3-0.5-0.7-0.7-0.7c-1.9,0.3-3.8,0.5-5.7,1c-1.4,0.4-2.1,1.7-1.9,2.9c0.2,1.1,1.5,2.3,2.8,2c1.4-0.2,2.7-0.8,4-1.3
			C176.7,46.9,177.4,46,177.1,44.9z"/>
		<path class="st2" d="M119.4,50.2c-2.1,0-4.2,0-6.3,0c-0.4,0-0.8-0.4-1.2-0.6c0.4-0.3,0.7-0.8,1.1-0.8c1.2,0,1.6-0.8,1.6-1.8
			c0-5.2,0-10.4,0-15.6c0-1.1-0.4-1.8-1.7-1.8c-0.3,0-0.7-0.4-1-0.6c0.3-0.2,0.6-0.7,1-0.7c2.1,0,4.3,0,6.4,0c0.3,0,0.6,0.3,0.9,0.4
			c-0.3,0.2-0.6,0.5-0.9,0.6c-1.6,0.3-2,0.6-2,2.3c0,5,0,9.9,0,14.9c0,1.7,0.3,2,1.9,1.9c1.5-0.1,3-0.1,4.4-0.5
			c1.8-0.5,3.2-1.7,4.1-3.4c0.2-0.4,0.3-0.8,0.6-1c0.3-0.2,0.7-0.2,1-0.3c0.1,0.3,0.4,0.7,0.3,1c-0.7,1.8-1.5,3.6-2.4,5.4
			c-0.2,0.3-0.8,0.6-1.3,0.6C123.7,50.2,121.6,50.1,119.4,50.2C119.4,50.1,119.4,50.2,119.4,50.2z"/>
		<path class="st2" d="M47.8,42.5c-0.3,4.2-3.3,8-7.7,8c-4.9,0-7.5-3.1-7.6-7.8c-0.1-4.9,3.1-8.2,7.8-8.2
			C45,34.5,47.6,37.6,47.8,42.5z M35.5,42.5c0,0.7,0,1.3,0,2c0.2,2.4,1.9,4.3,4,4.6c2.1,0.3,3.9-0.9,4.8-3.1
			c0.9-2.4,0.9-4.9-0.1-7.3c-1.3-3.2-4.6-3.9-7.1-1.6C35.4,38.6,35.4,40.5,35.5,42.5z"/>
		<path class="st2" d="M146.4,42.6c-0.3,4.2-3.3,7.9-7.7,7.9c-4.9,0.1-7.6-3.1-7.7-8c0-4.7,3.2-8,7.9-8
			C143.6,34.6,146.2,37.7,146.4,42.6z M134,42.5c-0.1,0-0.2,0.1-0.3,0.1c0.4,1.4,0.7,2.9,1.3,4.3c0.7,1.6,2.2,2.3,4,2.2
			c1.7-0.1,2.8-1,3.6-2.5c1.3-2.6,1.3-5.3,0.2-7.9c-1.3-3.2-4.6-3.9-7.1-1.6C133.9,38.6,133.9,40.6,134,42.5z"/>
		<path class="st2" d="M78.6,40.8c-1.4,0-2.7,0-4.1,0c-0.4,0-1,0.4-1.1,0.7c-0.6,2.4,1.1,6,3.4,6.9c2.2,0.9,4.2,0.1,5.9-1.3
			c0.2-0.2,0.4-0.5,0.6-0.6c0.3-0.1,0.6,0,1,0c0,0.3,0.1,0.7,0,0.9c-4.1,4.7-10.9,3.9-13.1-1.2c-1.4-3.1-1.2-6.3,1.1-9
			c2.2-2.7,5.2-3.2,8.4-2.3c2.1,0.6,3.2,2.2,3.8,4.2c0.3,0.9-0.1,1.6-1.2,1.7C81.7,40.8,80.1,40.8,78.6,40.8
			C78.6,40.8,78.6,40.8,78.6,40.8z M77.5,39.7C77.5,39.6,77.5,39.6,77.5,39.7c1.1-0.1,2.1-0.1,3.2-0.1c0.7,0,0.9-0.4,0.8-1
			c-0.3-1.6-1.9-2.8-3.6-2.8c-2,0.1-3.7,1.4-3.9,3c-0.1,0.6,0.1,0.9,0.8,0.9C75.6,39.6,76.6,39.7,77.5,39.7z"/>
		<path class="st2" d="M151.7,42.2c0,1.7,0.6,3.1,1.5,4.4c1.8,2.5,5.3,2.8,7.8,0.6c0.4-0.3,0.8-0.8,1.2-1c0.2-0.1,0.6,0,0.9,0
			c0,0.3,0.1,0.7-0.1,0.9c-2.6,2.8-5.9,4.4-10,2.5c-3.1-1.4-4.7-5.5-3.9-9.1c1.4-6.3,8.8-7.3,12.1-4.8c0.7,0.5,1.2,1.3,1.6,2.1
			c0.4,0.9-0.2,1.7-1,1.9c-0.4,0.1-1-0.6-1.5-0.9c-0.1-0.1-0.2-0.4-0.3-0.6c-0.7-1.6-1.8-2.7-3.7-2.5c-1.9,0.1-3.6,1.5-4.1,3.3
			C152,40.1,151.9,41.2,151.7,42.2z"/>
		<path class="st2" d="M188,50.2c-1,0-2.1,0.1-3.1,0c-0.3,0-0.6-0.5-0.9-0.7c0.3-0.2,0.5-0.6,0.8-0.7c1.4-0.1,1.7-0.9,1.7-2.1
			c0-5.2,0-10.4,0-15.6c0-1-0.4-1.3-1.3-1.3c-0.4,0-1.2-0.2-1.2-0.5c-0.2-0.9,0.5-0.9,1.1-1c0.9-0.3,1.8-0.7,2.8-1
			c1-0.3,1.2,0,1.2,1c-0.1,6.1-0.1,12.3-0.1,18.4c0,1.4,0.6,1.9,1.9,2.1c0.4,0.1,0.6,0.5,1,0.8c-0.3,0.2-0.6,0.6-1,0.6
			C190,50.2,189,50.2,188,50.2C188,50.2,188,50.2,188,50.2z"/>
		<path class="st2" d="M92.2,37.1c0.9-0.6,1.5-1.1,2.2-1.5c1.3-0.8,2.6-1.4,4.2-0.8c1,0.4,1.5,1.2,1.2,2c-0.4,0.9-1.4,1.2-2.4,0.7
			c-1.8-0.9-4-0.3-5.1,1.5c-0.1,0.2-0.2,0.5-0.2,0.8c0,2.2,0,4.5,0.1,6.7c0,1.7,0.3,2,2,2.3c0.3,0.1,0.5,0.4,0.7,0.6
			c-0.3,0.3-0.5,0.7-0.8,0.7c-2.2,0.1-4.4,0.1-6.6,0.1c-0.2,0-0.6-0.4-0.6-0.7c0-0.3,0.3-0.7,0.6-0.8c2-0.6,2-0.6,2-2.6
			c0-2.5,0-5,0-7.5c0-1.1-0.4-1.4-1.4-1.3c-0.4,0-1.1-0.2-1.2-0.5c-0.2-0.9,0.5-0.9,1.1-1c0.9-0.2,1.7-0.7,2.5-1
			c1.1-0.4,1.4-0.2,1.4,1C92.1,36.1,92.2,36.5,92.2,37.1z"/>
	</g>
</g>
<g id="munileg" class="st0">
	<g class="st1">
		<path class="st2" d="M184.3,27.9c-1.7,1.4-5.1,1.2-6.8-0.4c0-0.4,0.1-0.6,0.5-0.4c2.1,1.4,3,1.1,3.9-1.2c0.3-0.2,0.5-0.2,0.8,0
			c0.7,0.4-0.1,2.3,1.6,1.6C184.3,27.6,184.3,27.7,184.3,27.9z"/>
		<path class="st2" d="M28.6,39.3c1.1-3.7,2.1-6.9,2.9-10c0.3-1.2,0.8-1.8,2.1-1.7c1.9,0.1,3.8,0,5.6,0c0.7,0,1.6-0.3,1.5,0.9
			c-0.1,0.8,0.4,1.8-1.1,1.8c-1-0.1-1.2,0.7-1.2,1.5c0,3.6,0,7.2,0,10.9c0,0.9,0.3,1.5,1.2,1.5c1.5,0,1.1,1,1.1,1.8
			c0.1,1.3-1,0.8-1.6,0.9c-2.1,0.1-4.2,0-6.2,0c-0.6,0-1.5,0.4-1.4-0.8c0-0.8-0.5-1.8,1.1-1.9c1.2,0,1.3-0.9,1.3-1.9
			c0-3.4,0-6.8,0-10.7c-1.2,2.5-1.6,4.9-2.3,7.2c-0.7,2.3-1.4,4.6-2,6.9c-0.3,1.1-0.9,1.1-1.8,1.1c-0.9,0-1.3-0.2-1.6-1.1
			c-1.1-4.1-2.4-8.1-3.6-12.1c-0.1-0.4-0.1-0.8-0.6-1c0,3.3,0,6.5,0,9.8c0,0.9,0.1,1.8,1.3,1.8c1.3,0,0.9,1,1,1.7
			c0.1,1.1-0.7,0.9-1.4,0.9c-1.8,0-3.6,0-5.4,0c-0.5,0-1.2,0-1.1-0.8c0.1-0.7-0.4-1.7,0.7-1.8c1.6-0.1,1.6-1.1,1.5-2.2
			c0-3.4,0-6.7,0-10.1c0-0.8,0.1-1.7-1.1-1.7c-1.3,0-1.1-0.8-1.1-1.6c-0.1-1.1,0.7-1.1,1.5-1.1c2,0,4,0,6,0c1,0,1.4,0.3,1.7,1.3
			C26.5,32.2,27.5,35.4,28.6,39.3z"/>
		<path class="st2" d="M127,47.2c-2.4-2.1-2.4-2.7-0.1-5.1c0.4-0.4,0.5-0.5,0.2-1.1c-2.6-3.9-1-7.5,3.8-8.1c0.5-0.1,1.1-0.1,1.6,0
			c1.9,0.5,3.6,1,5.4-0.6c0.9-0.8,2.1-0.3,2.4,1.1c0.3,1.2-0.3,1.9-1.6,2c-0.5,0-1.4-0.4-1.1,1c0.9,4-1.6,6.6-5.8,6.4
			c-0.8,0-2.1-0.7-2.3,0.4c-0.1,1.3,1.4,0.8,2.2,0.9c1.7,0.4,3.5,0.5,5.1,0.9c1.8,0.4,3.4,1.2,3.5,3.3c0.1,2-1.2,3.2-2.9,3.9
			c-3,1.2-6.2,1.2-9.3,0.5c-1.4-0.3-3-0.8-3.3-2.5C124.5,48.5,126.1,48,127,47.2z"/>
		<path class="st2" d="M77,39.9c0,0.9,0,1.7,0,2.6c0,0.9-0.1,1.8,1.2,1.8c1.2,0.1,0.7,1.1,0.8,1.7c0.1,0.9-0.6,0.9-1.2,0.9
			c-1.9,0-3.7,0-5.6,0c-0.5,0-1.2,0.3-1.2-0.6c0-0.6-0.4-1.6,0.3-1.8c1.7-0.4,1.2-1.7,1.3-2.7c0-1.1,0-2.3,0-3.4c0-1,0-2.1-1.3-2
			c-1.3,0.1-2.8,0.3-3,2c-0.2,1.6,0,3.2,0,4.8c0,0.6,0.2,1.1,0.8,1.2c1.3,0.2,0.7,1.2,0.8,1.9c0,1.2-0.9,0.7-1.5,0.7
			c-1.8,0.1-3.6,0-5.4,0c-0.7,0-1.3,0-1.1-0.9c0.1-0.6-0.5-1.6,0.8-1.7c1.3-0.1,1.3-0.9,1.2-1.8c0-1.1,0-2.3,0-3.4
			c0-1.1,0.6-2.5-1.5-2.4c-0.8,0-0.4-1-0.5-1.5c-0.1-0.5,0-1,0.7-1.2c1.3-0.3,2.6-0.7,3.9-1c0.4-0.1,1-0.2,1.1,0.1
			c0.6,2.5,1.8,0.6,2.6,0.3c3.4-1.3,7.4-0.1,6.9,4.7C76.9,38.7,77,39.3,77,39.9z"/>
		<path class="st2" d="M98.3,46.9c-2,0-4,0-6,0c-0.6,0-1.3,0.2-1.3-0.8c0-0.7-0.4-1.7,0.9-1.8c1.2-0.1,1.3-0.8,1.3-1.8
			c0-3.5,0-7,0-10.5c0-1-0.2-1.7-1.4-1.7c-1.2,0-0.8-1-0.9-1.6c-0.1-0.8,0.3-1,1.1-1c2.4,0,4.8,0,7.2,0c0.8,0,1.1,0.3,1,1.1
			c-0.1,0.6,0.4,1.6-0.9,1.6c-1.2,0-1.5,0.6-1.5,1.7c0,3.5,0.1,7,0,10.5c0,1.2,0.5,1.5,1.5,1.5c2.5-0.1,4.4-1.2,5.4-3.5
			c0.5-1.2,1.1-1.3,2.3-0.9c1.5,0.6,0.5,1.4,0.3,2.1c-0.6,1.8-0.8,4.2-2.1,5.1c-1.3,0.9-3.6,0.3-5.5,0.3
			C99.3,46.9,98.8,46.9,98.3,46.9z"/>
		<path class="st2" d="M57.8,38.7c0,1.1,0,2.3,0,3.4c0,1-0.1,2,1.4,2.1c1,0.1,0.5,1.2,0.6,1.8c0.1,0.8-0.4,0.8-1,0.9
			c-1.3,0-2.7,0.1-4,0.2c-0.2,0-0.5,0-0.6-0.1c-0.9-2.1-2-0.5-2.9-0.2c-3.3,1.1-7-0.1-6.6-4.7c0.1-1.4,0-2.8,0-4.2
			c0-1,0.2-2-1.4-2.2c-1.1-0.1-0.6-1.2-0.6-1.8c-0.1-0.8,0.6-0.7,1.1-0.7c5.2-0.4,5.2-0.4,5.2,4.9c0,1.2,0,2.4,0,3.6
			c0,1,0,2.2,1.4,2.1c1.3-0.1,2.7-0.5,2.8-2c0.2-1.6,0-3.2,0-4.8c0-0.6-0.2-1.1-0.9-1.1c-1.4,0-1.1-1-1.1-1.8c0-1.3,1-0.8,1.6-0.8
			c4.8-0.1,4.8-0.1,4.8,4.7C57.8,38.2,57.8,38.4,57.8,38.7z"/>
		<path class="st2" d="M118.3,40.1c-1,0-2,0-3,0c-1.8,0-2,0.4-1.2,1.9c1.1,2.2,3.5,2.5,6,0.8c0.6-0.4,1.1-1.2,2-0.2
			c0.8,0.8,1,1.3,0,2.2c-2.9,2.7-6.9,3.2-10,1.2c-2.9-1.9-4-5.5-2.8-8.6c1.1-2.8,4.2-4.7,7.4-4.5c3.2,0.2,5.3,2,6.1,5.2
			c0.3,1.4,0.2,2.3-1.7,2.1C120.2,40,119.3,40.1,118.3,40.1z"/>
		<path class="st2" d="M87.3,38.5c0,1.3,0,2.5,0,3.8c0,1-0.1,1.8,1.3,1.9c1.1,0.1,0.6,1.2,0.6,1.8c0.1,0.8-0.5,0.8-1.1,0.8
			c-2.1,0-4.2,0-6.2,0c-0.7,0-1.2-0.1-1.1-0.9c0.1-0.7-0.4-1.6,0.8-1.7c0.4,0,1,0,1-0.5c0.3-2.2,0.2-4.4,0.1-6.6
			c0-0.4-0.5-0.5-0.8-0.4c-1.3,0.1-1.1-0.8-1.2-1.6c-0.1-1.1,0.6-1.1,1.4-1.2c0.9-0.1,1.7-0.3,2.5-0.6c2.5-0.8,2.5-0.8,2.5,1.9
			C87.3,36.4,87.3,37.5,87.3,38.5z"/>
		<path class="st2" d="M146,35.3c2.2-2.6,4.5-3.6,7.6-3.4c4.7,0.3,9.4,0.1,14.1,0c1.8,0,2.2,0.7,2.1,2.3c-0.1,0.8-0.3,1.1-1,1.1
			c-0.4,0-0.8,0-1.2,0C160.4,35.3,153.3,35.3,146,35.3z"/>
		<path class="st2" d="M181.1,44.5c0.6-0.7,0.4-1.4,0.4-2c0-3,0-6,0-9.1c0-0.5-0.3-1.3,0.7-1.2c0.9,0,0.6,0.7,0.6,1.2
			c0,4.2,0.1,8.3,0.1,12.5c0,0.4-0.1,0.8,0,1.2c0.3,0.9,0.8,2.1,0.1,2.6c-1,0.8-2.5,0.3-3.7,0.2c-0.8,0-0.6-0.8-0.6-1.3
			c0.7-5.1,0.4-10.2,0.4-15.4c0-0.5-0.1-1.1,0.8-1c0.8,0.1,0.5,0.6,0.5,1c0,3.1,0,6.2,0,9.3C180.7,43.2,180.5,43.8,181.1,44.5z"/>
		<path class="st2" d="M173.8,40.4c0.1,2.3-0.2,5.1,0.4,7.9c0.3,1.2-0.2,1.9-1.6,1.7c-0.5-0.1-1.1-0.1-1.6,0
			c-0.9,0.1-1.4-0.2-1.3-1.2c0.8-5.2,0.3-10.4,0.5-15.5c0-0.5-0.1-0.9,0.6-1c0.9,0,0.7,0.6,0.7,1.1c0,3.3,0,6.6,0,9.9
			c0,0.4-0.3,1.1,0.4,1.1c0.7,0,0.5-0.7,0.5-1.1c0-3.3,0-6.6,0-9.9c0-0.5-0.4-1.1,0.6-1.1c0.9,0,0.7,0.5,0.7,1
			C173.8,35.5,173.8,37.7,173.8,40.4z"/>
		<path class="st2" d="M178.1,38.6c0,0.4,0,0.8,0,1.2c0.2,1.4-0.3,1.9-1.8,1.9c-1.6,0-1.7-0.7-1.6-1.9c0.1-1.1,0-2.1,0-3.2
			c0-1.1,0.4-1.8,1.6-1.8c1.3-0.1,1.8,0.7,1.8,1.8C178.1,37.2,178.1,37.9,178.1,38.6z"/>
		<path class="st2" d="M178.1,46.5c-0.6,0.7,1.1,2.4-1.1,2.7c-1.6,0.2-2.8,0-2.4-2.1c0.1-0.7,0.1-1.5,0-2.2c-0.1-1.2,0.4-2,1.6-2
			c1.2,0,1.8,0.7,1.8,1.9C178.1,45.3,178.1,45.8,178.1,46.5z"/>
		<path class="st2" d="M87.5,29.5c0,1.4-1.3,2.5-2.7,2.4c-1.4-0.1-2.6-1.3-2.5-2.6c0.2-1.5,1.1-2.2,2.6-2.3
			C86.4,26.9,87.6,28.1,87.5,29.5z"/>
		<path class="st2" d="M168.7,29.8c5.2,0,10.1,0,15.1,0C182.8,30.8,170.5,30.9,168.7,29.8z"/>
		<path class="st2" d="M173,12.6c0.1-0.2,0.2-0.3,0.3-0.5c0.9-1.3,1.4-3.4,3.1-3.3c1.7,0.1,2.4,2.1,3.1,3.7c0.1,0.2,0.1,0.4,0,0.6
			c-0.1,0-0.1,0.1-0.2,0.1c-2.1-0.2-4.2,0.2-6.3,0C172.9,13,172.9,12.8,173,12.6z"/>
		<path class="st2" d="M160.1,46.7c-0.4,0.8,0.9,3-1.5,2.4c-2-0.6-0.5-2.6-0.8-3.9c-0.2-0.8,0-1.6,1.1-1.7c0.7,0,1.1,0.3,1.2,1
			C160.2,45.2,160.1,45.8,160.1,46.7z"/>
		<path class="st2" d="M155.7,46.7c-0.3,0.8,0.9,3.1-1.6,2.4c-1.8-0.5-0.5-2.5-0.8-3.8c-0.2-0.8-0.1-1.7,1-1.8
			c0.8-0.1,1.3,0.4,1.3,1.2C155.7,45.3,155.7,45.9,155.7,46.7z"/>
		<path class="st2" d="M148.8,46.5c0.4-1.1-0.7-2.9,1.2-2.9c2.1,0,1.2,1.9,1.2,3c0,0.9,1.1,2.9-1.4,2.6
			C147.9,48.9,149.4,47.3,148.8,46.5z"/>
		<path class="st2" d="M162.1,46.5c0.4-1.1-0.7-2.9,1.2-3c2.1-0.1,1.3,1.9,1.2,2.9c0,0.9,1,2.5-0.9,2.6
			C161,49.4,162.7,47.3,162.1,46.5z"/>
		<path class="st2" d="M169,46.8c-0.4,0.7,0.9,2.9-1.4,2.3c-2.2-0.6-0.6-2.6-0.9-4c-0.2-0.8,0.1-1.6,1.2-1.6c0.7,0,1.1,0.4,1.1,1.1
			C169,45.3,169,45.9,169,46.8z"/>
		<path class="st2" d="M174.6,27.9c-0.8,0.8-4.9,1.2-5.6,0.5c-0.2-0.2-0.2-0.4-0.3-0.7c1.4,0,1-1.3,1.2-1.9c0.2-0.8,0-1.7,0.6-2.3
			c0.3,0.6,0.5,1.2,0.5,2c-0.1,2.3,1,2.9,3.3,2C174.6,27.4,174.8,27.5,174.6,27.9z"/>
		<path class="st2" d="M155.7,39.8c-0.1,0.8,0.5,1.9-1.2,1.9c-1.8,0-1.1-1.2-1.2-2c0-0.9-0.4-2.3,1.1-2.3
			C156,37.3,155.6,38.8,155.7,39.8z"/>
		<path class="st2" d="M160.2,39.8c-0.1,0.8,0.5,1.9-1.2,1.9c-1.8,0-1.1-1.2-1.2-2.1c-0.1-1-0.3-2.3,1.2-2.3
			C160.6,37.4,160,38.8,160.2,39.8z"/>
		<path class="st2" d="M166.6,39.7c0-1.2-0.2-2.3,1.1-2.4c1.5-0.1,1.3,1.2,1.3,2.2c0,1.1,0.4,2.4-1.5,2.1
			C165.7,41.4,167.2,40.1,166.6,39.7z"/>
		<path class="st2" d="M164.5,39.7c-0.1,0.9,0.5,2-1.3,2c-1.7,0-1.1-1.2-1.1-1.9c0-1-0.4-2.4,1.2-2.4
			C164.9,37.4,164.5,38.7,164.5,39.7z"/>
		<path class="st2" d="M151.3,39.7c-0.1,0.9,0.4,1.9-1.2,1.9c-1.9,0-1.1-1.3-1.1-2.1c-0.1-0.9-0.3-2.3,1.2-2.2
			C151.7,37.4,151.1,38.9,151.3,39.7z"/>
		<path class="st2" d="M179.5,13c0-0.2,0.1-0.4,0.1-0.5c1.1-0.6,1.3-0.5,1.4,0.6c0.2,1.6-0.2,2.2-2,2c-2.2-0.2-4.5,0-6.8-0.1
			c-0.4,0-1,0-0.8-0.6c0.3-0.9-0.2-2.1,0.7-2.7c0.4-0.3,0.4,0.7,0.9,0.8c0,0.1,0,0.2,0,0.3c0,0.1,0,0.1,0,0.2
			C174,14.6,178.4,14.5,179.5,13z"/>
		<path class="st2" d="M175.3,16.6c0.7-0.9,1.5-0.8,2.2,0c0.3,1,0.1,2,0.1,3c0,0.8-0.5,1-1.2,1c-0.7,0-1.2-0.3-1.2-1
			C175.3,18.6,175.1,17.6,175.3,16.6z"/>
		<path class="st2" d="M175.3,16.6c0,0.9,0,1.7,0,2.6c-0.1,0.8,0.3,1.2,1.1,1.2c0.9,0,1.2-0.3,1.1-1.2c-0.1-0.9,0-1.7,0-2.6
			c0.1,0.1,0.3,0.2,0.2,0.3c-0.3,2.5,0.5,4.1,3.3,4.2c-3.2,0.3-6.4,0.2-9.5,0.1c0.3-0.8,1-0.6,1.5-0.5c1.6,0.2,2.1-0.5,1.9-2
			C174.9,18,174.7,17.2,175.3,16.6z"/>
		<path class="st2" d="M177.8,23.9c-0.2,0.8-0.6,1.3-1.5,1.3c-0.8,0-1.2-0.5-1.3-1.2c0-0.9,0.5-1.4,1.3-1.4
			C177.2,22.5,177.7,23.1,177.8,23.9z"/>
		<path class="st2" d="M171.5,21.2c3.2,0,6.4-0.1,9.5-0.1c-0.6,0.9-1.6,0.4-2.3,0.4C176.3,21.3,173.9,21.9,171.5,21.2z"/>
		<path class="st2" d="M174.6,27.9c-0.1-0.1-0.2-0.3-0.4-0.4c1.1-1.4,2.2-2.1,3.7-0.5c-0.2,0.1-0.3,0.3-0.5,0.4
			C176.4,26.8,175.5,27.4,174.6,27.9z"/>
		<path class="st2" d="M182.7,25.9c-0.3,0-0.5,0-0.8,0c0-0.2,0-0.4-0.1-0.6c-0.3-0.5-0.1-0.9,0.2-1.2c0.2-0.2,0.5-0.3,0.7,0
			c0.3,0.4,0.4,0.8,0.2,1.3C182.7,25.5,182.7,25.7,182.7,25.9z"/>
		<path class="st3" d="M132.6,50.8c-0.9-0.2-1.8-0.3-2.7-0.5c-0.6-0.2-1.2-0.5-1-1.3c0.2-0.7,0.6-1.3,1.4-1.2
			c1.7,0.2,3.3,0.4,4.9,0.7c0.5,0.1,0.9,0.3,1,0.9c0.1,0.7-0.5,0.9-1,1C134.4,50.6,133.5,50.6,132.6,50.8z"/>
		<path class="st4" d="M116.2,38c-0.7-0.5-2,0.6-2-0.8c0-1.1,1-1.6,2.2-1.6c1.2,0,2.1,0.7,2,1.8C118.2,38.5,116.9,37.5,116.2,38z"/>
		<path class="st2" d="M179.5,13c0.9,0.6,0.6,1.3-0.2,1.3c-2,0.2-4.1,0.2-6.1,0.1c-0.8-0.1-1.1-0.8-0.1-1.4c0.1,0,0.1,0.1,0.2,0
			C175.3,12.4,177.4,12,179.5,13z"/>
	</g>
	<text transform="matrix(1 0 0 1 16.4687 65.8161)" class="st5 st6 st7 st8">legislación municipal on-line </text>
</g>
<g id="julio_carpio" class="st0">
	<g class="st1">
		<path class="st2" d="M53.8,61.1c-5.3,0-9.4-1.3-12.2-4c-3.8-3.6-3.8-8.3-3.8-9V18.3h15.9v4H42.4v25.8l0,0.1c0,0-0.1,3.6,2.6,6.1
			c1.9,1.8,4.9,2.7,8.9,2.7V61.1z"/>
	</g>
	<g class="st1">
		<path class="st2" d="M17.4,61.1c5.3,0,9.4-1.3,12.2-4c3.8-3.6,3.8-8.3,3.8-9V18.3H17.4v4h11.4v25.8l0,0.1c0,0,0.1,3.6-2.6,6.1
			c-1.9,1.8-4.9,2.7-8.9,2.7V61.1z"/>
	</g>
	<path class="st5" d="M69.1,40.5c0,0.4-0.1,0.9-0.2,1.3c-0.1,0.4-0.3,0.8-0.6,1.1c-0.3,0.3-0.6,0.6-1.1,0.8s-1,0.3-1.7,0.3
		c-0.9,0-1.6-0.2-2.2-0.7c-0.6-0.5-1-1.1-1.1-2l1.5-0.3c0.1,0.5,0.3,0.9,0.6,1.2c0.3,0.3,0.7,0.4,1.3,0.4c0.4,0,0.8-0.1,1.1-0.2
		c0.3-0.2,0.5-0.4,0.6-0.6c0.1-0.2,0.3-0.5,0.3-0.9c0.1-0.3,0.1-0.7,0.1-1v-8.8h1.5V40.5z"/>
	<path class="st5" d="M82.3,39c0,0.7-0.1,1.3-0.3,2c-0.2,0.6-0.4,1.2-0.8,1.6c-0.4,0.5-0.9,0.8-1.5,1.1c-0.6,0.3-1.3,0.4-2.2,0.4
		c-0.9,0-1.6-0.1-2.2-0.4c-0.6-0.3-1.1-0.7-1.5-1.1c-0.4-0.5-0.6-1-0.8-1.6c-0.2-0.6-0.3-1.3-0.3-2v-7.8h1.5v7.6
		c0,0.5,0.1,1,0.2,1.5c0.1,0.5,0.3,0.9,0.5,1.3c0.2,0.4,0.6,0.7,1,0.9c0.4,0.2,0.9,0.3,1.6,0.3c0.6,0,1.2-0.1,1.6-0.3
		c0.4-0.2,0.7-0.5,1-0.9c0.2-0.4,0.4-0.8,0.5-1.3c0.1-0.5,0.2-1,0.2-1.5v-7.6h1.5V39z"/>
	<path class="st5" d="M86,31.2h1.5v11.2h5.8v1.4H86V31.2z"/>
	<path class="st5" d="M95.5,31.2H97v12.6h-1.5V31.2z"/>
	<path class="st5" d="M106.6,44.1c-1,0-1.8-0.2-2.6-0.5c-0.8-0.3-1.5-0.8-2.1-1.4c-0.6-0.6-1-1.3-1.4-2.1c-0.3-0.8-0.5-1.7-0.5-2.6
		c0-0.9,0.2-1.8,0.5-2.6c0.3-0.8,0.8-1.5,1.4-2.1c0.6-0.6,1.3-1,2.1-1.4c0.8-0.3,1.7-0.5,2.6-0.5c1,0,1.8,0.2,2.6,0.5
		c0.8,0.3,1.5,0.8,2.1,1.4c0.6,0.6,1,1.3,1.4,2.1c0.3,0.8,0.5,1.7,0.5,2.6c0,0.9-0.2,1.8-0.5,2.6c-0.3,0.8-0.8,1.5-1.4,2.1
		c-0.6,0.6-1.3,1-2.1,1.4C108.5,43.9,107.6,44.1,106.6,44.1z M106.6,42.7c0.7,0,1.4-0.1,2-0.4c0.6-0.3,1.1-0.6,1.6-1.1
		c0.4-0.5,0.8-1,1-1.7c0.2-0.6,0.4-1.3,0.4-2c0-0.7-0.1-1.4-0.4-2c-0.2-0.6-0.6-1.2-1-1.7c-0.4-0.5-1-0.8-1.6-1.1
		c-0.6-0.3-1.3-0.4-2-0.4c-0.7,0-1.4,0.1-2,0.4c-0.6,0.3-1.1,0.6-1.6,1.1c-0.4,0.5-0.8,1-1,1.7c-0.2,0.6-0.4,1.3-0.4,2
		c0,0.7,0.1,1.4,0.4,2c0.2,0.6,0.6,1.2,1,1.7c0.4,0.5,1,0.8,1.6,1.1C105.2,42.6,105.9,42.7,106.6,42.7z"/>
	<path class="st5" d="M130.6,33.8c-0.4-0.5-0.8-0.9-1.4-1.1c-0.6-0.3-1.1-0.4-1.7-0.4c-0.7,0-1.3,0.1-1.9,0.4
		c-0.6,0.3-1.1,0.7-1.5,1.1c-0.4,0.5-0.8,1-1,1.7c-0.2,0.6-0.4,1.3-0.4,2c0,0.7,0.1,1.4,0.4,2.1c0.2,0.6,0.6,1.2,1,1.7
		c0.4,0.5,0.9,0.8,1.5,1.1c0.6,0.3,1.2,0.4,1.9,0.4c0.8,0,1.5-0.2,2.1-0.5c0.6-0.3,1.1-0.7,1.6-1.3l1.1,0.9
		c-0.6,0.8-1.3,1.3-2.1,1.7s-1.7,0.5-2.7,0.5c-0.9,0-1.7-0.2-2.5-0.5c-0.8-0.3-1.5-0.8-2-1.4c-0.6-0.6-1-1.3-1.4-2.1
		c-0.3-0.8-0.5-1.7-0.5-2.7c0-0.9,0.2-1.8,0.5-2.6c0.3-0.8,0.8-1.5,1.3-2.1c0.6-0.6,1.2-1.1,2-1.4c0.8-0.3,1.6-0.5,2.6-0.5
		c0.9,0,1.7,0.2,2.5,0.5c0.8,0.3,1.5,0.8,2,1.5L130.6,33.8z"/>
	<path class="st5" d="M139.1,31.2h1.4l5.4,12.6h-1.7l-1.3-3.1h-6.3l-1.3,3.1h-1.7L139.1,31.2z M139.7,33.1L139.7,33.1l-2.7,6.2h5.1
		L139.7,33.1z"/>
	<path class="st5" d="M148.1,31.2h3.2c0.6,0,1.2,0,1.8,0.1c0.6,0.1,1.1,0.2,1.6,0.5c0.5,0.2,0.9,0.6,1.2,1c0.3,0.5,0.4,1.1,0.4,1.9
		c0,0.9-0.3,1.7-0.8,2.2c-0.6,0.6-1.3,0.9-2.3,1.1l3.6,5.8H155l-3.4-5.7h-1.9v5.7h-1.5V31.2z M149.6,36.7h1.3c0.4,0,0.8,0,1.3,0
		c0.4,0,0.9-0.1,1.2-0.2c0.4-0.1,0.7-0.3,0.9-0.6c0.2-0.3,0.4-0.7,0.4-1.2c0-0.5-0.1-0.8-0.3-1.1c-0.2-0.3-0.4-0.5-0.7-0.6
		c-0.3-0.1-0.6-0.2-1-0.3c-0.4,0-0.7-0.1-1.1-0.1h-2.1V36.7z"/>
	<path class="st5" d="M159.6,31.2h3.7c0.6,0,1.1,0.1,1.7,0.2c0.5,0.1,1,0.3,1.4,0.6c0.4,0.3,0.7,0.6,1,1.1c0.2,0.4,0.4,1,0.4,1.6
		c0,0.7-0.1,1.3-0.4,1.7c-0.3,0.5-0.6,0.8-1,1.1c-0.4,0.3-0.9,0.4-1.3,0.6c-0.5,0.1-0.9,0.2-1.4,0.2h-2.5v5.7h-1.5V31.2z
		 M161.1,36.7h2.5c0.7,0,1.4-0.2,1.8-0.5c0.5-0.3,0.7-0.9,0.7-1.6c0-0.7-0.2-1.2-0.7-1.6c-0.5-0.3-1.1-0.5-1.8-0.5h-2.5V36.7z"/>
	<path class="st5" d="M170.8,31.2h1.5v12.6h-1.5V31.2z"/>
	<path class="st5" d="M181.9,44.1c-1,0-1.8-0.2-2.6-0.5c-0.8-0.3-1.5-0.8-2.1-1.4c-0.6-0.6-1-1.3-1.4-2.1c-0.3-0.8-0.5-1.7-0.5-2.6
		c0-0.9,0.2-1.8,0.5-2.6c0.3-0.8,0.8-1.5,1.4-2.1c0.6-0.6,1.3-1,2.1-1.4c0.8-0.3,1.7-0.5,2.6-0.5c1,0,1.8,0.2,2.6,0.5
		c0.8,0.3,1.5,0.8,2.1,1.4c0.6,0.6,1,1.3,1.4,2.1c0.3,0.8,0.5,1.7,0.5,2.6c0,0.9-0.2,1.8-0.5,2.6c-0.3,0.8-0.8,1.5-1.4,2.1
		c-0.6,0.6-1.3,1-2.1,1.4C183.8,43.9,182.9,44.1,181.9,44.1z M181.9,42.7c0.7,0,1.4-0.1,2-0.4c0.6-0.3,1.1-0.6,1.6-1.1
		c0.4-0.5,0.8-1,1-1.7c0.2-0.6,0.4-1.3,0.4-2c0-0.7-0.1-1.4-0.4-2c-0.2-0.6-0.6-1.2-1-1.7c-0.4-0.5-1-0.8-1.6-1.1
		c-0.6-0.3-1.3-0.4-2-0.4s-1.4,0.1-2,0.4c-0.6,0.3-1.1,0.6-1.6,1.1c-0.4,0.5-0.8,1-1,1.7c-0.2,0.6-0.4,1.3-0.4,2
		c0,0.7,0.1,1.4,0.4,2c0.2,0.6,0.6,1.2,1,1.7c0.4,0.5,1,0.8,1.6,1.1C180.5,42.6,181.2,42.7,181.9,42.7z"/>
	<path class="st5" d="M189.9,30.8c0-0.2,0-0.4,0.1-0.5c0.1-0.2,0.2-0.3,0.3-0.4c0.1-0.1,0.3-0.2,0.4-0.3c0.2-0.1,0.3-0.1,0.5-0.1
		s0.4,0,0.5,0.1c0.2,0.1,0.3,0.2,0.4,0.3c0.1,0.1,0.2,0.3,0.3,0.4c0.1,0.2,0.1,0.3,0.1,0.5c0,0.2,0,0.4-0.1,0.5
		c-0.1,0.2-0.2,0.3-0.3,0.4c-0.1,0.1-0.3,0.2-0.4,0.3c-0.2,0.1-0.3,0.1-0.5,0.1s-0.4,0-0.5-0.1c-0.2-0.1-0.3-0.2-0.4-0.3
		c-0.1-0.1-0.2-0.3-0.3-0.4C189.9,31.2,189.9,31,189.9,30.8z M190.1,30.8c0,0.2,0,0.3,0.1,0.5c0.1,0.1,0.1,0.3,0.3,0.4
		c0.1,0.1,0.2,0.2,0.4,0.3s0.3,0.1,0.5,0.1c0.2,0,0.3,0,0.5-0.1s0.3-0.1,0.4-0.3c0.1-0.1,0.2-0.2,0.3-0.4c0.1-0.1,0.1-0.3,0.1-0.5
		s0-0.3-0.1-0.5c-0.1-0.1-0.1-0.3-0.3-0.4c-0.1-0.1-0.2-0.2-0.4-0.3c-0.1-0.1-0.3-0.1-0.5-0.1c-0.2,0-0.3,0-0.5,0.1
		c-0.1,0.1-0.3,0.1-0.4,0.3c-0.1,0.1-0.2,0.2-0.3,0.4C190.1,30.5,190.1,30.6,190.1,30.8z M191,31.6h-0.2V30h0.6c0.2,0,0.3,0,0.4,0.1
		c0.1,0.1,0.1,0.2,0.1,0.3c0,0.1,0,0.1,0,0.2c0,0.1,0,0.1-0.1,0.1c0,0-0.1,0.1-0.1,0.1c0,0-0.1,0-0.2,0l0.5,0.7h-0.2l-0.5-0.7H191
		V31.6z M191,30.7h0.3c0.1,0,0.1,0,0.2,0c0.1,0,0.1,0,0.1,0c0,0,0.1,0,0.1-0.1c0,0,0-0.1,0-0.2c0-0.1,0-0.1,0-0.1c0,0,0-0.1-0.1-0.1
		s-0.1,0-0.1,0c0,0-0.1,0-0.1,0H191V30.7z"/>
</g>
<g id="nouxs">
	<g>
		<g>
			<path class="st2" d="M62.6,36.9c0,6.7,0,13.5,0,20.2c-2,0-4,0-5.9,0c0-15.9,0-31.9,0-47.8c0.1,0,0.2,0,0.3,0c1.8,0,3.6,0,5.3,0
				c0.2,0,0.3,0,0.4,0.3c1,5.8,2.1,11.7,3.1,17.5c0.2,1.3,0.5,2.5,0.7,3.8c0,0.1,0,0.1,0.1,0.2c0-7.2,0-14.5,0-21.8c2,0,4,0,6,0
				c0,15.9,0,31.9,0,47.8c-0.1,0-0.2,0-0.3,0c-1.8,0-3.6,0-5.4,0c-0.2,0-0.3-0.1-0.3-0.3c-0.7-3.8-1.4-7.5-2.2-11.3
				c-0.5-2.8-1.1-5.7-1.6-8.5C62.7,37,62.7,36.9,62.6,36.9C62.6,36.8,62.6,36.8,62.6,36.9z"/>
			<path class="st2" d="M74.4,33.2c0-5.5,0-11,0-16.6c0-3.3,1.5-5.7,4.3-7.3C81.5,7.8,86.1,8,89,11.8c1.1,1.4,1.5,3.1,1.5,4.9
				c0,7.2,0,14.3,0,21.5c0,3.9,0,7.8,0,11.7c0,4.2-3.1,7-5.7,7.8c-4.6,1.4-9.3-1.4-10.3-6c-0.1-0.6-0.2-1.3-0.2-2
				C74.4,44.1,74.4,38.7,74.4,33.2z M84.4,33.2c0-5.7,0-11.4,0-17.1c0-0.1,0-0.3,0-0.4c-0.1-0.8-0.5-1.4-1.3-1.7
				c-0.7-0.3-1.4-0.2-2,0.4c-0.5,0.5-0.7,1-0.7,1.7c0,11.4,0,22.9,0,34.3c0,0.1,0,0.2,0,0.3c0.1,1.3,1.3,2.1,2.5,1.8
				c0.9-0.2,1.5-1,1.5-2C84.4,44.7,84.4,39,84.4,33.2z"/>
			<path class="st2" d="M102.4,9.3c2,0,4,0,6.1,0c0,0.1,0,0.2,0,0.3c0,13.4,0,26.8,0,40.2c0,4.3-3.2,7.2-6.1,7.9
				c-4.3,1-8.7-1.6-9.8-5.8c-0.2-0.6-0.2-1.3-0.2-1.9c0-6.4,0-12.8,0-19.3c0-7,0-14,0-21c0-0.1,0-0.3,0-0.4c2,0,4,0,6,0
				c0,0.2,0,0.3,0,0.4c0,13.5,0,27.1,0,40.6c0,0.7,0.2,1.3,0.8,1.8c0.6,0.5,1.4,0.6,2.1,0.3c0.7-0.3,1.1-0.9,1.1-1.7
				c0-0.2,0-0.4,0-0.6c0-13.5,0-26.9,0-40.4C102.4,9.6,102.4,9.4,102.4,9.3z"/>
			<path class="st2" d="M118.9,20.5c0.1-0.2,0.1-0.2,0.1-0.3c0.4-1.6,0.8-3.3,1.2-4.9c0.5-1.9,0.9-3.8,1.4-5.7
				c0-0.2,0.1-0.3,0.3-0.3c1.8,0,3.6,0,5.5,0c0,0,0.1,0,0.2,0c-0.1,0.5-0.2,0.9-0.3,1.4c-0.6,2.6-1.2,5.3-1.9,7.9
				c-0.6,2.3-1.1,4.7-1.7,7c-0.4,1.9-0.9,3.8-1.3,5.7c-0.1,0.3-0.1,0.5-0.2,0.8c-0.3,0.7-0.2,1.5,0,2.2c0.7,2.7,1.3,5.5,1.9,8.2
				c0.6,2.7,1.3,5.5,2,8.2c0.5,2,0.9,4,1.4,6c0,0.1,0,0.2,0,0.3c-0.1,0-0.2,0-0.3,0c-1.7,0-3.5,0-5.2,0c-0.3,0-0.3-0.1-0.4-0.3
				c-0.7-3.2-1.5-6.3-2.2-9.5c-0.1-0.4-0.2-0.8-0.3-1.2c0-0.1-0.1-0.2-0.2-0.3c-0.1,0.4-0.2,0.9-0.3,1.3c-0.7,3.2-1.5,6.4-2.2,9.5
				c-0.1,0.3-0.2,0.4-0.5,0.4c-1.7,0-3.4,0-5.1,0c-0.3,0-0.4,0-0.3-0.3c0.5-2.1,1-4.2,1.5-6.3c0.6-2.6,1.2-5.1,1.8-7.7
				c0.7-2.8,1.3-5.5,2-8.3c0.1-0.3,0.1-0.6,0.2-0.9c0.1-0.4,0-0.8-0.1-1.2c-0.6-2.4-1.1-4.8-1.7-7.2c-0.5-2.3-1.1-4.6-1.6-6.9
				c-0.7-2.9-1.4-5.8-2.1-8.7c-0.1-0.3,0-0.3,0.3-0.3c1.8,0,3.5,0,5.3,0c0.2,0,0.3,0,0.4,0.2c0.5,2.3,1.1,4.6,1.6,7
				c0.3,1.3,0.6,2.5,0.9,3.8C118.8,20.4,118.8,20.4,118.9,20.5z"/>
			<path class="st2" d="M144.8,44.1c0,2.2,0,4.4,0,6.6c0,0.8-0.2,1.7-0.3,2.5c-0.1,0.8-0.6,1.5-1.1,2.1c-0.6,0.9-1.5,1.5-2.5,2
				c-0.8,0.4-1.6,0.5-2.4,0.5c-1.3,0-2.7,0-4-0.1c-1-0.1-2-0.3-2.8-1c-0.3-0.3-0.8-0.5-1.1-0.9c-1.3-1.4-1.9-3.1-2-4.9
				c-0.1-2.5,0-4.9,0-7.4c0-0.2,0-0.4,0.1-0.6c0.1-0.3,0.4-0.5,0.7-0.2c0.1,0.1,0.2,0.2,0.3,0.3c0.8,1,1.9,1.8,3.1,2.3
				c0.5,0.2,0.6,0.4,0.6,0.9c0,1.2,0,2.5,0,3.7c0,0.4,0,0.9,0.1,1.3c0.1,0.6,0.5,1,1.2,1c0.5,0,0.9,0,1.4,0c0.8,0,1.5,0,2.3,0
				c1,0,1.5-0.6,1.6-1.6c0-0.4,0-0.7,0-1.1c0-3.8,0-7.6,0-11.4c0-0.3,0-0.6-0.1-1c0-0.6-0.3-1-0.7-1.3c-0.1-0.1-0.2-0.1-0.3-0.1
				c-1.3,0-2.5,0-3.8-0.1c-1.5-0.1-2.9-0.5-4.1-1.6c-1.2-1.1-2-2.5-2.2-4.2c-0.1-0.7-0.1-1.3-0.1-2c0-4.2,0-8.3,0-12.5
				c0-1.4,0.3-2.7,1-3.9c0.5-0.9,1.2-1.7,2.1-2.2c0.9-0.5,1.8-0.9,2.8-0.9c1.5,0,3,0,4.4,0c0.5,0,1,0.2,1.4,0.4
				c1.3,0.6,2.4,1.4,3.1,2.6c0.6,1.1,1,2.2,1.1,3.4c0,0.2,0,0.5,0,0.8c0,2.3,0,4.6,0,7c0,0.1,0,0.2,0,0.3c-0.1,0.2-0.2,0.4-0.3,0.4
				c-0.1,0-0.4-0.1-0.5-0.2c-0.6-0.8-1.5-1.4-2.4-1.9c-0.3-0.2-0.6-0.3-1-0.4c-0.4-0.2-0.5-0.3-0.5-0.7c0-0.9,0-1.8,0-2.7
				c0-0.6,0-1.3-0.1-1.9c-0.1-1-0.6-1.5-1.7-1.5c-1.2,0-2.4,0-3.5,0.1c-0.8,0-1.1,0.4-1.3,1.2c-0.1,0.6-0.1,1.2-0.1,1.8
				c0,0.4,0,0.9,0,1.3c0,2.8,0,5.7,0,8.5c0,0.8,0,1.6,0.1,2.3c0,0.5,0.7,1.1,1.1,1.1c1.4,0,2.8,0,4.2,0c1.6,0.1,2.9,0.7,3.9,1.8
				c1.3,1.4,2,3.1,2,5C144.8,39.4,144.8,41.8,144.8,44.1C144.8,44.1,144.8,44.1,144.8,44.1z"/>
			<path class="st2" d="M79.5,62.8c0.3-0.4,0.6-0.6,1.1-0.5c0.5,0.1,0.7,0.5,0.7,1.1c0,1.6,0,3.2,0,4.8c0,0.2-0.1,0.3-0.3,0.3
				c-0.9,0-0.7,0.1-0.7-0.7c0-1.4,0-2.8,0-4.2c0-0.2-0.1-0.4-0.3-0.4c-0.1,0-0.3,0.1-0.4,0.2c-0.1,0.1-0.1,0.2-0.1,0.4
				c0,1.5,0,2.9,0,4.4c0,0.3-0.1,0.4-0.4,0.4c-0.7,0-0.6,0.1-0.6-0.6c0-1.3,0-2.7,0-4c0-0.1,0-0.2,0-0.3c0-0.2-0.1-0.4-0.4-0.4
				c-0.2,0-0.3,0.2-0.4,0.4c0,0.1,0,0.2,0,0.3c0,1.4,0,2.8,0,4.2c0,0.3-0.1,0.4-0.4,0.4c-0.1,0-0.1,0-0.2,0c-0.2,0-0.3-0.1-0.3-0.3
				c0-1.1,0-2.1,0-3.2c0-0.7,0-1.5,0-2.2c0-0.2,0.1-0.4,0.3-0.3c0.2,0,0.4,0.1,0.6,0.1c0,0,0.1,0,0.1,0C78.7,62.1,79,62.2,79.5,62.8
				z"/>
			<path class="st2" d="M131,62.3c0-0.3,0-0.6,0-1c0-0.1,0-0.3,0-0.4c0-0.7-0.1-0.6,0.6-0.6c0.3,0,0.3,0.1,0.3,0.3
				c0,1.4,0,2.8,0,4.2c0,0.8,0,1.5,0,2.3c0,0.8-0.6,1.4-1.3,1.4c-0.7,0-1.3-0.6-1.3-1.3c0-1.1,0-2.3,0-3.4
				C129.3,62.7,129.9,62.2,131,62.3z M131,65.4c0-0.6,0-1.2,0-1.8c0-0.3-0.1-0.4-0.4-0.5c-0.3,0-0.4,0.2-0.4,0.4c0,1.2,0,2.5,0,3.7
				c0,0.3,0.1,0.4,0.4,0.4c0.3,0,0.4-0.2,0.4-0.4C131,66.6,131,66,131,65.4z"/>
			<path class="st2" d="M137.1,62.3c0-0.5,0-0.9,0-1.3c0-0.6,0.2-0.7,0.8-0.6c0.1,0,0.1,0.2,0.1,0.3c0,0.8,0,1.6,0,2.4
				c0,1.4,0,2.8,0,4.1c0,0.8-0.6,1.4-1.3,1.4c-0.7,0-1.3-0.6-1.3-1.4c0-1.1,0-2.2,0-3.3C135.3,63,135.9,62.1,137.1,62.3z
				 M137.1,65.4C137.1,65.4,137.1,65.4,137.1,65.4c0-0.6,0-1.3,0-1.9c0-0.3-0.1-0.4-0.4-0.5c-0.3,0-0.4,0.2-0.4,0.4
				c0,1.2,0,2.5,0,3.7c0,0.3,0.1,0.4,0.4,0.4c0.3,0,0.4-0.2,0.4-0.5C137.1,66.7,137.1,66,137.1,65.4z"/>
			<path class="st2" d="M92.5,64c0,1,0,2.1,0,3.1c0,0.8-0.6,1.4-1.3,1.4c-0.7,0-1.3-0.6-1.4-1.4c0-1.2,0-2.4,0-3.6
				c0-0.9,0.7-1.4,1.5-1.3c0.2,0,0.2-0.1,0.2-0.2c0-0.5,0-0.9,0-1.4c0-0.2,0.1-0.3,0.3-0.3c0.7,0,0.6-0.1,0.6,0.6
				C92.5,62,92.5,63,92.5,64z M90.8,65.4c0,0.6,0,1.2,0,1.8c0,0.3,0.2,0.5,0.4,0.5c0.3,0,0.4-0.2,0.4-0.5c0-1.2,0-2.4,0-3.7
				c0-0.3-0.1-0.5-0.4-0.5c-0.2,0-0.4,0.2-0.4,0.5C90.8,64.2,90.8,64.8,90.8,65.4z"/>
			<path class="st2" d="M56.6,64.4c0-1,0-1.9,0-2.9c0-0.6,0.5-1.2,1.1-1.2c0.7-0.1,1.3,0.3,1.5,1c0,0.2,0.1,0.4,0.1,0.6
				c0,0.4,0,0.9,0,1.3c0,0.2-0.1,0.3-0.3,0.3c-0.9,0-0.7,0.1-0.7-0.7c0-0.4,0-0.8,0-1.2c0-0.2-0.1-0.4-0.4-0.4
				c-0.3,0-0.4,0.2-0.4,0.4c0,0.1,0,0.3,0,0.4c0,1.7,0,3.4,0,5c0,0.1,0,0.2,0,0.3c0,0.2,0.1,0.4,0.4,0.4c0.3,0,0.4-0.2,0.4-0.4
				c0-0.5,0-1,0-1.5c0-0.3,0.1-0.4,0.4-0.4c0.6,0,0.6,0,0.6,0.6c0,0.5,0,1-0.1,1.5c-0.1,0.7-0.7,1.1-1.3,1c-0.8-0.1-1.2-0.6-1.3-1.3
				C56.6,66.3,56.6,65.3,56.6,64.4C56.6,64.4,56.6,64.4,56.6,64.4z"/>
			<path class="st2" d="M76.5,68.4c-0.5,0-1,0.1-1.5,0.1c-0.6-0.1-1-0.5-1.1-1.1c0-0.4,0-0.8,0-1.2c0-0.4,0.2-0.7,0.5-0.9
				c0.3-0.2,0.6-0.4,1-0.6c0.1-0.1,0.2-0.2,0.2-0.3c0-0.3,0-0.5,0-0.8c0-0.2-0.1-0.4-0.4-0.4c-0.2,0-0.4,0.1-0.4,0.4
				c0,0.3,0,0.6,0,0.9c0,0.2-0.1,0.2-0.2,0.2c-0.7,0-0.7,0-0.7-0.7c0-0.6,0.1-1.1,0.6-1.4c0.4-0.3,0.9-0.3,1.3,0
				c0.4,0.2,0.7,0.6,0.7,1.1c0,1.5,0,3,0,4.6C76.5,68.2,76.5,68.3,76.5,68.4z M75.5,65.6c-0.4,0.1-0.6,0.3-0.7,0.6
				c-0.1,0.4-0.1,0.8,0,1.2c0,0.1,0.2,0.3,0.4,0.2c0.1,0,0.3-0.2,0.3-0.3C75.5,66.8,75.5,66.2,75.5,65.6z"/>
			<path class="st2" d="M109.9,62.5c0.1-0.1,0.3-0.1,0.4-0.2c0.6-0.2,1,0.1,1.1,0.7c0,0.2,0.1,0.4,0.1,0.6c0,1.5,0,3,0,4.5
				c0,0.2-0.1,0.3-0.3,0.3c-0.6,0-0.6,0-0.6-0.6c0-1.4,0-2.8,0-4.2c0-0.1,0-0.2,0-0.2c-0.1-0.1-0.2-0.3-0.3-0.3
				c-0.1,0-0.3,0.2-0.4,0.3c0,0.1,0,0.2,0,0.3c0,1.4,0,2.9,0,4.3c0,0.3-0.1,0.4-0.4,0.4c-0.7,0-0.6,0.1-0.6-0.6c0-1.7,0-3.4,0-5
				c0-0.3,0.1-0.4,0.4-0.4C109.5,62.4,109.7,62.4,109.9,62.5C109.9,62.5,109.9,62.5,109.9,62.5z"/>
			<path class="st2" d="M135,66c0,0.7,0,1.4,0,2.2c0,0.2-0.1,0.3-0.3,0.3c-0.3,0-0.6,0-0.8,0.1c-0.7,0.1-1.5-0.4-1.5-1.2
				c0-0.3,0-0.6,0-0.9c0-0.6,0.2-1,0.7-1.3c0.3-0.2,0.6-0.3,0.8-0.5c0.1-0.1,0.2-0.2,0.2-0.3c0-0.2,0-0.4,0-0.6
				c0-0.3-0.2-0.5-0.4-0.5c-0.2,0-0.4,0.2-0.4,0.5c0,0.2,0,0.5,0,0.7c0,0.2-0.1,0.3-0.3,0.3c-0.8,0-0.6,0.1-0.6-0.6
				c0-0.4,0-0.8,0.2-1.2c0.3-0.4,0.9-0.6,1.3-0.5c0.6,0.1,1,0.6,1.1,1.1C135,64.3,135,65.1,135,66C135,66,135,66,135,66z M134,65.6
				c-0.1,0-0.2,0-0.2,0.1c-0.5,0.3-0.8,1.3-0.5,1.8c0.1,0.1,0.3,0.2,0.4,0.2c0.1,0,0.3-0.2,0.3-0.4C134.1,66.8,134,66.2,134,65.6z"
				/>
			<path class="st2" d="M121.9,65.4c0-0.6,0-1.2,0-1.8c0-0.8,0.6-1.4,1.3-1.4c0.7,0,1.3,0.6,1.3,1.4c0,0.6,0,1.1,0,1.7
				c0,0.2-0.1,0.3-0.3,0.3c-0.4,0-0.8,0-1.2,0c-0.2,0-0.3,0.1-0.3,0.3c0,0.5,0,0.9,0,1.4c0,0.2,0.1,0.4,0.4,0.4
				c0.2,0,0.4-0.2,0.4-0.4c0-0.3,0-0.6,0-0.9c0-0.1,0.1-0.2,0.2-0.2c0.7-0.1,0.7-0.1,0.7,0.7c0,0.3,0,0.7-0.1,0.9
				c-0.2,0.6-0.9,0.9-1.5,0.7c-0.5-0.1-1-0.7-1-1.2C121.9,66.6,121.9,66,121.9,65.4C121.9,65.4,121.9,65.4,121.9,65.4z M122.8,64
				C122.8,64,122.8,64,122.8,64c0,0.1,0,0.2,0,0.3c0,0.4,0.3,0.6,0.6,0.4c0.1,0,0.1-0.1,0.1-0.2c0-0.4,0-0.7,0-1.1
				c0-0.1-0.2-0.3-0.3-0.3c-0.2,0-0.4,0.1-0.4,0.3C122.8,63.6,122.8,63.8,122.8,64z"/>
			<path class="st2" d="M118.4,64.5c0,0.3,0,0.6,0,0.9c0,0.2-0.1,0.3-0.3,0.3c-0.4,0-0.8,0-1.2,0c-0.2,0-0.3,0.1-0.3,0.3
				c0,0.5,0,0.9,0,1.4c0,0.3,0.1,0.4,0.4,0.4c0.2,0,0.4-0.2,0.4-0.4c0-0.3,0-0.6,0-0.9c0-0.1,0.1-0.2,0.2-0.2
				c0.7-0.1,0.7-0.1,0.7,0.7c0,0.5,0,1-0.5,1.4c-0.4,0.3-0.8,0.4-1.3,0.2c-0.5-0.2-0.8-0.6-0.8-1.2c0-1.2,0-2.4,0-3.6
				c0-0.8,0.6-1.4,1.3-1.4c0.7,0,1.3,0.6,1.4,1.3C118.5,63.9,118.4,64.2,118.4,64.5z M117.5,64C117.5,64,117.5,64,117.5,64
				c0-0.2,0-0.4,0-0.5c0-0.2-0.2-0.4-0.4-0.4c-0.2,0-0.4,0.2-0.4,0.4c0,0.3,0,0.6,0,0.9c0,0.3,0.1,0.3,0.4,0.3
				c0.3,0,0.4-0.1,0.4-0.4C117.5,64.2,117.5,64.1,117.5,64z"/>
			<path class="st2" d="M98.6,65.8c0,0.8,0,1.5,0,2.3c0,0.2-0.1,0.3-0.3,0.3c-0.2,0-0.5,0-0.7,0.1c-0.7,0.2-1.5-0.3-1.6-1
				c-0.1-0.5-0.1-1,0-1.5c0-0.4,0.4-0.7,0.8-1c0.1-0.1,0.2-0.1,0.3-0.2c0.7-0.4,0.8-0.6,0.6-1.3c0-0.2-0.1-0.4-0.4-0.4
				c-0.2,0-0.4,0.2-0.4,0.4c0,0.3,0,0.6,0,0.8c0,0.2-0.1,0.2-0.2,0.2c-0.9,0-0.7,0.1-0.7-0.7c0-0.9,0.3-1.4,1-1.6
				c0.7-0.2,1.6,0.4,1.6,1.2C98.6,64.3,98.6,65,98.6,65.8C98.6,65.8,98.6,65.8,98.6,65.8z M97.7,65.6c-0.5,0.2-0.7,0.5-0.8,0.9
				c0,0.3,0,0.5,0,0.8c0,0.2,0.1,0.4,0.4,0.4c0.3,0,0.4-0.2,0.4-0.4c0-0.4,0-0.8,0-1.2C97.7,66,97.7,65.8,97.7,65.6z"/>
			<path class="st2" d="M112.7,65.4c0-0.9,0-1.8,0-2.7c0-0.2,0.1-0.4,0.3-0.3c0.2,0,0.4,0.1,0.7,0.1c0.1,0,0.1,0,0.2-0.1
				c0.8-0.4,1.4,0,1.5,0.9c0,1.6,0,3.2,0,4.9c0,0.2-0.1,0.3-0.3,0.3c-0.7,0-0.6,0.1-0.6-0.6c0-1.3,0-2.6,0-3.9c0-0.2,0-0.3,0-0.5
				c-0.1-0.1-0.2-0.3-0.3-0.3c-0.1,0-0.3,0.1-0.4,0.3c-0.1,0.1,0,0.2,0,0.3c0,1.5,0,2.9,0,4.4c0,0.3-0.1,0.4-0.4,0.4
				c-0.7,0-0.6,0.1-0.6-0.6C112.7,67,112.7,66.2,112.7,65.4z"/>
			<path class="st2" d="M65.8,65.4c0-0.7,0-1.4,0-2c0.1-0.6,0.7-1.1,1.3-1.1c0.7,0,1.2,0.6,1.3,1.2c0,0.6,0,1.3,0,1.9
				c0,0.2-0.1,0.3-0.3,0.3c-0.4,0-0.8,0-1.1,0c-0.2,0-0.3,0.1-0.3,0.3c0,0.4,0,0.9,0,1.3c0,0.3,0.1,0.5,0.4,0.5
				c0.3,0,0.4-0.2,0.4-0.4c0-0.3,0-0.6,0-0.9c0-0.2,0.1-0.2,0.2-0.2c0.8,0,0.7-0.1,0.7,0.6c0,0.5,0,1-0.4,1.4
				c-0.4,0.3-0.8,0.4-1.3,0.3c-0.5-0.2-0.8-0.5-0.8-1C65.8,66.8,65.8,66.1,65.8,65.4C65.8,65.4,65.8,65.4,65.8,65.4z M67.5,64
				C67.5,64,67.5,64,67.5,64c0-0.2,0-0.3,0-0.5c0-0.2-0.1-0.4-0.4-0.4c-0.2,0-0.4,0.2-0.4,0.5c0,0.3,0,0.5,0,0.8
				c0,0.3,0.1,0.4,0.4,0.4c0.4,0,0.4,0,0.4-0.4C67.5,64.2,67.5,64.1,67.5,64z"/>
			<path class="st2" d="M62.7,65.4c0-0.9,0-1.8,0-2.7c0-0.2,0.1-0.4,0.3-0.3c0.2,0,0.4,0.1,0.7,0.1c0.1,0,0.2,0,0.2-0.1
				c0.7-0.3,1.3-0.1,1.4,0.7c0,0.2,0.1,0.5,0.1,0.7c0,1.4,0,2.8,0,4.2c0,0.3-0.1,0.4-0.4,0.4c-0.6,0-0.6,0-0.6-0.6
				c0-1.4,0-2.8,0-4.1c0-0.1,0-0.3,0-0.3c-0.1-0.1-0.2-0.3-0.4-0.3c-0.1,0-0.3,0.2-0.3,0.3c-0.1,0.1,0,0.3,0,0.5c0,1.4,0,2.8,0,4.2
				c0,0.3-0.1,0.4-0.4,0.4c-0.7,0-0.6,0.1-0.6-0.6C62.7,67,62.7,66.2,62.7,65.4z"/>
			<path class="st2" d="M92.9,65.4c0-0.6,0-1.2,0-1.8c0-0.7,0.6-1.3,1.3-1.3c0.7,0,1.3,0.6,1.3,1.3c0,0.6,0,1.2,0,1.8
				c0,0.2-0.1,0.3-0.3,0.2c-0.4,0-0.8,0-1.2,0c-0.2,0-0.3,0.1-0.3,0.3c0,0.4,0,0.9,0,1.3c0,0.1,0,0.1,0,0.2c0.1,0.2,0.2,0.3,0.4,0.3
				c0.2,0,0.3-0.2,0.3-0.4c0-0.3,0-0.6,0-0.9c0-0.2,0.1-0.3,0.2-0.3c0.9,0,0.7-0.1,0.7,0.7c0,0.5,0,1-0.5,1.4
				c-0.4,0.3-0.9,0.5-1.4,0.3c-0.5-0.2-0.8-0.6-0.8-1.2C92.9,66.7,92.9,66,92.9,65.4z M94.6,64c0-0.1,0-0.3,0-0.4
				c0-0.2-0.1-0.4-0.4-0.5c-0.3,0-0.4,0.2-0.4,0.4c0,0.3,0,0.6,0,1c0,0.1,0.1,0.2,0.2,0.2c0.5,0.1,0.5,0,0.5-0.5
				C94.6,64.2,94.6,64.1,94.6,64z"/>
			<path class="st2" d="M141.1,64.5c0,0.3,0,0.6,0,0.9c0,0.2-0.1,0.2-0.2,0.2c-0.4,0-0.8,0-1.2,0c-0.3,0-0.4,0.1-0.4,0.3
				c0,0.4,0,0.8,0,1.3c0,0.3,0.2,0.5,0.4,0.5c0.2,0,0.4-0.2,0.4-0.5c0-0.3,0-0.5,0-0.8c0-0.1,0.1-0.2,0.1-0.2c0.2,0,0.5,0,0.7,0
				c0,0,0.1,0.1,0.1,0.2c0,0.4,0,0.8-0.1,1.1c-0.1,0.7-0.7,1.1-1.4,1.1c-0.7-0.1-1.2-0.6-1.2-1.3c0-1.2,0-2.4,0-3.6
				c0-0.7,0.5-1.3,1.2-1.3c0.6-0.1,1.3,0.4,1.4,1.1C141.1,63.7,141.1,64.1,141.1,64.5C141.1,64.5,141.1,64.5,141.1,64.5z M140.1,64
				c0-0.1,0-0.3,0-0.4c0-0.3-0.2-0.5-0.4-0.5c-0.2,0-0.4,0.2-0.4,0.5c0,0.3,0,0.5,0,0.8c0,0.3,0.1,0.4,0.4,0.4c0.4,0,0.4,0,0.4-0.4
				C140.1,64.2,140.1,64.1,140.1,64z"/>
			<path class="st2" d="M62.3,65.4c0,0.6,0,1.2,0,1.8c0,0.7-0.5,1.2-1.2,1.3c-0.6,0.1-1.3-0.4-1.4-1c0-0.3-0.1-0.6-0.1-0.9
				c0-1,0-1.9,0-2.9c0-0.8,0.4-1.3,1.1-1.4c0.8-0.2,1.5,0.4,1.6,1.2C62.3,64.2,62.3,64.8,62.3,65.4C62.3,65.4,62.3,65.4,62.3,65.4z
				 M60.6,65.4C60.6,65.4,60.6,65.4,60.6,65.4c0,0.6,0,1.2,0,1.8c0,0.3,0.1,0.4,0.4,0.5c0.3,0,0.4-0.2,0.4-0.4c0-1.2,0-2.5,0-3.7
				c0-0.3-0.1-0.5-0.4-0.5c-0.2,0-0.4,0.2-0.4,0.5C60.6,64.2,60.6,64.8,60.6,65.4z"/>
			<path class="st2" d="M105.9,65.4c0-0.6,0-1.3,0-1.9c0-0.7,0.6-1.2,1.3-1.3c0.6,0,1.3,0.5,1.3,1.1c0,0.8,0,1.7,0,2.5
				c0,0.5,0,1,0,1.4c-0.1,0.7-0.7,1.2-1.3,1.2c-0.7,0-1.3-0.6-1.3-1.3C105.9,66.6,105.9,66,105.9,65.4
				C105.9,65.4,105.9,65.4,105.9,65.4z M107.6,65.4c0-0.6,0-1.2,0-1.8c0-0.3-0.2-0.5-0.4-0.5c-0.2,0-0.4,0.2-0.4,0.5
				c0,1.2,0,2.4,0,3.6c0,0.3,0.2,0.5,0.4,0.5c0.2,0,0.4-0.2,0.4-0.5C107.6,66.6,107.6,66,107.6,65.4z"/>
			<path class="st2" d="M81.7,65.4c0-0.6,0-1.2,0-1.8c0-0.7,0.6-1.3,1.3-1.3c0.7,0,1.3,0.5,1.3,1.2c0,1.3,0,2.6,0,3.9
				c0,0.7-0.6,1.2-1.3,1.2c-0.7,0-1.3-0.5-1.3-1.2c0-0.3,0-0.6,0-1C81.7,66,81.7,65.7,81.7,65.4C81.7,65.4,81.7,65.4,81.7,65.4z
				 M83.4,65.4c0-0.3,0-0.7,0-1c0-0.3,0-0.6,0-0.9c0-0.2-0.2-0.4-0.4-0.4c-0.1,0-0.3,0.2-0.4,0.3c0,0,0,0.2,0,0.2c0,1.2,0,2.3,0,3.5
				c0,0.3,0.2,0.6,0.4,0.6c0.2,0,0.4-0.2,0.4-0.6C83.4,66.6,83.4,66,83.4,65.4z"/>
			<path class="st2" d="M86.4,66.8C86.4,66.8,86.4,66.7,86.4,66.8c0-0.8,0-0.8-0.7-0.9c-0.5-0.1-0.9-0.4-0.9-0.9
				c-0.1-0.6-0.1-1.1,0-1.7c0.1-0.6,0.8-1,1.3-1c0.7,0.1,1.2,0.6,1.2,1.3c0,0.1,0,0.1,0,0.2c0,0.7,0.1,0.6-0.6,0.6
				c-0.3,0-0.4-0.1-0.3-0.3c0-0.2,0-0.4,0-0.6c0-0.2-0.2-0.4-0.4-0.4c-0.2,0-0.4,0.1-0.4,0.3c0,0.4,0,0.7,0,1.1
				c0,0.1,0.2,0.2,0.3,0.3c0.1,0.1,0.2,0,0.3,0c0.5,0,0.8,0.3,0.9,0.7c0.2,0.7,0.2,1.4,0.1,2.1c-0.1,0.6-0.8,1-1.4,0.9
				c-0.7-0.1-1.1-0.6-1.1-1.3c0-0.1,0-0.1,0-0.2c0-0.7,0-0.7,0.7-0.7c0.2,0,0.3,0.1,0.3,0.3c0,0.2,0,0.4,0,0.5
				c0,0.3,0.2,0.5,0.4,0.5c0.3,0,0.4-0.2,0.4-0.5C86.4,67.1,86.4,66.9,86.4,66.8z"/>
			<path class="st2" d="M100.7,66.8c0-0.1,0-0.1,0-0.2c0-0.6,0-0.6-0.6-0.8c-0.6-0.1-1.1-0.6-1.1-1.3c0-0.3,0-0.7,0-1
				c0-0.7,0.6-1.3,1.3-1.3c0.7,0,1.3,0.6,1.3,1.3c0,0.1,0,0.1,0,0.2c0,0.7,0.2,0.7-0.7,0.6c-0.1,0-0.2-0.1-0.2-0.2
				c0-0.2,0-0.4,0-0.6c0-0.3-0.1-0.4-0.4-0.4c-0.2,0-0.4,0.2-0.4,0.4c0,0.3,0,0.6,0,0.9c0,0.3,0.1,0.4,0.4,0.5
				c0.9,0.1,1.3,0.5,1.3,1.5c0,0.3,0,0.6,0,0.9c0,0.7-0.6,1.3-1.3,1.3c-0.8,0-1.3-0.6-1.3-1.3c0,0,0-0.1,0-0.1
				c0-0.7,0.1-0.8,0.8-0.6c0.1,0,0.2,0.1,0.2,0.2c0,0.2,0,0.4,0,0.7c0,0.2,0.1,0.4,0.4,0.4c0.2,0,0.4-0.1,0.4-0.4
				C100.7,67.2,100.7,67,100.7,66.8C100.7,66.8,100.7,66.8,100.7,66.8z"/>
			<path class="st2" d="M142.4,64C142.4,64,142.4,64.1,142.4,64c0,0.8,0,0.9,0.7,0.9c0.5,0,0.9,0.5,1,1.1c0,0.5,0,0.9,0,1.4
				c0,0.5-0.5,1-1.1,1.1c-0.6,0.1-1.2-0.2-1.4-0.7c-0.1-0.4-0.1-0.8-0.2-1.2c0-0.1,0.1-0.2,0.2-0.2c0.2,0,0.4,0,0.5,0
				c0.1,0,0.2,0.1,0.2,0.2c0,0.2,0,0.4,0,0.6c0,0.2,0.1,0.4,0.4,0.4c0.2,0,0.4-0.1,0.4-0.4c0-0.4,0-0.7,0-1.1c0-0.2-0.1-0.3-0.4-0.4
				c-0.9-0.1-1.4-0.6-1.3-1.5c0-0.3,0-0.7,0.1-1c0.1-0.6,0.7-1.1,1.3-1.1c0.7,0.1,1.3,0.6,1.3,1.3c0,0.1,0,0.2,0,0.3
				c0,0.6,0.1,0.5-0.6,0.6c-0.3,0-0.4-0.1-0.4-0.4c0-0.2,0-0.4,0-0.6c0-0.2-0.2-0.4-0.3-0.4c-0.1,0-0.3,0.2-0.4,0.3
				C142.4,63.6,142.4,63.8,142.4,64C142.4,64,142.4,64,142.4,64z"/>
			<path class="st2" d="M126.6,66.8c0-0.1,0-0.2,0-0.3c0-0.5-0.1-0.5-0.5-0.6c-0.7-0.1-1.2-0.6-1.2-1.3c0-0.4,0-0.8,0-1.1
				c0-0.7,0.6-1.2,1.3-1.2c0.7,0,1.3,0.6,1.3,1.2c0,0.1,0,0.2,0,0.3c0,0.7,0,0.7-0.7,0.6c-0.2,0-0.2-0.1-0.2-0.3c0-0.2,0-0.4,0-0.6
				c0-0.2-0.1-0.4-0.4-0.4c-0.3,0-0.4,0.2-0.4,0.4c0,0.3,0,0.5,0,0.8c0,0.3,0.1,0.5,0.5,0.5c0.9,0.1,1.2,0.4,1.2,1.3
				c0,0.4,0,0.7,0,1.1c0,0.7-0.6,1.2-1.3,1.2c-0.7,0-1.3-0.5-1.3-1.2c0-0.1,0-0.3,0-0.4c0-0.4,0-0.4,0.5-0.4c0.5,0,0.5,0,0.5,0.5
				c0,0.1,0,0.3,0,0.4c0,0.2,0.1,0.4,0.4,0.4c0.3,0,0.4-0.2,0.4-0.4C126.7,67.1,126.6,67,126.6,66.8
				C126.6,66.8,126.6,66.8,126.6,66.8z"/>
			<path class="st2" d="M103.8,65.4c0,0.6,0,1.2,0,1.8c0,0.3,0.1,0.5,0.4,0.5c0.2,0,0.4-0.2,0.4-0.5c0-0.3,0-0.5,0-0.8
				c0-0.2,0-0.3,0.2-0.3c0.9,0,0.7-0.1,0.7,0.7c0,0.4,0,0.9-0.3,1.2c-0.4,0.4-0.9,0.6-1.4,0.4c-0.5-0.2-0.9-0.7-0.9-1.2
				c0-1.2,0-2.4,0-3.6c0-0.8,0.6-1.4,1.3-1.4c0.7,0,1.3,0.6,1.3,1.4c0,0.1,0,0.2,0,0.3c0,0.6-0.1,0.7-0.8,0.6
				c-0.1,0-0.2-0.1-0.2-0.2c0-0.2,0-0.5,0-0.7c0-0.3-0.1-0.5-0.4-0.5c-0.2,0-0.4,0.2-0.4,0.5C103.8,64.2,103.8,64.8,103.8,65.4
				C103.8,65.4,103.8,65.4,103.8,65.4z"/>
			<path class="st2" d="M119.8,65.4c0,0.6,0,1.2,0,1.8c0,0.3,0.1,0.5,0.4,0.5c0.2,0,0.4-0.2,0.4-0.5c0-0.3,0-0.5,0-0.8
				c0-0.1,0.1-0.2,0.2-0.2c0.8,0,0.7-0.1,0.7,0.6c0,0.5,0,1-0.4,1.4c-0.7,0.6-1.8,0.3-2.1-0.5c-0.1-0.2-0.1-0.3-0.1-0.5
				c0-1.3,0-2.5,0.1-3.8c0-0.6,0.7-1.1,1.3-1.1c0.6,0,1.2,0.5,1.3,1.2c0,0.3,0,0.6,0,0.9c0,0.1-0.1,0.2-0.2,0.2
				c-0.6,0.1-0.7,0-0.7-0.6c0-0.1,0-0.3,0-0.4c0-0.2-0.1-0.4-0.4-0.4c-0.3,0-0.4,0.2-0.4,0.5C119.8,64.2,119.8,64.8,119.8,65.4
				C119.8,65.4,119.8,65.4,119.8,65.4z"/>
			<path class="st2" d="M68.8,65.4c0-0.6,0-1.2,0-1.8c0-0.8,0.6-1.4,1.3-1.3c0.7,0,1.3,0.6,1.3,1.4c0,0.2,0,0.4,0,0.6
				c0,0.3-0.1,0.3-0.3,0.3c-0.8,0-0.6,0-0.6-0.6c0-0.2,0-0.3,0-0.5c0-0.2-0.1-0.4-0.3-0.4c-0.1,0-0.3,0.2-0.4,0.3
				c-0.1,0.1,0,0.2,0,0.3c0,1.1,0,2.2,0,3.3c0,0.1,0,0.2,0,0.3c0,0.2,0.1,0.4,0.4,0.4c0.2,0,0.4-0.2,0.4-0.4c0-0.3,0-0.5,0-0.8
				c0-0.2,0-0.3,0.3-0.3c0.8,0,0.6-0.1,0.7,0.7c0,0.4,0,0.9-0.3,1.2c-0.3,0.4-0.9,0.6-1.5,0.4c-0.5-0.2-0.9-0.7-0.9-1.2
				C68.8,66.7,68.8,66,68.8,65.4z"/>
			<path class="st2" d="M71.9,62.4c0.4,0,0.3-0.2,0.3-0.4c0-0.4,0-0.9,0-1.3c0-0.2,0.1-0.3,0.3-0.3c0.7,0,0.6-0.1,0.6,0.6
				c0,0.4,0,0.8,0,1.1c0,0.1,0,0.3,0.2,0.3c0.1,0,0.1,0.1,0.2,0.2c0,0.2,0,0.4,0,0.6c0,0.1-0.1,0.2-0.1,0.2c-0.3,0-0.3,0.2-0.3,0.4
				c0,1.2,0,2.4,0,3.6c0,0.2,0,0.4,0,0.5c0,0.6-0.1,0.7-0.7,0.6c-0.1,0-0.2-0.2-0.2-0.3c0-1.4,0-2.9,0-4.3c0-0.2,0.1-0.5-0.3-0.5
				c0,0-0.1-0.1-0.1-0.2C71.9,62.9,71.9,62.7,71.9,62.4z"/>
			<path class="st2" d="M88.5,62.4c0.2,0,0.4,0,0.6,0c0.3,0,0.4,0.1,0.4,0.4c0,1.5,0,3.1,0,4.6c0,0.3,0,0.5,0,0.8c0,0.1,0,0.2,0,0.2
				c-0.2,0-0.5,0.1-0.7,0.1c-0.1,0-0.2-0.1-0.2-0.2C88.5,66.3,88.5,64.4,88.5,62.4z"/>
			<path class="st2" d="M128,65.4c0-0.9,0-1.8,0-2.7c0-0.3,0.1-0.4,0.3-0.3c0.6,0,0.6-0.1,0.6,0.6c0,1.7,0,3.4,0,5.1
				c0,0.3-0.1,0.4-0.4,0.4c-0.6,0-0.6,0.1-0.6-0.6C128,67,128,66.2,128,65.4z"/>
			<path class="st2" d="M89.5,61.5c0,0.5,0,0.5-0.4,0.5c-0.6,0-0.5,0-0.5-0.5c0-0.5,0-0.5,0.5-0.5C89.5,61,89.5,61,89.5,61.5z"/>
			<path class="st2" d="M128,61.4c0-0.1-0.1-0.4,0.3-0.4c0.7,0,0.5,0,0.6,0.7c0,0.3-0.2,0.3-0.4,0.3C127.9,62,128,62.1,128,61.4z"/>
			<path class="st2" d="M145.4,68c0,0.4,0,0.4-0.5,0.4c-0.4,0-0.4,0-0.4-0.5c0-0.4,0-0.4,0.4-0.4C145.4,67.5,145.4,67.5,145.4,68z"
				/>
		</g>
	</g>
	<g class="st0">
		<g class="st1">
			<path d="M62.6,36.9c0,6.7,0,13.5,0,20.2c-2,0-4,0-5.9,0c0-15.9,0-31.9,0-47.8c0.1,0,0.2,0,0.3,0c1.8,0,3.6,0,5.3,0
				c0.2,0,0.3,0,0.4,0.3c1,5.8,2.1,11.7,3.1,17.5c0.2,1.3,0.5,2.5,0.7,3.8c0,0.1,0,0.1,0.1,0.2c0-7.2,0-14.5,0-21.8c2,0,4,0,6,0
				c0,15.9,0,31.9,0,47.8c-0.1,0-0.2,0-0.3,0c-1.8,0-3.6,0-5.4,0c-0.2,0-0.3-0.1-0.3-0.3c-0.7-3.8-1.4-7.5-2.2-11.3
				c-0.5-2.8-1.1-5.7-1.6-8.5C62.7,37,62.7,36.9,62.6,36.9C62.6,36.8,62.6,36.8,62.6,36.9z"/>
			<path d="M74.4,33.2c0-5.5,0-11,0-16.6c0-3.3,1.5-5.7,4.3-7.3C81.5,7.8,86.1,8,89,11.8c1.1,1.4,1.5,3.1,1.5,4.9
				c0,7.2,0,14.3,0,21.5c0,3.9,0,7.8,0,11.7c0,4.2-3.1,7-5.7,7.8c-4.6,1.4-9.3-1.4-10.3-6c-0.1-0.6-0.2-1.3-0.2-2
				C74.4,44.1,74.4,38.7,74.4,33.2z M84.4,33.2c0-5.7,0-11.4,0-17.1c0-0.1,0-0.3,0-0.4c-0.1-0.8-0.5-1.4-1.3-1.7
				c-0.7-0.3-1.4-0.2-2,0.4c-0.5,0.5-0.7,1-0.7,1.7c0,11.4,0,22.9,0,34.3c0,0.1,0,0.2,0,0.3c0.1,1.3,1.3,2.1,2.5,1.8
				c0.9-0.2,1.5-1,1.5-2C84.4,44.7,84.4,39,84.4,33.2z"/>
			<path d="M102.4,9.3c2,0,4,0,6.1,0c0,0.1,0,0.2,0,0.3c0,13.4,0,26.8,0,40.2c0,4.3-3.2,7.2-6.1,7.9c-4.3,1-8.7-1.6-9.8-5.8
				c-0.2-0.6-0.2-1.3-0.2-1.9c0-6.4,0-12.8,0-19.3c0-7,0-14,0-21c0-0.1,0-0.3,0-0.4c2,0,4,0,6,0c0,0.2,0,0.3,0,0.4
				c0,13.5,0,27.1,0,40.6c0,0.7,0.2,1.3,0.8,1.8c0.6,0.5,1.4,0.6,2.1,0.3c0.7-0.3,1.1-0.9,1.1-1.7c0-0.2,0-0.4,0-0.6
				c0-13.5,0-26.9,0-40.4C102.4,9.6,102.4,9.4,102.4,9.3z"/>
			<path d="M118.9,20.5c0.1-0.2,0.1-0.2,0.1-0.3c0.4-1.6,0.8-3.3,1.2-4.9c0.5-1.9,0.9-3.8,1.4-5.7c0-0.2,0.1-0.3,0.3-0.3
				c1.8,0,3.6,0,5.5,0c0,0,0.1,0,0.2,0c-0.1,0.5-0.2,0.9-0.3,1.4c-0.6,2.6-1.2,5.3-1.9,7.9c-0.6,2.3-1.1,4.7-1.7,7
				c-0.4,1.9-0.9,3.8-1.3,5.7c-0.1,0.3-0.1,0.5-0.2,0.8c-0.3,0.7-0.2,1.5,0,2.2c0.7,2.7,1.3,5.5,1.9,8.2c0.6,2.7,1.3,5.5,2,8.2
				c0.5,2,0.9,4,1.4,6c0,0.1,0,0.2,0,0.3c-0.1,0-0.2,0-0.3,0c-1.7,0-3.5,0-5.2,0c-0.3,0-0.3-0.1-0.4-0.3c-0.7-3.2-1.5-6.3-2.2-9.5
				c-0.1-0.4-0.2-0.8-0.3-1.2c0-0.1-0.1-0.2-0.2-0.3c-0.1,0.4-0.2,0.9-0.3,1.3c-0.7,3.2-1.5,6.4-2.2,9.5c-0.1,0.3-0.2,0.4-0.5,0.4
				c-1.7,0-3.4,0-5.1,0c-0.3,0-0.4,0-0.3-0.3c0.5-2.1,1-4.2,1.5-6.3c0.6-2.6,1.2-5.1,1.8-7.7c0.7-2.8,1.3-5.5,2-8.3
				c0.1-0.3,0.1-0.6,0.2-0.9c0.1-0.4,0-0.8-0.1-1.2c-0.6-2.4-1.1-4.8-1.7-7.2c-0.5-2.3-1.1-4.6-1.6-6.9c-0.7-2.9-1.4-5.8-2.1-8.7
				c-0.1-0.3,0-0.3,0.3-0.3c1.8,0,3.5,0,5.3,0c0.2,0,0.3,0,0.4,0.2c0.5,2.3,1.1,4.6,1.6,7c0.3,1.3,0.6,2.5,0.9,3.8
				C118.8,20.4,118.8,20.4,118.9,20.5z"/>
			<path d="M144.8,44.1c0,2.2,0,4.4,0,6.6c0,0.8-0.2,1.7-0.3,2.5c-0.1,0.8-0.6,1.5-1.1,2.1c-0.6,0.9-1.5,1.5-2.5,2
				c-0.8,0.4-1.6,0.5-2.4,0.5c-1.3,0-2.7,0-4-0.1c-1-0.1-2-0.3-2.8-1c-0.3-0.3-0.8-0.5-1.1-0.9c-1.3-1.4-1.9-3.1-2-4.9
				c-0.1-2.5,0-4.9,0-7.4c0-0.2,0-0.4,0.1-0.6c0.1-0.3,0.4-0.5,0.7-0.2c0.1,0.1,0.2,0.2,0.3,0.3c0.8,1,1.9,1.8,3.1,2.3
				c0.5,0.2,0.6,0.4,0.6,0.9c0,1.2,0,2.5,0,3.7c0,0.4,0,0.9,0.1,1.3c0.1,0.6,0.5,1,1.2,1c0.5,0,0.9,0,1.4,0c0.8,0,1.5,0,2.3,0
				c1,0,1.5-0.6,1.6-1.6c0-0.4,0-0.7,0-1.1c0-3.8,0-7.6,0-11.4c0-0.3,0-0.6-0.1-1c0-0.6-0.3-1-0.7-1.3c-0.1-0.1-0.2-0.1-0.3-0.1
				c-1.3,0-2.5,0-3.8-0.1c-1.5-0.1-2.9-0.5-4.1-1.6c-1.2-1.1-2-2.5-2.2-4.2c-0.1-0.7-0.1-1.3-0.1-2c0-4.2,0-8.3,0-12.5
				c0-1.4,0.3-2.7,1-3.9c0.5-0.9,1.2-1.7,2.1-2.2c0.9-0.5,1.8-0.9,2.8-0.9c1.5,0,3,0,4.4,0c0.5,0,1,0.2,1.4,0.4
				c1.3,0.6,2.4,1.4,3.1,2.6c0.6,1.1,1,2.2,1.1,3.4c0,0.2,0,0.5,0,0.8c0,2.3,0,4.6,0,7c0,0.1,0,0.2,0,0.3c-0.1,0.2-0.2,0.4-0.3,0.4
				c-0.1,0-0.4-0.1-0.5-0.2c-0.6-0.8-1.5-1.4-2.4-1.9c-0.3-0.2-0.6-0.3-1-0.4c-0.4-0.2-0.5-0.3-0.5-0.7c0-0.9,0-1.8,0-2.7
				c0-0.6,0-1.3-0.1-1.9c-0.1-1-0.6-1.5-1.7-1.5c-1.2,0-2.4,0-3.5,0.1c-0.8,0-1.1,0.4-1.3,1.2c-0.1,0.6-0.1,1.2-0.1,1.8
				c0,0.4,0,0.9,0,1.3c0,2.8,0,5.7,0,8.5c0,0.8,0,1.6,0.1,2.3c0,0.5,0.7,1.1,1.1,1.1c1.4,0,2.8,0,4.2,0c1.6,0.1,2.9,0.7,3.9,1.8
				c1.3,1.4,2,3.1,2,5C144.8,39.4,144.8,41.8,144.8,44.1C144.8,44.1,144.8,44.1,144.8,44.1z"/>
			<path d="M79.5,62.8c0.3-0.4,0.6-0.6,1.1-0.5c0.5,0.1,0.7,0.5,0.7,1.1c0,1.6,0,3.2,0,4.8c0,0.2-0.1,0.3-0.3,0.3
				c-0.9,0-0.7,0.1-0.7-0.7c0-1.4,0-2.8,0-4.2c0-0.2-0.1-0.4-0.3-0.4c-0.1,0-0.3,0.1-0.4,0.2c-0.1,0.1-0.1,0.2-0.1,0.4
				c0,1.5,0,2.9,0,4.4c0,0.3-0.1,0.4-0.4,0.4c-0.7,0-0.6,0.1-0.6-0.6c0-1.3,0-2.7,0-4c0-0.1,0-0.2,0-0.3c0-0.2-0.1-0.4-0.4-0.4
				c-0.2,0-0.3,0.2-0.4,0.4c0,0.1,0,0.2,0,0.3c0,1.4,0,2.8,0,4.2c0,0.3-0.1,0.4-0.4,0.4c-0.1,0-0.1,0-0.2,0c-0.2,0-0.3-0.1-0.3-0.3
				c0-1.1,0-2.1,0-3.2c0-0.7,0-1.5,0-2.2c0-0.2,0.1-0.4,0.3-0.3c0.2,0,0.4,0.1,0.6,0.1c0,0,0.1,0,0.1,0C78.7,62.1,79,62.2,79.5,62.8
				z"/>
			<path d="M131,62.3c0-0.3,0-0.6,0-1c0-0.1,0-0.3,0-0.4c0-0.7-0.1-0.6,0.6-0.6c0.3,0,0.3,0.1,0.3,0.3c0,1.4,0,2.8,0,4.2
				c0,0.8,0,1.5,0,2.3c0,0.8-0.6,1.4-1.3,1.4c-0.7,0-1.3-0.6-1.3-1.3c0-1.1,0-2.3,0-3.4C129.3,62.7,129.9,62.2,131,62.3z M131,65.4
				c0-0.6,0-1.2,0-1.8c0-0.3-0.1-0.4-0.4-0.5c-0.3,0-0.4,0.2-0.4,0.4c0,1.2,0,2.5,0,3.7c0,0.3,0.1,0.4,0.4,0.4
				c0.3,0,0.4-0.2,0.4-0.4C131,66.6,131,66,131,65.4z"/>
			<path d="M137.1,62.3c0-0.5,0-0.9,0-1.3c0-0.6,0.2-0.7,0.8-0.6c0.1,0,0.1,0.2,0.1,0.3c0,0.8,0,1.6,0,2.4c0,1.4,0,2.8,0,4.1
				c0,0.8-0.6,1.4-1.3,1.4c-0.7,0-1.3-0.6-1.3-1.4c0-1.1,0-2.2,0-3.3C135.3,63,135.9,62.1,137.1,62.3z M137.1,65.4
				C137.1,65.4,137.1,65.4,137.1,65.4c0-0.6,0-1.3,0-1.9c0-0.3-0.1-0.4-0.4-0.5c-0.3,0-0.4,0.2-0.4,0.4c0,1.2,0,2.5,0,3.7
				c0,0.3,0.1,0.4,0.4,0.4c0.3,0,0.4-0.2,0.4-0.5C137.1,66.7,137.1,66,137.1,65.4z"/>
			<path d="M92.5,64c0,1,0,2.1,0,3.1c0,0.8-0.6,1.4-1.3,1.4c-0.7,0-1.3-0.6-1.4-1.4c0-1.2,0-2.4,0-3.6c0-0.9,0.7-1.4,1.5-1.3
				c0.2,0,0.2-0.1,0.2-0.2c0-0.5,0-0.9,0-1.4c0-0.2,0.1-0.3,0.3-0.3c0.7,0,0.6-0.1,0.6,0.6C92.5,62,92.5,63,92.5,64z M90.8,65.4
				c0,0.6,0,1.2,0,1.8c0,0.3,0.2,0.5,0.4,0.5c0.3,0,0.4-0.2,0.4-0.5c0-1.2,0-2.4,0-3.7c0-0.3-0.1-0.5-0.4-0.5
				c-0.2,0-0.4,0.2-0.4,0.5C90.8,64.2,90.8,64.8,90.8,65.4z"/>
			<path d="M56.6,64.4c0-1,0-1.9,0-2.9c0-0.6,0.5-1.2,1.1-1.2c0.7-0.1,1.3,0.3,1.5,1c0,0.2,0.1,0.4,0.1,0.6c0,0.4,0,0.9,0,1.3
				c0,0.2-0.1,0.3-0.3,0.3c-0.9,0-0.7,0.1-0.7-0.7c0-0.4,0-0.8,0-1.2c0-0.2-0.1-0.4-0.4-0.4c-0.3,0-0.4,0.2-0.4,0.4
				c0,0.1,0,0.3,0,0.4c0,1.7,0,3.4,0,5c0,0.1,0,0.2,0,0.3c0,0.2,0.1,0.4,0.4,0.4c0.3,0,0.4-0.2,0.4-0.4c0-0.5,0-1,0-1.5
				c0-0.3,0.1-0.4,0.4-0.4c0.6,0,0.6,0,0.6,0.6c0,0.5,0,1-0.1,1.5c-0.1,0.7-0.7,1.1-1.3,1c-0.8-0.1-1.2-0.6-1.3-1.3
				C56.6,66.3,56.6,65.3,56.6,64.4C56.6,64.4,56.6,64.4,56.6,64.4z"/>
			<path d="M76.5,68.4c-0.5,0-1,0.1-1.5,0.1c-0.6-0.1-1-0.5-1.1-1.1c0-0.4,0-0.8,0-1.2c0-0.4,0.2-0.7,0.5-0.9c0.3-0.2,0.6-0.4,1-0.6
				c0.1-0.1,0.2-0.2,0.2-0.3c0-0.3,0-0.5,0-0.8c0-0.2-0.1-0.4-0.4-0.4c-0.2,0-0.4,0.1-0.4,0.4c0,0.3,0,0.6,0,0.9
				c0,0.2-0.1,0.2-0.2,0.2c-0.7,0-0.7,0-0.7-0.7c0-0.6,0.1-1.1,0.6-1.4c0.4-0.3,0.9-0.3,1.3,0c0.4,0.2,0.7,0.6,0.7,1.1
				c0,1.5,0,3,0,4.6C76.5,68.2,76.5,68.3,76.5,68.4z M75.5,65.6c-0.4,0.1-0.6,0.3-0.7,0.6c-0.1,0.4-0.1,0.8,0,1.2
				c0,0.1,0.2,0.3,0.4,0.2c0.1,0,0.3-0.2,0.3-0.3C75.5,66.8,75.5,66.2,75.5,65.6z"/>
			<path d="M109.9,62.5c0.1-0.1,0.3-0.1,0.4-0.2c0.6-0.2,1,0.1,1.1,0.7c0,0.2,0.1,0.4,0.1,0.6c0,1.5,0,3,0,4.5
				c0,0.2-0.1,0.3-0.3,0.3c-0.6,0-0.6,0-0.6-0.6c0-1.4,0-2.8,0-4.2c0-0.1,0-0.2,0-0.2c-0.1-0.1-0.2-0.3-0.3-0.3
				c-0.1,0-0.3,0.2-0.4,0.3c0,0.1,0,0.2,0,0.3c0,1.4,0,2.9,0,4.3c0,0.3-0.1,0.4-0.4,0.4c-0.7,0-0.6,0.1-0.6-0.6c0-1.7,0-3.4,0-5
				c0-0.3,0.1-0.4,0.4-0.4C109.5,62.4,109.7,62.4,109.9,62.5C109.9,62.5,109.9,62.5,109.9,62.5z"/>
			<path d="M135,66c0,0.7,0,1.4,0,2.2c0,0.2-0.1,0.3-0.3,0.3c-0.3,0-0.6,0-0.8,0.1c-0.7,0.1-1.5-0.4-1.5-1.2c0-0.3,0-0.6,0-0.9
				c0-0.6,0.2-1,0.7-1.3c0.3-0.2,0.6-0.3,0.8-0.5c0.1-0.1,0.2-0.2,0.2-0.3c0-0.2,0-0.4,0-0.6c0-0.3-0.2-0.5-0.4-0.5
				c-0.2,0-0.4,0.2-0.4,0.5c0,0.2,0,0.5,0,0.7c0,0.2-0.1,0.3-0.3,0.3c-0.8,0-0.6,0.1-0.6-0.6c0-0.4,0-0.8,0.2-1.2
				c0.3-0.4,0.9-0.6,1.3-0.5c0.6,0.1,1,0.6,1.1,1.1C135,64.3,135,65.1,135,66C135,66,135,66,135,66z M134,65.6c-0.1,0-0.2,0-0.2,0.1
				c-0.5,0.3-0.8,1.3-0.5,1.8c0.1,0.1,0.3,0.2,0.4,0.2c0.1,0,0.3-0.2,0.3-0.4C134.1,66.8,134,66.2,134,65.6z"/>
			<path d="M121.9,65.4c0-0.6,0-1.2,0-1.8c0-0.8,0.6-1.4,1.3-1.4c0.7,0,1.3,0.6,1.3,1.4c0,0.6,0,1.1,0,1.7c0,0.2-0.1,0.3-0.3,0.3
				c-0.4,0-0.8,0-1.2,0c-0.2,0-0.3,0.1-0.3,0.3c0,0.5,0,0.9,0,1.4c0,0.2,0.1,0.4,0.4,0.4c0.2,0,0.4-0.2,0.4-0.4c0-0.3,0-0.6,0-0.9
				c0-0.1,0.1-0.2,0.2-0.2c0.7-0.1,0.7-0.1,0.7,0.7c0,0.3,0,0.7-0.1,0.9c-0.2,0.6-0.9,0.9-1.5,0.7c-0.5-0.1-1-0.7-1-1.2
				C121.9,66.6,121.9,66,121.9,65.4C121.9,65.4,121.9,65.4,121.9,65.4z M122.8,64C122.8,64,122.8,64,122.8,64c0,0.1,0,0.2,0,0.3
				c0,0.4,0.3,0.6,0.6,0.4c0.1,0,0.1-0.1,0.1-0.2c0-0.4,0-0.7,0-1.1c0-0.1-0.2-0.3-0.3-0.3c-0.2,0-0.4,0.1-0.4,0.3
				C122.8,63.6,122.8,63.8,122.8,64z"/>
			<path d="M118.4,64.5c0,0.3,0,0.6,0,0.9c0,0.2-0.1,0.3-0.3,0.3c-0.4,0-0.8,0-1.2,0c-0.2,0-0.3,0.1-0.3,0.3c0,0.5,0,0.9,0,1.4
				c0,0.3,0.1,0.4,0.4,0.4c0.2,0,0.4-0.2,0.4-0.4c0-0.3,0-0.6,0-0.9c0-0.1,0.1-0.2,0.2-0.2c0.7-0.1,0.7-0.1,0.7,0.7
				c0,0.5,0,1-0.5,1.4c-0.4,0.3-0.8,0.4-1.3,0.2c-0.5-0.2-0.8-0.6-0.8-1.2c0-1.2,0-2.4,0-3.6c0-0.8,0.6-1.4,1.3-1.4
				c0.7,0,1.3,0.6,1.4,1.3C118.5,63.9,118.4,64.2,118.4,64.5z M117.5,64C117.5,64,117.5,64,117.5,64c0-0.2,0-0.4,0-0.5
				c0-0.2-0.2-0.4-0.4-0.4c-0.2,0-0.4,0.2-0.4,0.4c0,0.3,0,0.6,0,0.9c0,0.3,0.1,0.3,0.4,0.3c0.3,0,0.4-0.1,0.4-0.4
				C117.5,64.2,117.5,64.1,117.5,64z"/>
			<path d="M98.6,65.8c0,0.8,0,1.5,0,2.3c0,0.2-0.1,0.3-0.3,0.3c-0.2,0-0.5,0-0.7,0.1c-0.7,0.2-1.5-0.3-1.6-1c-0.1-0.5-0.1-1,0-1.5
				c0-0.4,0.4-0.7,0.8-1c0.1-0.1,0.2-0.1,0.3-0.2c0.7-0.4,0.8-0.6,0.6-1.3c0-0.2-0.1-0.4-0.4-0.4c-0.2,0-0.4,0.2-0.4,0.4
				c0,0.3,0,0.6,0,0.8c0,0.2-0.1,0.2-0.2,0.2c-0.9,0-0.7,0.1-0.7-0.7c0-0.9,0.3-1.4,1-1.6c0.7-0.2,1.6,0.4,1.6,1.2
				C98.6,64.3,98.6,65,98.6,65.8C98.6,65.8,98.6,65.8,98.6,65.8z M97.7,65.6c-0.5,0.2-0.7,0.5-0.8,0.9c0,0.3,0,0.5,0,0.8
				c0,0.2,0.1,0.4,0.4,0.4c0.3,0,0.4-0.2,0.4-0.4c0-0.4,0-0.8,0-1.2C97.7,66,97.7,65.8,97.7,65.6z"/>
			<path d="M112.7,65.4c0-0.9,0-1.8,0-2.7c0-0.2,0.1-0.4,0.3-0.3c0.2,0,0.4,0.1,0.7,0.1c0.1,0,0.1,0,0.2-0.1c0.8-0.4,1.4,0,1.5,0.9
				c0,1.6,0,3.2,0,4.9c0,0.2-0.1,0.3-0.3,0.3c-0.7,0-0.6,0.1-0.6-0.6c0-1.3,0-2.6,0-3.9c0-0.2,0-0.3,0-0.5c-0.1-0.1-0.2-0.3-0.3-0.3
				c-0.1,0-0.3,0.1-0.4,0.3c-0.1,0.1,0,0.2,0,0.3c0,1.5,0,2.9,0,4.4c0,0.3-0.1,0.4-0.4,0.4c-0.7,0-0.6,0.1-0.6-0.6
				C112.7,67,112.7,66.2,112.7,65.4z"/>
			<path d="M65.8,65.4c0-0.7,0-1.4,0-2c0.1-0.6,0.7-1.1,1.3-1.1c0.7,0,1.2,0.6,1.3,1.2c0,0.6,0,1.3,0,1.9c0,0.2-0.1,0.3-0.3,0.3
				c-0.4,0-0.8,0-1.1,0c-0.2,0-0.3,0.1-0.3,0.3c0,0.4,0,0.9,0,1.3c0,0.3,0.1,0.5,0.4,0.5c0.3,0,0.4-0.2,0.4-0.4c0-0.3,0-0.6,0-0.9
				c0-0.2,0.1-0.2,0.2-0.2c0.8,0,0.7-0.1,0.7,0.6c0,0.5,0,1-0.4,1.4c-0.4,0.3-0.8,0.4-1.3,0.3c-0.5-0.2-0.8-0.5-0.8-1
				C65.8,66.8,65.8,66.1,65.8,65.4C65.8,65.4,65.8,65.4,65.8,65.4z M67.5,64C67.5,64,67.5,64,67.5,64c0-0.2,0-0.3,0-0.5
				c0-0.2-0.1-0.4-0.4-0.4c-0.2,0-0.4,0.2-0.4,0.5c0,0.3,0,0.5,0,0.8c0,0.3,0.1,0.4,0.4,0.4c0.4,0,0.4,0,0.4-0.4
				C67.5,64.2,67.5,64.1,67.5,64z"/>
			<path d="M62.7,65.4c0-0.9,0-1.8,0-2.7c0-0.2,0.1-0.4,0.3-0.3c0.2,0,0.4,0.1,0.7,0.1c0.1,0,0.2,0,0.2-0.1c0.7-0.3,1.3-0.1,1.4,0.7
				c0,0.2,0.1,0.5,0.1,0.7c0,1.4,0,2.8,0,4.2c0,0.3-0.1,0.4-0.4,0.4c-0.6,0-0.6,0-0.6-0.6c0-1.4,0-2.8,0-4.1c0-0.1,0-0.3,0-0.3
				c-0.1-0.1-0.2-0.3-0.4-0.3c-0.1,0-0.3,0.2-0.3,0.3c-0.1,0.1,0,0.3,0,0.5c0,1.4,0,2.8,0,4.2c0,0.3-0.1,0.4-0.4,0.4
				c-0.7,0-0.6,0.1-0.6-0.6C62.7,67,62.7,66.2,62.7,65.4z"/>
			<path d="M92.9,65.4c0-0.6,0-1.2,0-1.8c0-0.7,0.6-1.3,1.3-1.3c0.7,0,1.3,0.6,1.3,1.3c0,0.6,0,1.2,0,1.8c0,0.2-0.1,0.3-0.3,0.2
				c-0.4,0-0.8,0-1.2,0c-0.2,0-0.3,0.1-0.3,0.3c0,0.4,0,0.9,0,1.3c0,0.1,0,0.1,0,0.2c0.1,0.2,0.2,0.3,0.4,0.3c0.2,0,0.3-0.2,0.3-0.4
				c0-0.3,0-0.6,0-0.9c0-0.2,0.1-0.3,0.2-0.3c0.9,0,0.7-0.1,0.7,0.7c0,0.5,0,1-0.5,1.4c-0.4,0.3-0.9,0.5-1.4,0.3
				c-0.5-0.2-0.8-0.6-0.8-1.2C92.9,66.7,92.9,66,92.9,65.4z M94.6,64c0-0.1,0-0.3,0-0.4c0-0.2-0.1-0.4-0.4-0.5
				c-0.3,0-0.4,0.2-0.4,0.4c0,0.3,0,0.6,0,1c0,0.1,0.1,0.2,0.2,0.2c0.5,0.1,0.5,0,0.5-0.5C94.6,64.2,94.6,64.1,94.6,64z"/>
			<path d="M141.1,64.5c0,0.3,0,0.6,0,0.9c0,0.2-0.1,0.2-0.2,0.2c-0.4,0-0.8,0-1.2,0c-0.3,0-0.4,0.1-0.4,0.3c0,0.4,0,0.8,0,1.3
				c0,0.3,0.2,0.5,0.4,0.5c0.2,0,0.4-0.2,0.4-0.5c0-0.3,0-0.5,0-0.8c0-0.1,0.1-0.2,0.1-0.2c0.2,0,0.5,0,0.7,0c0,0,0.1,0.1,0.1,0.2
				c0,0.4,0,0.8-0.1,1.1c-0.1,0.7-0.7,1.1-1.4,1.1c-0.7-0.1-1.2-0.6-1.2-1.3c0-1.2,0-2.4,0-3.6c0-0.7,0.5-1.3,1.2-1.3
				c0.6-0.1,1.3,0.4,1.4,1.1C141.1,63.7,141.1,64.1,141.1,64.5C141.1,64.5,141.1,64.5,141.1,64.5z M140.1,64c0-0.1,0-0.3,0-0.4
				c0-0.3-0.2-0.5-0.4-0.5c-0.2,0-0.4,0.2-0.4,0.5c0,0.3,0,0.5,0,0.8c0,0.3,0.1,0.4,0.4,0.4c0.4,0,0.4,0,0.4-0.4
				C140.1,64.2,140.1,64.1,140.1,64z"/>
			<path d="M62.3,65.4c0,0.6,0,1.2,0,1.8c0,0.7-0.5,1.2-1.2,1.3c-0.6,0.1-1.3-0.4-1.4-1c0-0.3-0.1-0.6-0.1-0.9c0-1,0-1.9,0-2.9
				c0-0.8,0.4-1.3,1.1-1.4c0.8-0.2,1.5,0.4,1.6,1.2C62.3,64.2,62.3,64.8,62.3,65.4C62.3,65.4,62.3,65.4,62.3,65.4z M60.6,65.4
				C60.6,65.4,60.6,65.4,60.6,65.4c0,0.6,0,1.2,0,1.8c0,0.3,0.1,0.4,0.4,0.5c0.3,0,0.4-0.2,0.4-0.4c0-1.2,0-2.5,0-3.7
				c0-0.3-0.1-0.5-0.4-0.5c-0.2,0-0.4,0.2-0.4,0.5C60.6,64.2,60.6,64.8,60.6,65.4z"/>
			<path d="M105.9,65.4c0-0.6,0-1.3,0-1.9c0-0.7,0.6-1.2,1.3-1.3c0.6,0,1.3,0.5,1.3,1.1c0,0.8,0,1.7,0,2.5c0,0.5,0,1,0,1.4
				c-0.1,0.7-0.7,1.2-1.3,1.2c-0.7,0-1.3-0.6-1.3-1.3C105.9,66.6,105.9,66,105.9,65.4C105.9,65.4,105.9,65.4,105.9,65.4z
				 M107.6,65.4c0-0.6,0-1.2,0-1.8c0-0.3-0.2-0.5-0.4-0.5c-0.2,0-0.4,0.2-0.4,0.5c0,1.2,0,2.4,0,3.6c0,0.3,0.2,0.5,0.4,0.5
				c0.2,0,0.4-0.2,0.4-0.5C107.6,66.6,107.6,66,107.6,65.4z"/>
			<path d="M81.7,65.4c0-0.6,0-1.2,0-1.8c0-0.7,0.6-1.3,1.3-1.3c0.7,0,1.3,0.5,1.3,1.2c0,1.3,0,2.6,0,3.9c0,0.7-0.6,1.2-1.3,1.2
				c-0.7,0-1.3-0.5-1.3-1.2c0-0.3,0-0.6,0-1C81.7,66,81.7,65.7,81.7,65.4C81.7,65.4,81.7,65.4,81.7,65.4z M83.4,65.4
				c0-0.3,0-0.7,0-1c0-0.3,0-0.6,0-0.9c0-0.2-0.2-0.4-0.4-0.4c-0.1,0-0.3,0.2-0.4,0.3c0,0,0,0.2,0,0.2c0,1.2,0,2.3,0,3.5
				c0,0.3,0.2,0.6,0.4,0.6c0.2,0,0.4-0.2,0.4-0.6C83.4,66.6,83.4,66,83.4,65.4z"/>
			<path d="M86.4,66.8C86.4,66.8,86.4,66.7,86.4,66.8c0-0.8,0-0.8-0.7-0.9c-0.5-0.1-0.9-0.4-0.9-0.9c-0.1-0.6-0.1-1.1,0-1.7
				c0.1-0.6,0.8-1,1.3-1c0.7,0.1,1.2,0.6,1.2,1.3c0,0.1,0,0.1,0,0.2c0,0.7,0.1,0.6-0.6,0.6c-0.3,0-0.4-0.1-0.3-0.3
				c0-0.2,0-0.4,0-0.6c0-0.2-0.2-0.4-0.4-0.4c-0.2,0-0.4,0.1-0.4,0.3c0,0.4,0,0.7,0,1.1c0,0.1,0.2,0.2,0.3,0.3c0.1,0.1,0.2,0,0.3,0
				c0.5,0,0.8,0.3,0.9,0.7c0.2,0.7,0.2,1.4,0.1,2.1c-0.1,0.6-0.8,1-1.4,0.9c-0.7-0.1-1.1-0.6-1.1-1.3c0-0.1,0-0.1,0-0.2
				c0-0.7,0-0.7,0.7-0.7c0.2,0,0.3,0.1,0.3,0.3c0,0.2,0,0.4,0,0.5c0,0.3,0.2,0.5,0.4,0.5c0.3,0,0.4-0.2,0.4-0.5
				C86.4,67.1,86.4,66.9,86.4,66.8z"/>
			<path d="M100.7,66.8c0-0.1,0-0.1,0-0.2c0-0.6,0-0.6-0.6-0.8c-0.6-0.1-1.1-0.6-1.1-1.3c0-0.3,0-0.7,0-1c0-0.7,0.6-1.3,1.3-1.3
				c0.7,0,1.3,0.6,1.3,1.3c0,0.1,0,0.1,0,0.2c0,0.7,0.2,0.7-0.7,0.6c-0.1,0-0.2-0.1-0.2-0.2c0-0.2,0-0.4,0-0.6
				c0-0.3-0.1-0.4-0.4-0.4c-0.2,0-0.4,0.2-0.4,0.4c0,0.3,0,0.6,0,0.9c0,0.3,0.1,0.4,0.4,0.5c0.9,0.1,1.3,0.5,1.3,1.5
				c0,0.3,0,0.6,0,0.9c0,0.7-0.6,1.3-1.3,1.3c-0.8,0-1.3-0.6-1.3-1.3c0,0,0-0.1,0-0.1c0-0.7,0.1-0.8,0.8-0.6c0.1,0,0.2,0.1,0.2,0.2
				c0,0.2,0,0.4,0,0.7c0,0.2,0.1,0.4,0.4,0.4c0.2,0,0.4-0.1,0.4-0.4C100.7,67.2,100.7,67,100.7,66.8
				C100.7,66.8,100.7,66.8,100.7,66.8z"/>
			<path d="M142.4,64C142.4,64,142.4,64.1,142.4,64c0,0.8,0,0.9,0.7,0.9c0.5,0,0.9,0.5,1,1.1c0,0.5,0,0.9,0,1.4c0,0.5-0.5,1-1.1,1.1
				c-0.6,0.1-1.2-0.2-1.4-0.7c-0.1-0.4-0.1-0.8-0.2-1.2c0-0.1,0.1-0.2,0.2-0.2c0.2,0,0.4,0,0.5,0c0.1,0,0.2,0.1,0.2,0.2
				c0,0.2,0,0.4,0,0.6c0,0.2,0.1,0.4,0.4,0.4c0.2,0,0.4-0.1,0.4-0.4c0-0.4,0-0.7,0-1.1c0-0.2-0.1-0.3-0.4-0.4
				c-0.9-0.1-1.4-0.6-1.3-1.5c0-0.3,0-0.7,0.1-1c0.1-0.6,0.7-1.1,1.3-1.1c0.7,0.1,1.3,0.6,1.3,1.3c0,0.1,0,0.2,0,0.3
				c0,0.6,0.1,0.5-0.6,0.6c-0.3,0-0.4-0.1-0.4-0.4c0-0.2,0-0.4,0-0.6c0-0.2-0.2-0.4-0.3-0.4c-0.1,0-0.3,0.2-0.4,0.3
				C142.4,63.6,142.4,63.8,142.4,64C142.4,64,142.4,64,142.4,64z"/>
			<path d="M126.6,66.8c0-0.1,0-0.2,0-0.3c0-0.5-0.1-0.5-0.5-0.6c-0.7-0.1-1.2-0.6-1.2-1.3c0-0.4,0-0.8,0-1.1c0-0.7,0.6-1.2,1.3-1.2
				c0.7,0,1.3,0.6,1.3,1.2c0,0.1,0,0.2,0,0.3c0,0.7,0,0.7-0.7,0.6c-0.2,0-0.2-0.1-0.2-0.3c0-0.2,0-0.4,0-0.6c0-0.2-0.1-0.4-0.4-0.4
				c-0.3,0-0.4,0.2-0.4,0.4c0,0.3,0,0.5,0,0.8c0,0.3,0.1,0.5,0.5,0.5c0.9,0.1,1.2,0.4,1.2,1.3c0,0.4,0,0.7,0,1.1
				c0,0.7-0.6,1.2-1.3,1.2c-0.7,0-1.3-0.5-1.3-1.2c0-0.1,0-0.3,0-0.4c0-0.4,0-0.4,0.5-0.4c0.5,0,0.5,0,0.5,0.5c0,0.1,0,0.3,0,0.4
				c0,0.2,0.1,0.4,0.4,0.4c0.3,0,0.4-0.2,0.4-0.4C126.7,67.1,126.6,67,126.6,66.8C126.6,66.8,126.6,66.8,126.6,66.8z"/>
			<path d="M103.8,65.4c0,0.6,0,1.2,0,1.8c0,0.3,0.1,0.5,0.4,0.5c0.2,0,0.4-0.2,0.4-0.5c0-0.3,0-0.5,0-0.8c0-0.2,0-0.3,0.2-0.3
				c0.9,0,0.7-0.1,0.7,0.7c0,0.4,0,0.9-0.3,1.2c-0.4,0.4-0.9,0.6-1.4,0.4c-0.5-0.2-0.9-0.7-0.9-1.2c0-1.2,0-2.4,0-3.6
				c0-0.8,0.6-1.4,1.3-1.4c0.7,0,1.3,0.6,1.3,1.4c0,0.1,0,0.2,0,0.3c0,0.6-0.1,0.7-0.8,0.6c-0.1,0-0.2-0.1-0.2-0.2
				c0-0.2,0-0.5,0-0.7c0-0.3-0.1-0.5-0.4-0.5c-0.2,0-0.4,0.2-0.4,0.5C103.8,64.2,103.8,64.8,103.8,65.4
				C103.8,65.4,103.8,65.4,103.8,65.4z"/>
			<path d="M119.8,65.4c0,0.6,0,1.2,0,1.8c0,0.3,0.1,0.5,0.4,0.5c0.2,0,0.4-0.2,0.4-0.5c0-0.3,0-0.5,0-0.8c0-0.1,0.1-0.2,0.2-0.2
				c0.8,0,0.7-0.1,0.7,0.6c0,0.5,0,1-0.4,1.4c-0.7,0.6-1.8,0.3-2.1-0.5c-0.1-0.2-0.1-0.3-0.1-0.5c0-1.3,0-2.5,0.1-3.8
				c0-0.6,0.7-1.1,1.3-1.1c0.6,0,1.2,0.5,1.3,1.2c0,0.3,0,0.6,0,0.9c0,0.1-0.1,0.2-0.2,0.2c-0.6,0.1-0.7,0-0.7-0.6
				c0-0.1,0-0.3,0-0.4c0-0.2-0.1-0.4-0.4-0.4c-0.3,0-0.4,0.2-0.4,0.5C119.8,64.2,119.8,64.8,119.8,65.4
				C119.8,65.4,119.8,65.4,119.8,65.4z"/>
			<path d="M68.8,65.4c0-0.6,0-1.2,0-1.8c0-0.8,0.6-1.4,1.3-1.3c0.7,0,1.3,0.6,1.3,1.4c0,0.2,0,0.4,0,0.6c0,0.3-0.1,0.3-0.3,0.3
				c-0.8,0-0.6,0-0.6-0.6c0-0.2,0-0.3,0-0.5c0-0.2-0.1-0.4-0.3-0.4c-0.1,0-0.3,0.2-0.4,0.3c-0.1,0.1,0,0.2,0,0.3c0,1.1,0,2.2,0,3.3
				c0,0.1,0,0.2,0,0.3c0,0.2,0.1,0.4,0.4,0.4c0.2,0,0.4-0.2,0.4-0.4c0-0.3,0-0.5,0-0.8c0-0.2,0-0.3,0.3-0.3c0.8,0,0.6-0.1,0.7,0.7
				c0,0.4,0,0.9-0.3,1.2c-0.3,0.4-0.9,0.6-1.5,0.4c-0.5-0.2-0.9-0.7-0.9-1.2C68.8,66.7,68.8,66,68.8,65.4z"/>
			<path d="M71.9,62.4c0.4,0,0.3-0.2,0.3-0.4c0-0.4,0-0.9,0-1.3c0-0.2,0.1-0.3,0.3-0.3c0.7,0,0.6-0.1,0.6,0.6c0,0.4,0,0.8,0,1.1
				c0,0.1,0,0.3,0.2,0.3c0.1,0,0.1,0.1,0.2,0.2c0,0.2,0,0.4,0,0.6c0,0.1-0.1,0.2-0.1,0.2c-0.3,0-0.3,0.2-0.3,0.4c0,1.2,0,2.4,0,3.6
				c0,0.2,0,0.4,0,0.5c0,0.6-0.1,0.7-0.7,0.6c-0.1,0-0.2-0.2-0.2-0.3c0-1.4,0-2.9,0-4.3c0-0.2,0.1-0.5-0.3-0.5c0,0-0.1-0.1-0.1-0.2
				C71.9,62.9,71.9,62.7,71.9,62.4z"/>
			<path d="M88.5,62.4c0.2,0,0.4,0,0.6,0c0.3,0,0.4,0.1,0.4,0.4c0,1.5,0,3.1,0,4.6c0,0.3,0,0.5,0,0.8c0,0.1,0,0.2,0,0.2
				c-0.2,0-0.5,0.1-0.7,0.1c-0.1,0-0.2-0.1-0.2-0.2C88.5,66.3,88.5,64.4,88.5,62.4z"/>
			<path d="M128,65.4c0-0.9,0-1.8,0-2.7c0-0.3,0.1-0.4,0.3-0.3c0.6,0,0.6-0.1,0.6,0.6c0,1.7,0,3.4,0,5.1c0,0.3-0.1,0.4-0.4,0.4
				c-0.6,0-0.6,0.1-0.6-0.6C128,67,128,66.2,128,65.4z"/>
			<path d="M89.5,61.5c0,0.5,0,0.5-0.4,0.5c-0.6,0-0.5,0-0.5-0.5c0-0.5,0-0.5,0.5-0.5C89.5,61,89.5,61,89.5,61.5z"/>
			<path d="M128,61.4c0-0.1-0.1-0.4,0.3-0.4c0.7,0,0.5,0,0.6,0.7c0,0.3-0.2,0.3-0.4,0.3C127.9,62,128,62.1,128,61.4z"/>
			<path d="M145.4,68c0,0.4,0,0.4-0.5,0.4c-0.4,0-0.4,0-0.4-0.5c0-0.4,0-0.4,0.4-0.4C145.4,67.5,145.4,67.5,145.4,68z"/>
		</g>
	</g>
</g>
</svg>
