<svg id="doppler" xmlns="http://www.w3.org/2000/svg" viewBox="0 0 107.94 38.01">
  <title>doppler</title>
  <g>
    <path d="M6.33,42.41c0-2.93,0-5.87,0-8.8A2.38,2.38,0,0,1,8,31a2.16,2.16,0,0,1,.59-.09c2.17,0,4.34-.06,6.51,0a10.28,10.28,0,0,1,10.3,9.48,13.48,13.48,0,0,1-1,7.77,9.76,9.76,0,0,1-8.57,5.65c-2.34.18-4.7.1-7,.07a2.29,2.29,0,0,1-2.47-2.56C6.31,48.36,6.33,45.39,6.33,42.41Zm4.89,6.72a39.92,39.92,0,0,0,4.51,0A4.92,4.92,0,0,0,20,45.64a9.46,9.46,0,0,0,0-6.49,5,5,0,0,0-2.63-2.93c-2-.94-4-.57-6.1-.64Z" transform="translate(-6.32 -22.66)" style="fill: #fff"/>
    <path d="M49.34,38.19c2-2.71,6.89-2.66,9.45.24,2.86,3.24,3.53,9.77-.22,13.54a6.74,6.74,0,0,1-8.9.79l-.35-.21c0,.49,0,.9,0,1.31,0,1.49,0,3,0,4.46a2.27,2.27,0,0,1-2.78,2.3,2.24,2.24,0,0,1-1.8-2,6.32,6.32,0,0,1,0-.78q0-9.32,0-18.64a4.32,4.32,0,0,1,.11-1.07,2.3,2.3,0,0,1,4.38-.26Zm7.36,6.94a20.93,20.93,0,0,0-.9-2.67,3,3,0,0,0-2.89-1.72,3.18,3.18,0,0,0-3,1.85,5.56,5.56,0,0,0,0,4.89,3.17,3.17,0,0,0,3,2,3.07,3.07,0,0,0,3-1.78A19.23,19.23,0,0,0,56.7,45.13Z" transform="translate(-6.32 -22.66)" style="fill: #fff"/>
    <path d="M67.3,52.55c0,1.86,0,3.61,0,5.36A4.18,4.18,0,0,1,67.18,59a2.18,2.18,0,0,1-2.45,1.68,2.25,2.25,0,0,1-2-2.11c0-.2,0-.4,0-.6q0-9.41,0-18.81a4.07,4.07,0,0,1,.12-1.07,2.31,2.31,0,0,1,4.34-.27l.18.38c2.09-2.72,7-2.61,9.5.31,2.72,3.16,3.39,9.29.09,13.09a6.83,6.83,0,0,1-9.22,1.21Zm7.37-7.44a20.08,20.08,0,0,0-.92-2.69,3,3,0,0,0-2.91-1.69,3.18,3.18,0,0,0-3,1.89,5.55,5.55,0,0,0,.09,5.05,3.13,3.13,0,0,0,3,1.8,3.09,3.09,0,0,0,3-1.87A20.39,20.39,0,0,0,74.67,45.11Z" transform="translate(-6.32 -22.66)" style="fill: #fff"/>
    <path d="M91.11,46.71A3.86,3.86,0,0,0,95,50a4.82,4.82,0,0,0,2.77-.66c.52-.31,1-.64,1.55-.93a1.66,1.66,0,0,1,2.1.27,1.82,1.82,0,0,1,.49,2.19,4.34,4.34,0,0,1-1.09,1.33c-3,2.31-8.48,2.88-11.89-.43a8.69,8.69,0,0,1-2.56-7.37c.33-3.57,2-6.31,5.45-7.66a8.17,8.17,0,0,1,10.65,5.39,10.65,10.65,0,0,1,.39,3.07,1.4,1.4,0,0,1-1.35,1.44,5.83,5.83,0,0,1-1,.08H91.11Zm7.15-3.14c-.31-2.32-1.86-3.65-4-3.47a3.59,3.59,0,0,0-3.19,3.47Z" transform="translate(-6.32 -22.66)" style="fill: #fff"/>
    <path d="M43.2,45.56a8.46,8.46,0,0,1-4.42,7.54,8.16,8.16,0,0,1-11.91-5.69,9.16,9.16,0,0,1,2.95-9.34c4.11-3.57,10.37-1.91,12.59,3.25A10.42,10.42,0,0,1,43.2,45.56ZM31.13,45a17.29,17.29,0,0,0,.7,2.57,3.12,3.12,0,0,0,3,1.9A3.21,3.21,0,0,0,38,47.64a5.46,5.46,0,0,0,0-4.94,3.41,3.41,0,0,0-6.2,0A19.58,19.58,0,0,0,31.13,45Z" transform="translate(-6.32 -22.66)" style="fill: #fff"/>
    <path d="M80.55,42.28c0-2.83,0-5.67,0-8.5a5.44,5.44,0,0,1,.13-1.25,2.28,2.28,0,0,1,4.45.16,6.26,6.26,0,0,1,.1,1.08q0,8.56,0,17.12a6.24,6.24,0,0,1-.1,1.14,2.28,2.28,0,0,1-4.45.13,5.52,5.52,0,0,1-.13-1.25C80.55,48,80.55,45.15,80.55,42.28Z" transform="translate(-6.32 -22.66)" style="fill: #fff"/>
    <path d="M108.7,38.27c.31-.35.6-.69.91-1A3.17,3.17,0,0,1,112,36.4a2.34,2.34,0,0,1,2.14,3A1.78,1.78,0,0,1,113,40.53c-.75.33-1.52.63-2.27,1a3.14,3.14,0,0,0-2.08,3.3c.09,2,0,4.1,0,6.15a5.21,5.21,0,0,1-.12,1.19,2.18,2.18,0,0,1-2.41,1.72,2.22,2.22,0,0,1-2.07-2,8.56,8.56,0,0,1-.06-1.08q0-5.76,0-11.52c0-.24,0-.48,0-.72a2.16,2.16,0,0,1,1.72-2.06,2.11,2.11,0,0,1,2.51,1.06C108.43,37.78,108.56,38,108.7,38.27Z" transform="translate(-6.32 -22.66)" style="fill: #fff"/>
    <path d="M53,22.66a8.33,8.33,0,0,1,7.8,5.7,2.27,2.27,0,0,1-1.39,2.94,2.38,2.38,0,0,1-3.08-1.36c-.88-2.27-3.06-3.2-5-2.15a3.78,3.78,0,0,0-1.73,2.08,2.36,2.36,0,0,1-3.14,1.41,2.31,2.31,0,0,1-1.31-3A8.34,8.34,0,0,1,53,22.66Z" transform="translate(-6.32 -22.66)" style="fill: #fff"/>
  </g>
</svg>
