<svg id="hj" xmlns="http://www.w3.org/2000/svg" viewBox="0 0 117.91 35.99">
  <title>hj</title>
  <g>
    <path d="M90.42,38.54h-.53q-9.38,0-18.77,0a2,2,0,0,1-1-.25Q64.86,35.15,59.58,32a.88.88,0,0,0-1.06,0Q53.25,35.17,48,38.32a1.34,1.34,0,0,1-.64.21H27.9l-.36,0c7.1-8.49,16-13.6,26.91-14.74C69,22.24,81,27.41,90.49,38.34ZM88,37.69l.06-.17c-8.15-8.59-18.12-13-30-12.75C46.93,25,37.65,29.49,30.09,37.61a1.78,1.78,0,0,0,.64.08c5.15,0,10.29,0,15.44,0a2.59,2.59,0,0,0,1.24-.35Q53,34,58.64,30.59a.68.68,0,0,1,.82,0Q65.2,34,71,37.43a1.86,1.86,0,0,0,.9.24q7.8,0,15.6,0Z" transform="translate(-0.91 -23.5)" style="fill: #fff"/>
    <path d="M67.74,41.72c-1.6-.39-3,.93-3.84,2.27-1,1.7-.71,3.62.88,5.4a2,2,0,0,1-2.31-.66,3.13,3.13,0,0,1-.49-3,6.74,6.74,0,0,1,6.66-5h1.52l-2.82,9.16,1.83.21c.39-.76.71-1.54,1.16-2.24a5.38,5.38,0,0,1,2.9-2.27,2.08,2.08,0,0,1,3,1.94,8,8,0,0,1-3.49,7c-1.59,1.13-3.2.38-3.55-1.54a11.64,11.64,0,0,1-.06-1.92c0-.17,0-.35.06-.63-.65,0-1.25,0-1.84.1-.11,0-.24.24-.29.38-.38,1-.72,2.09-1.12,3.12A8.91,8.91,0,0,1,61.7,59a4,4,0,0,1-2.32.51,1.85,1.85,0,0,1-1.69-2.23,7.49,7.49,0,0,1,2.6-4.84,9.18,9.18,0,0,1,4.58-2.32.56.56,0,0,0,.38-.29C66.08,47.11,66.9,44.44,67.74,41.72ZM64.91,51h-.33l-.26,0a8.13,8.13,0,0,0-5.67,5.61,2.4,2.4,0,0,0,0,1.06,1.17,1.17,0,0,0,1.83,1,4.85,4.85,0,0,0,1.24-1C63.39,55.76,64,53.34,64.91,51Zm9.27-2.85a6.81,6.81,0,0,0-.16-1,.74.74,0,0,0-1.28-.44,2.71,2.71,0,0,0-.74.83,10.18,10.18,0,0,0-1.16,5.37,2.23,2.23,0,0,0,.1.53c.21.74.75.91,1.32.38a3.29,3.29,0,0,0,.68-.89A11.35,11.35,0,0,0,74.18,48.11Z" transform="translate(-0.91 -23.5)" style="fill: #fff"/>
    <path d="M17.43,41.78,15,50c-.29,1-.58,1.95-.84,2.93a1.91,1.91,0,0,0,.06.65,2.75,2.75,0,0,0,.61-.23,7.35,7.35,0,0,0,.71-.63l.38.45c-.78.59-1.49,1.22-2.29,1.71s-1.31.1-1.35-.77a5.79,5.79,0,0,1,.17-1.69c.37-1.43.8-2.84,1.23-4.31h-4L8.81,51A9,9,0,0,1,5.3,56.09,6.68,6.68,0,0,1,3.16,57,1.74,1.74,0,0,1,.91,55.15a6.83,6.83,0,0,1,1.26-3.7,8.71,8.71,0,0,1,5.52-3.94.74.74,0,0,0,.41-.45q.71-2.22,1.37-4.45a.65.65,0,0,1,.6-.55c.47-.06.93-.17,1.5-.28L9.88,47.5c1.3,0,2.55,0,3.79,0,.11,0,.26-.25.31-.42.47-1.48.94-3,1.38-4.45a.67.67,0,0,1,.61-.55C16.42,42,16.87,41.89,17.43,41.78ZM7.85,48.26l-.13-.1A5.47,5.47,0,0,0,7,48.4a9.6,9.6,0,0,0-4,3.25,6.44,6.44,0,0,0-1.3,3.51c0,1,.6,1.47,1.5,1.09a4.54,4.54,0,0,0,1.67-1.18,9,9,0,0,0,1.43-2.3C6.85,51.29,7.32,49.76,7.85,48.26Z" transform="translate(-0.91 -23.5)" style="fill: #fff"/>
    <path d="M6.05,58c.3-1,.3-1,1.22-1H55.95c-.13.92-.25,1-1.12,1H6.05Z" transform="translate(-0.91 -23.5)" style="fill: #fff"/>
    <path d="M27.31,52.1l1.57-3.56c.35-.8.68-1.61,1.07-2.39a1,1,0,0,1,.53-.41c.44-.15.89-.22,1.43-.35l-.34,5.56.09,0c.37-.75.72-1.5,1.1-2.24A10.33,10.33,0,0,1,35,45.52a7.81,7.81,0,0,1,1.55-.9c.12-.06.31,0,.46.1-2,1-2.89,2.88-3.74,4.73C32.6,51,32,52.62,31.46,54.23c-.12.34-.27.54-.64.57s-.8.11-1.26.17l.39-6.8c-.15.29-.24.43-.3.58-.8,1.79-1.6,3.58-2.38,5.38-.16.38-.35.62-.81.62a7.57,7.57,0,0,0-1.17.19c.07-1.22.14-2.39.2-3.56.07-1.43.15-2.85.19-4.28,0-1.11-.16-1.24-1.21-.88l-.33.06c.09-.19.11-.38.19-.42a8.61,8.61,0,0,1,1.93-.68c.86-.12,1.29.38,1.26,1.25,0,1.25-.13,2.5-.2,3.75,0,.64-.08,1.28-.12,1.92Z" transform="translate(-0.91 -23.5)" style="fill: #fff"/>
    <path d="M113.92,56.93c-.19,1-.27,1-1.12,1h-47c.11-.89.25-1,1.06-1h47Z" transform="translate(-0.91 -23.5)" style="fill: #fff"/>
    <path d="M76,54.71l3.54-11.85H78.36l-.09-.14c.11-.1.22-.28.34-.3,1-.15,1.93-.27,3-.41L79.8,48.21l.08,0a9.83,9.83,0,0,1,1-1.17A15,15,0,0,1,82.8,45.6a1.16,1.16,0,0,1,1.41-.06c.43.38.2.91.06,1.36-.58,1.91-1.18,3.82-1.74,5.74-.11.36-.48.86,0,1.11.26.15.75-.1,1.24-.19,0,.1,0,.36-.12.41a12.19,12.19,0,0,1-2,1c-.8.28-1.2-.08-1.17-.92a4.11,4.11,0,0,1,.18-1c.48-1.61,1-3.21,1.47-4.81a2.36,2.36,0,0,0,.14-.51,4.46,4.46,0,0,0,0-.66c-.25,0-.56,0-.73.16a8,8,0,0,0-2.39,3.37C78.66,51.74,78.36,52.9,78,54a.55.55,0,0,1-.55.46C77,54.54,76.59,54.63,76,54.71Z" transform="translate(-0.91 -23.5)" style="fill: #fff"/>
    <path d="M56.36,53.17c0,.22,0,.41-.08.48a12.82,12.82,0,0,1-1.57,1.28c-.66.42-1.16.15-1.24-.63a15.36,15.36,0,0,1,0-1.67,13.5,13.5,0,0,1-1.07,1.26,6.2,6.2,0,0,1-1.37,1,1.06,1.06,0,0,1-1.56-.56A3.58,3.58,0,0,1,49.18,52a9.72,9.72,0,0,1,2.57-5.26A3.92,3.92,0,0,1,55,45.37c.14,0,.38-.08.41-.18.25-.76.47-1.52.71-2.35H54.81c.15-.21.22-.42.32-.43,1-.16,2-.29,3-.43l-1.45,5c-.54,1.87-1.1,3.73-1.62,5.6-.1.37-.2,1,0,1.13.38.31.7-.21,1-.42Zm-5.59-.31c0,.93.3,1.13.92.8a1.65,1.65,0,0,0,.59-.44,10.36,10.36,0,0,0,1.27-2c.55-1.42,1-2.9,1.42-4.37.07-.22,0-.66-.07-.7a1,1,0,0,0-.83,0,3.14,3.14,0,0,0-.88.84,14.82,14.82,0,0,0-2.1,4.59C50.94,52.06,50.84,52.57,50.77,52.86Z" transform="translate(-0.91 -23.5)" style="fill: #fff"/>
    <path d="M110.61,48.39a21.66,21.66,0,0,1,1.86-2,5.25,5.25,0,0,1,1.81-1c.79-.24,1.18.18,1,1-.3,1.19-.68,2.36-1,3.54-.31,1-.64,2-.92,3.07a2.86,2.86,0,0,0,0,.8c.25-.07.5-.12.74-.2a3.14,3.14,0,0,0,.47-.29c0,.28,0,.55-.07.59A12.83,12.83,0,0,1,112.27,55c-.67.23-1-.18-1-.9a3.94,3.94,0,0,1,.17-.84c.51-1.69,1-3.38,1.54-5.07A.79.79,0,0,0,113,48c0-.3,0-.6,0-.9a2.52,2.52,0,0,0-.9.34A8.78,8.78,0,0,0,109.78,51c-.33,1-.59,2-.93,3a.8.8,0,0,1-.5.42,14,14,0,0,1-1.47.23l2.59-8.37h-1.23l-.08-.18c.15-.11.29-.28.45-.31.93-.16,1.87-.28,2.88-.42Z" transform="translate(-0.91 -23.5)" style="fill: #fff"/>
    <path d="M84.72,54.71l2.59-8.38H86.09L86,46.16c.13-.11.25-.28.4-.3.95-.16,1.9-.28,2.92-.42l-.89,3a19.68,19.68,0,0,1,1.67-1.86,6.07,6.07,0,0,1,1.8-1.1c1-.36,1.44.11,1.16,1.1-.54,1.89-1.14,3.75-1.71,5.63a10.54,10.54,0,0,0-.3,1.08.69.69,0,0,0,.1.52c.06.07.33,0,.49-.05a5.9,5.9,0,0,0,.7-.41c0,.27,0,.51-.07.59a4.4,4.4,0,0,1-2.21,1.13c-.64.08-1-.19-.94-.84a3.29,3.29,0,0,1,.14-.84c.51-1.71,1-3.41,1.55-5.12A3,3,0,0,0,91,47.7a2.93,2.93,0,0,0-.05-.56c-.22,0-.49,0-.65.1a4.15,4.15,0,0,0-.86.79,9.43,9.43,0,0,0-2,3.78c-.18.76-.46,1.5-.67,2.26a.51.51,0,0,1-.52.43C85.73,54.55,85.28,54.63,84.72,54.71Z" transform="translate(-0.91 -23.5)" style="fill: #fff"/>
    <path d="M42.64,45.75l-1.8,6.42a4.7,4.7,0,0,0-.2.83c0,.21,0,.52.12.63s.42,0,.63,0a2.06,2.06,0,0,0,.4-.19c0,.21,0,.39-.1.44a12.38,12.38,0,0,1-1.46,1c-.58.31-1,.1-1.09-.55a4.12,4.12,0,0,1-.06-.9c0-.28.05-.56.09-.94a9.69,9.69,0,0,1-.85,1.06,9,9,0,0,1-1.53,1.24c-.76.45-1.36.2-1.73-.62a4.26,4.26,0,0,1-.13-2.78A10,10,0,0,1,37.06,47C38.62,45.14,40.23,44.86,42.64,45.75Zm-6.36,7.18.14,0c0,.66.31.89.91.58a1.71,1.71,0,0,0,.6-.44,7.26,7.26,0,0,0,1.12-1.67c.63-1.66,1.14-3.37,1.7-5.06.1-.3,0-.43-.31-.49a1.15,1.15,0,0,0-1.24.56,14.6,14.6,0,0,0-1.45,2.42C37.18,50.19,36.77,51.57,36.29,52.93Z" transform="translate(-0.91 -23.5)" style="fill: #fff"/>
    <path d="M23.87,48.39A9.08,9.08,0,0,1,21,54a4.34,4.34,0,0,1-1,.67A2,2,0,0,1,17,53.52a4.84,4.84,0,0,1-.24-2.63,6.77,6.77,0,0,1,3.32-5.11l.24-.13C22.36,44.66,24,45.71,23.87,48.39Zm-2-.07A10.22,10.22,0,0,0,21.69,47a.71.71,0,0,0-1.2-.43,2.89,2.89,0,0,0-.79.85,8.46,8.46,0,0,0-1.1,3.71,8.91,8.91,0,0,0,.07,2.23c.12.7.7.87,1.24.38a3.57,3.57,0,0,0,.77-1A11.89,11.89,0,0,0,21.9,48.33Z" transform="translate(-0.91 -23.5)" style="fill: #fff"/>
    <path d="M99.72,51.5a6.8,6.8,0,0,1,3.39-5.7,4.31,4.31,0,0,1,1-.42,2,2,0,0,1,2.69,1.75,5.85,5.85,0,0,1-.09,2,8.65,8.65,0,0,1-2.64,4.74,5.24,5.24,0,0,1-1.65.95,1.78,1.78,0,0,1-2.14-.77A4.33,4.33,0,0,1,99.72,51.5Zm5.22-3.11a11.23,11.23,0,0,0-.24-1.47.69.69,0,0,0-1.13-.42,3.06,3.06,0,0,0-.87.92,8.47,8.47,0,0,0-1.08,3.72,8.67,8.67,0,0,0,.09,2.23c.12.65.67.82,1.17.37a3.89,3.89,0,0,0,.86-1.14A12.28,12.28,0,0,0,104.94,48.39Z" transform="translate(-0.91 -23.5)" style="fill: #fff"/>
    <path d="M94.41,51.86a2.19,2.19,0,0,0,0,.55,6.08,6.08,0,0,0,.48,1.49.84.84,0,0,0,1.53-.12,2.44,2.44,0,0,0-.24-2.39c-.4-.72-.83-1.41-1.2-2.15a2.39,2.39,0,0,1-.26-1.86,3.19,3.19,0,0,1,.38-.82,3.61,3.61,0,0,1,3.52-1.18A1.2,1.2,0,0,1,99.54,47c-.15.49-.3,1-.45,1.47l-.16,0c0-.15-.06-.31-.11-.45a7.2,7.2,0,0,0-.57-1.57,1.07,1.07,0,0,0-1.51-.34,1,1,0,0,0-.36,1.45c.35.74.8,1.43,1.16,2.17a13.53,13.53,0,0,1,.9,2.16,2,2,0,0,1-1.36,2.65,5.73,5.73,0,0,1-1.77.33,2.1,2.1,0,0,1-2-1.44.52.52,0,0,1,0-.4c.29-.44.61-.86.92-1.29Z" transform="translate(-0.91 -23.5)" style="fill: #fff"/>
    <path d="M42.65,54.86l2.83-8.74H44.25c-.12-.46.18-.45.42-.48l2.78-.39L46.67,48l.07,0c.39-.5.77-1,1.18-1.5a3.07,3.07,0,0,1,1.76-1.15c.77-.15,1.07.18.82.91l-.41,1.21A1.35,1.35,0,0,0,48,47.43a8.23,8.23,0,0,0-2.25,3.64c-.36,1.06-.71,2.13-1.1,3.18a.75.75,0,0,1-.47.39C43.69,54.76,43.21,54.79,42.65,54.86Z" transform="translate(-0.91 -23.5)" style="fill: #fff"/>
    <path d="M55.67,38.46h-1.1c-.28-1.14.6-2.84,1.92-3.75a4.44,4.44,0,0,1,4.7-.22A4.28,4.28,0,0,0,55.67,38.46Z" transform="translate(-0.91 -23.5)" style="fill: #fff"/>
    <path d="M59.39,38.5h-3a7.06,7.06,0,0,1,.17-.93.45.45,0,0,1,.35-.22c.8,0,1.6,0,2.44,0Z" transform="translate(-0.91 -23.5)" style="fill: #fff"/>
    <path d="M63.25,38.5H60.3V37.34c.85,0,1.68,0,2.51,0,.11,0,.26.24.31.4A4.19,4.19,0,0,1,63.25,38.5Z" transform="translate(-0.91 -23.5)" style="fill: #fff"/>
    <path d="M59.4,35.23c0,.15,0,.31,0,.46s0,.49,0,.77H57.26A2.51,2.51,0,0,1,59.4,35.23Z" transform="translate(-0.91 -23.5)" style="fill: #fff"/>
    <path d="M62.48,36.47H60.3V35.26A2.61,2.61,0,0,1,62.48,36.47Z" transform="translate(-0.91 -23.5)" style="fill: #fff"/>
    <path d="M118.82,44.39a1.63,1.63,0,0,1-1.56,1.52,1,1,0,0,1-1.06-1,1.58,1.58,0,0,1,1.51-1.5A1,1,0,0,1,118.82,44.39Zm-.27.08a.75.75,0,0,0-.79-.81,1.29,1.29,0,0,0-1.3,1.22.79.79,0,0,0,.85.83A1.33,1.33,0,0,0,118.56,44.46Z" transform="translate(-0.91 -23.5)" style="fill: #fff"/>
    <path d="M118.56,44.46a1.33,1.33,0,0,1-1.25,1.24.79.79,0,0,1-.85-.83,1.29,1.29,0,0,1,1.3-1.22A.75.75,0,0,1,118.56,44.46Zm-.81.32c.08-.05.18-.08.22-.15s.22-.38.16-.45a.68.68,0,0,0-.48-.21c-.16,0-.45.06-.48.16a9.78,9.78,0,0,0-.28,1.2l.13,0,.32-.72.47.74.1-.06Z" transform="translate(-0.91 -23.5)"/>
    <path d="M79.07,32l-8,3.86a1.69,1.69,0,0,1-.49.07l-.05-.14,4.67-6Z" transform="translate(-0.91 -23.5)" style="fill: #fff"/>
    <path d="M39.16,31.88l3.72-2.07,4.76,6.06-.09.16A9.59,9.59,0,0,1,46,35.3c-.57-.26-1.12-.55-1.68-.83l-1.66-.85-1.67-.84Z" transform="translate(-0.91 -23.5)" style="fill: #fff"/>
    <path d="M43.17,29.67,47,28.14l3.15,6.25-.6.39Z" transform="translate(-0.91 -23.5)" style="fill: #fff"/>
    <path d="M68,34.29l3.21-6.1,3.66,1.49L72.7,31.43c-1.21,1-2.44,1.92-3.62,2.92C68.67,34.7,68.39,34.66,68,34.29Z" transform="translate(-0.91 -23.5)" style="fill: #fff"/>
    <path d="M65.42,32.8,67,27,71,28.08l-1.5,1.7c-.89,1-1.81,2-2.67,3.07-.37.45-.67.5-1.08.13A1.81,1.81,0,0,0,65.42,32.8Z" transform="translate(-0.91 -23.5)" style="fill: #fff"/>
    <path d="M38.86,32.06l5.37,4.43-.05.18c-.63-.1-1.26-.16-1.88-.31C40,35.8,37.78,35.21,35.4,34.6Z" transform="translate(-0.91 -23.5)" style="fill: #fff"/>
    <path d="M79.33,32.15l3.39,2.48-.62.19c-2.06.51-4.14,1-6.18,1.56a4.46,4.46,0,0,1-2.06.11Z" transform="translate(-0.91 -23.5)" style="fill: #fff"/>
    <path d="M51.06,27l1.6,5.89-.83.51L47.28,28Z" transform="translate(-0.91 -23.5)" style="fill: #fff"/>
    <path d="M51.36,26.93l3.72-.59c.07.85.14,1.62.2,2.39s.07,1.32.15,2a.61.61,0,0,1-.39.76,8.53,8.53,0,0,0-.84.5Z" transform="translate(-0.91 -23.5)" style="fill: #fff"/>
    <path d="M63,26.33l3.74.59-2.8,5c-.37-.21-.74-.41-1.09-.65a.45.45,0,0,1-.18-.34C62.73,29.42,62.84,27.93,63,26.33Z" transform="translate(-0.91 -23.5)" style="fill: #fff"/>
    <path d="M56.92,30.32l-1.48-4,3.43-.15c-.12,1.1-.23,2.11-.35,3.11,0,.09-.13.19-.23.25C57.85,29.77,57.4,30,56.92,30.32Z" transform="translate(-0.91 -23.5)" style="fill: #fff"/>
    <path d="M61.19,30.19a2.15,2.15,0,0,1-1.83-2.45,10.25,10.25,0,0,0-.15-1.5h3.42Z" transform="translate(-0.91 -23.5)" style="fill: #fff"/>
    <path d="M35.18,34.81l3.48,1.74H33.25Z" transform="translate(-0.91 -23.5)" style="fill: #fff"/>
    <path d="M82.93,34.84l1.92,1.72H79.58l0-.07Z" transform="translate(-0.91 -23.5)" style="fill: #fff"/>
    <path d="M117.75,44.79l.17.54-.1.06-.47-.74-.32.72-.13,0a9.78,9.78,0,0,1,.28-1.2c0-.1.32-.17.48-.16a.68.68,0,0,1,.48.21c.05.08-.08.31-.16.45S117.82,44.74,117.75,44.79Z" transform="translate(-0.91 -23.5)" style="fill: #fff"/>
  </g>
</svg>
