<svg id="prestashop" xmlns="http://www.w3.org/2000/svg" viewBox="0 0 114.52 40.34">
  <title>prestashop</title>
  <g>
    <path d="M63.35,37.3c0-.31-.05-.59-.07-.87s0-.43-.31-.47c-.06,0-.12-.13-.14-.21-.1-.31-.19-.63-.29-1a9.34,9.34,0,0,0,3.34-2.22A9.85,9.85,0,0,1,61.2,33a2.3,2.3,0,0,0,.59,1.91c-.31,0-.62,0-.93-.11-.77-.17-1.35-.57-1.38-1.37,0-.1-.13-.21-.23-.29L57.7,31.83l.06-.09,1.8.92a12.68,12.68,0,0,0,1.62-6,19.33,19.33,0,0,1,4,4.26h.13a10,10,0,0,0,.26-1.53,17.22,17.22,0,0,0-.15-1.95,1.87,1.87,0,0,0-.71-1.24,1.33,1.33,0,0,0-1.94.2c-.2.23-.37.48-.6.78a3.79,3.79,0,0,1,.72-1.73.86.86,0,0,1,1.31-.22c.06.05.16.06.32,0-.22-.28-.42-.58-.66-.85a6.7,6.7,0,0,0-11.67,5,6.49,6.49,0,0,0,2,4.33,5.27,5.27,0,0,0,.85.64c.19.12.27.23.2.45s-.21.66-.31,1c0,0,0,.11,0,.11-.56.1-.35.55-.4.88,0,.16-.06.31-.09.47a9.53,9.53,0,0,1,4.39-18,9.53,9.53,0,0,1,4.53,18Z" transform="translate(-3.4 -19.32)" style="fill: #fff"/>
    <path d="M106.15,44h2.41v1.84a13.72,13.72,0,0,1,1.34-1.27,4.93,4.93,0,0,1,5.75.32,5.81,5.81,0,0,1,2.16,6,5.41,5.41,0,0,1-3.69,4.53A4.79,4.79,0,0,1,109,54.2l-.32-.3-.1,0v5.75h-2.42Zm9.38,5.78c-.08-.45-.13-.91-.26-1.35a3.4,3.4,0,0,0-5.08-2,3.76,3.76,0,0,0-1.68,3.18,3.66,3.66,0,0,0,2.38,3.7A3.61,3.61,0,0,0,115.53,49.76Z" transform="translate(-3.4 -19.32)" style="fill: #fff"/>
    <path d="M5.92,51v4.41H3.4V40.37a2.4,2.4,0,0,1,.3,0c2.05,0,4.1,0,6.15.09a8.8,8.8,0,0,1,2.35.49A3.93,3.93,0,0,1,15,44.13,9.57,9.57,0,0,1,15.06,47a4.16,4.16,0,0,1-3.67,3.77A26,26,0,0,1,8,51C7.31,51.08,6.63,51,5.92,51Zm0-2.32H9.11a8,8,0,0,0,.84-.05,2.55,2.55,0,0,0,2.56-2.59,5.61,5.61,0,0,0,0-1.08,2.17,2.17,0,0,0-1.57-2c-1.63-.54-3.3-.28-5-.35Z" transform="translate(-3.4 -19.32)" style="fill: #fff"/>
    <path d="M78.44,41.83,77.11,43.7a6.68,6.68,0,0,0-4.51-1.32,3.61,3.61,0,0,0-1,.24,1.68,1.68,0,0,0-.13,3.09c.77.32,1.58.53,2.37.82A25.83,25.83,0,0,1,77,47.74c2.48,1.29,2.48,5.21.24,6.81a5.85,5.85,0,0,1-3,1.08,9.22,9.22,0,0,1-7.11-2.41l1.49-1.8c1,.54,2,1.12,3,1.53a4.55,4.55,0,0,0,3.14.15,1.83,1.83,0,0,0,1.45-1.66A1.67,1.67,0,0,0,75,49.66c-1.13-.4-2.3-.65-3.43-1a14.67,14.67,0,0,1-2.09-1c-2.15-1.15-2.26-5.29.12-6.71a7.37,7.37,0,0,1,5.75-.69A6.77,6.77,0,0,1,78.44,41.83Z" transform="translate(-3.4 -19.32)" style="fill: #fff"/>
    <path d="M62.84,45.73V44H65.2V55.45H62.84v-1.7a13.41,13.41,0,0,1-1.44,1.16,5.22,5.22,0,0,1-7.71-3.43,6.33,6.33,0,0,1,1-5.57,5.2,5.2,0,0,1,6.29-1.67A13.33,13.33,0,0,1,62.84,45.73ZM55.9,49.8c0,.2,0,.39,0,.59A3.5,3.5,0,0,0,61,53.1,3.82,3.82,0,0,0,62.81,49,3.49,3.49,0,0,0,59,45.94,3.72,3.72,0,0,0,55.9,49.8Z" transform="translate(-3.4 -19.32)" style="fill: #fff"/>
    <path d="M80.66,55.45v-16h2.4V46a4.43,4.43,0,0,1,2.21-1.93,4.52,4.52,0,0,1,5,1.08,4,4,0,0,1,1,2.62c0,2.5,0,5,0,7.49a.77.77,0,0,1,0,.16H88.84c0-.2,0-.39,0-.58,0-2.13,0-4.27-.07-6.4a2.3,2.3,0,0,0-1.39-2.26,3,3,0,0,0-4.24,2.35c-.11,1-.07,2-.08,3.05,0,1.26,0,2.53,0,3.83Z" transform="translate(-3.4 -19.32)" style="fill: #fff"/>
    <path d="M26.88,52.08c1.21,1.85,4,1.81,6.23-.08l1.4,1.54a6.73,6.73,0,0,1-4.09,2.1,5.94,5.94,0,1,1,3-10.67,4.31,4.31,0,0,1,1.76,3.23.45.45,0,0,1-.34.54l-7.49,3.14Zm5.53-4.61c-.62-1.28-2.14-1.76-3.79-1.24a3.58,3.58,0,0,0-2.51,4Z" transform="translate(-3.4 -19.32)" style="fill: #fff"/>
    <path d="M92.57,49.74a6.07,6.07,0,1,1,6.1,5.93A5.89,5.89,0,0,1,92.57,49.74Zm9.7.05a3.64,3.64,0,1,0-3.69,3.71A3.59,3.59,0,0,0,102.27,49.79Z" transform="translate(-3.4 -19.32)" style="fill: #fff"/>
    <path d="M44.75,45l-.81,1.59c-1-.26-1.87-.57-2.8-.72a3.78,3.78,0,0,0-1.54.19,1,1,0,0,0-.74,1,.92.92,0,0,0,.73.93c1,.33,2,.6,2.95.94a6.8,6.8,0,0,1,1.35.7c1.64,1,1.53,4-.14,5.14a5.59,5.59,0,0,1-4.62.69,7.9,7.9,0,0,1-3.31-1.54l1.09-1.76a24.93,24.93,0,0,0,2.58,1.16,5.68,5.68,0,0,0,1.89.17,1.59,1.59,0,0,0,.87-.39.94.94,0,0,0-.07-1.61,24.3,24.3,0,0,0-2.24-1,16,16,0,0,1-2.18-1,2.9,2.9,0,0,1,.17-4.88A6.3,6.3,0,0,1,44.75,45Z" transform="translate(-3.4 -19.32)" style="fill: #fff"/>
    <path d="M49.12,45.91c0,.74,0,1.43,0,2.11,0,1.17,0,2.33,0,3.5,0,.77.09,1.51.89,1.88a1.81,1.81,0,0,0,2.12-.46,1.09,1.09,0,0,1,.15-.1l1,1.67a3.91,3.91,0,0,1-4.09.93,3.51,3.51,0,0,1-2.42-3.12,6.38,6.38,0,0,1-.05-.74q0-5.44,0-10.89c0-.1,0-.2,0-.33h2.4v3.58h3v2Z" transform="translate(-3.4 -19.32)" style="fill: #fff"/>
    <path d="M23,43.8v2.4c-.33,0-.69.07-1,.15A3.17,3.17,0,0,0,19.51,49a9.5,9.5,0,0,0-.19,2c0,1.49,0,3,0,4.51H16.92V44h2.37v2.11A5,5,0,0,1,23,43.8Z" transform="translate(-3.4 -19.32)" style="fill: #fff"/>
    <path d="M62.78,36.46a5.11,5.11,0,0,0,.12.8c.07.22,0,.3-.19.38a9.46,9.46,0,0,1-7.64,0,.37.37,0,0,1-.19-.27,8.87,8.87,0,0,1,.11-.89Z" transform="translate(-3.4 -19.32)" style="fill: #fff"/>
    <path d="M61,26.57a5.38,5.38,0,0,0-6.09.52A3.28,3.28,0,0,1,61,26.57Z" transform="translate(-3.4 -19.32)" style="fill: #fff"/>
    <path d="M56.42,28.91c.64-.16,1.28-.34,1.93-.47a.66.66,0,0,0,.59-.54c.11-.43.28-.84.45-1.34.14.41.24.76.38,1.09a8.33,8.33,0,0,0,.39.86.94.94,0,0,1-.11,1,1,1,0,0,1-1,.24c-.59-.21-1.19-.41-1.8-.6-.26-.08-.54-.13-.81-.2Zm3.43-.41c-.22-.15-.37-.33-.47-.31s-.24.21-.35.33c.11.11.22.3.34.3S59.63,28.66,59.85,28.5Z" transform="translate(-3.4 -19.32)" style="fill: #fff"/>
    <path d="M56.12,36l.28-.84a7.18,7.18,0,0,0,5,0l.29.84Z" transform="translate(-3.4 -19.32)" style="fill: #fff"/>
    <path d="M64.81,27.47,65.27,29a2.58,2.58,0,0,1-.21.39c-.06.09-.19.19-.28.18s-.21-.13-.3-.22a.2.2,0,0,1,0-.15c.09-.59.18-1.17.26-1.76Z" transform="translate(-3.4 -19.32)" style="fill: #fff"/>
    <path d="M59.85,28.5c-.22.16-.36.32-.49.32s-.22-.2-.34-.3c.12-.12.22-.31.35-.33S59.63,28.34,59.85,28.5Z" transform="translate(-3.4 -19.32)"/>
  </g>
</svg>
