<svg id="jornada_ecommerce" data-name="jornada ecommerce" xmlns="http://www.w3.org/2000/svg" viewBox="0 0 735.64 151.07">
  <title>title</title>
  <g id="original">
    <g>
      <path d="M190.08,251.23v14.3H162.14v16.61h24.64v14.3H162.14v17.93h27.94v14.3H143.33V251.23Z" transform="translate(-104.97 -193)" style="fill: #fff"/>
      <path d="M195.58,297.87V282.25h19.36v15.62Z" transform="translate(-104.97 -193)" style="fill: #fff"/>
      <path d="M233.69,318.16Q222.2,307,222.2,289.84t11.49-28.32q11.49-11.16,28.1-11.17a39.68,39.68,0,0,1,22.88,6.82,35.56,35.56,0,0,1,14,18.92H276.21q-4.4-8.47-14.08-8.47t-15.23,6q-5.56,6.05-5.56,16.17T246.89,306q5.55,6.05,15.23,6.05t14.08-8.47h22.44a35.55,35.55,0,0,1-14,18.92,39.66,39.66,0,0,1-22.88,6.82Q245.19,329.33,233.69,318.16Z" transform="translate(-104.97 -193)" style="fill: #fff"/>
      <path d="M318.83,318.22q-11.5-11.22-11.49-28.38t11.49-28.32q11.49-11.16,28.16-11.17t28,11.17q11.39,11.17,11.39,28.32T375,318.22q-11.44,11.22-28.05,11.22T318.83,318.22ZM361.73,306q5.55-6,5.56-16.17t-5.56-16.17q-5.56-6-14.85-6t-14.85,6q-5.56,6.05-5.56,16.17T332,306q5.55,6.05,14.85,6.05T361.73,306Z" transform="translate(-104.97 -193)" style="fill: #fd9827"/>
      <path d="M480.48,251.45v77.22H461.67V285.11l-17.93,43.56h-14l-17.93-43.56v43.56H393V251.45h21.56l22.22,53.24,22.11-53.24Z" transform="translate(-104.97 -193)" style="fill: #fff"/>
      <path d="M578.93,251.45v77.22H560.12V285.11l-17.93,43.56h-14l-17.93-43.56v43.56H491.48V251.45H513l22.22,53.24,22.11-53.24Z" transform="translate(-104.97 -193)" style="fill: #fff"/>
      <path d="M636.68,251.23v14.3H608.74v16.61h24.64v14.3H608.74v17.93h27.94v14.3H589.93V251.23Z" transform="translate(-104.97 -193)" style="fill: #fff"/>
      <path d="M666.15,298.64v30H647.34V251.45h30.47q13.42,0,20.9,6.93a22,22,0,0,1,7.48,16.72,24.06,24.06,0,0,1-4.07,13.09q-4.07,6.38-13.31,9l18.92,31.46h-22l-17.38-30Zm0-32.89v18.59h11.66a8.62,8.62,0,0,0,9.24-9.19,9.38,9.38,0,0,0-2.53-6.76,8.87,8.87,0,0,0-6.71-2.64Z" transform="translate(-104.97 -193)" style="fill: #fff"/>
      <path d="M722.31,318.16q-11.5-11.16-11.5-28.33t11.5-28.32q11.49-11.16,28.1-11.17a39.68,39.68,0,0,1,22.88,6.82,35.56,35.56,0,0,1,14,18.92H764.82q-4.4-8.47-14.08-8.47t-15.24,6Q730,279.72,730,289.84T735.51,306q5.55,6.05,15.24,6.05t14.08-8.47h22.44a35.55,35.55,0,0,1-14,18.92,39.66,39.66,0,0,1-22.88,6.82Q733.8,329.33,722.31,318.16Z" transform="translate(-104.97 -193)" style="fill: #fff"/>
      <path d="M840.61,251.23v14.3H812.67v16.61h24.64v14.3H812.67v17.93h27.94v14.3H793.86V251.23Z" transform="translate(-104.97 -193)" style="fill: #fff"/>
    </g>
    <g>
      <path d="M162,222.52V193.84h10.26v28.68q0,6.54-3.93,10.2a15.64,15.64,0,0,1-20.07,0q-3.9-3.63-3.9-10.23h10.2a5.4,5.4,0,0,0,1.08,3.54,3.38,3.38,0,0,0,2.64,1.14,3.47,3.47,0,0,0,2.67-1.14A5.1,5.1,0,0,0,162,222.52Z" transform="translate(-104.97 -193)" style="fill: #fff"/>
      <path d="M184.78,230.26a22.21,22.21,0,0,1,0-30.93,22.34,22.34,0,0,1,30.66,0,22.32,22.32,0,0,1,0,30.93,22.22,22.22,0,0,1-30.63,0Zm23.4-6.66a14.35,14.35,0,0,0,0-17.64,11.59,11.59,0,0,0-16.2,0,14.35,14.35,0,0,0,0,17.64,11.59,11.59,0,0,0,16.2,0Z" transform="translate(-104.97 -193)" style="fill: #fff"/>
      <path d="M236.71,219.58V236H226.45V193.84h16.62q7.32,0,11.4,3.78a12,12,0,0,1,4.08,9.12,13.12,13.12,0,0,1-2.22,7.14,12.11,12.11,0,0,1-7.26,4.92L259.39,236h-12l-9.48-16.38Zm0-17.94v10.14h6.36a4.7,4.7,0,0,0,5-5,5.11,5.11,0,0,0-1.38-3.69,4.84,4.84,0,0,0-3.66-1.44Z" transform="translate(-104.97 -193)" style="fill: #fff"/>
      <path d="M292.15,193.72h10.26V236H292.15L275,209.38V236H264.73V193.72H275l17.16,26.58Z" transform="translate(-104.97 -193)" style="fill: #fff"/>
      <path d="M336.37,236,334,228.88H318.91L316.57,236H305.65l14.64-42.24h12.48L347.35,236Zm-14.88-14.88h10l-5-15Z" transform="translate(-104.97 -193)" style="fill: #fff"/>
      <path d="M365.41,193.84q10.08,0,16.56,5.85a21.06,21.06,0,0,1,0,30.39Q375.49,236,365.41,236H350.59V193.84Zm-4.56,34.32h4.56q5.88,0,9.24-3.6T378,214.9q0-6.06-3.36-9.66t-9.24-3.6h-4.56Z" transform="translate(-104.97 -193)" style="fill: #fff"/>
      <path d="M419.89,236l-2.34-7.08H402.43L400.09,236H389.17l14.64-42.24h12.48L430.87,236ZM405,221.08h10l-5-15Z" transform="translate(-104.97 -193)" style="fill: #fff"/>
      <path d="M477.73,193.72H488V236H477.73l-17.16-26.58V236H450.31V193.72h10.26l17.16,26.58Z" transform="translate(-104.97 -193)" style="fill: #fff"/>
      <path d="M521.95,236l-2.34-7.08H504.49L502.15,236H491.23l14.64-42.24h12.48L532.93,236Zm-14.88-14.88h10l-5-15Z" transform="translate(-104.97 -193)" style="fill: #fff"/>
      <path d="M540,230.23a22.17,22.17,0,0,1,0-30.9,21.17,21.17,0,0,1,15.33-6.09A21.64,21.64,0,0,1,567.79,197a19.4,19.4,0,0,1,7.62,10.32H563.17a8.06,8.06,0,0,0-7.68-4.62,10.72,10.72,0,0,0-8.31,3.3,14.35,14.35,0,0,0,0,17.64,10.72,10.72,0,0,0,8.31,3.3,8.06,8.06,0,0,0,7.68-4.62h12.24a19.39,19.39,0,0,1-7.62,10.32,21.64,21.64,0,0,1-12.48,3.72A21.17,21.17,0,0,1,540,230.23Z" transform="translate(-104.97 -193)" style="fill: #fff"/>
      <path d="M580.21,236V193.84h10.26V236Z" transform="translate(-104.97 -193)" style="fill: #fff"/>
      <path d="M601.47,230.26a22.21,22.21,0,0,1,0-30.93,22.34,22.34,0,0,1,30.66,0,22.32,22.32,0,0,1,0,30.93,22.22,22.22,0,0,1-30.63,0Zm23.4-6.66a14.35,14.35,0,0,0,0-17.64,11.59,11.59,0,0,0-16.2,0,14.35,14.35,0,0,0,0,17.64,11.59,11.59,0,0,0,16.2,0Z" transform="translate(-104.97 -193)" style="fill: #fff"/>
      <path d="M670.56,193.72h10.26V236H670.56L653.4,209.38V236H643.14V193.72H653.4l17.16,26.58Z" transform="translate(-104.97 -193)" style="fill: #fff"/>
      <path d="M714.78,236l-2.34-7.08H697.32L695,236H684.06l14.64-42.24h12.48L725.76,236ZM699.9,221.08h10l-5-15Z" transform="translate(-104.97 -193)" style="fill: #fff"/>
      <path d="M729,193.84h10.26v34.32H752V236H729Z" transform="translate(-104.97 -193)" style="fill: #fff"/>
      <path d="M787,193.84q10.08,0,16.56,5.85a21.05,21.05,0,0,1,0,30.39Q797,236,787,236H772.14V193.84Zm-4.56,34.32H787q5.88,0,9.24-3.6t3.36-9.66q0-6.06-3.36-9.66t-9.24-3.6H782.4Z" transform="translate(-104.97 -193)" style="fill: #fff"/>
      <path d="M840.18,193.72v7.8H824.94v9.06h13.44v7.8H824.94v9.78h15.24V236h-25.5V193.72Z" transform="translate(-104.97 -193)" style="fill: #fff"/>
    </g>
    <g>
      <path d="M130.53,324.36H110.7v4.36H105V318h25.56Z" transform="translate(-104.97 -193)" style="fill: #fff"/>
      <path d="M110.44,307.51h3.74q-4-2.16-4-5.76h6.26v1.51a4.47,4.47,0,0,0,1,3.19,4.75,4.75,0,0,0,3.53,1.06h9.5v6.16H110.44Z" transform="translate(-104.97 -193)" style="fill: #fff"/>
      <path d="M127.9,299a11.58,11.58,0,0,1-14.78,0,8.49,8.49,0,0,1-2.9-6.5,6.82,6.82,0,0,1,2.84-5.89h-2.63v-6.16h20.09v6.16h-2.92a7,7,0,0,1,3.17,6A8.42,8.42,0,0,1,127.9,299ZM124.16,288a4.89,4.89,0,0,0-3.67-1.33,4.83,4.83,0,0,0-3.65,1.33,4.28,4.28,0,0,0,0,6.12,4.89,4.89,0,0,0,3.67,1.33,4.83,4.83,0,0,0,3.65-1.33,4.28,4.28,0,0,0,0-6.12Z" transform="translate(-104.97 -193)" style="fill: #fff"/>
    </g>
    <line x1="16.03" y1="72" x2="16.03" style="fill: none;stroke: #fff;stroke-miterlimit: 10;stroke-width: 8px"/>
    <path d="M356.31,289.25a9.22,9.22,0,1,1-2.7-6.65A9,9,0,0,1,356.31,289.25Z" transform="translate(-104.97 -193)" style="fill: #fef065"/>
    <g id="dwnMEl.tif">
      <path d="M385.24,322.64l-15.42.31,6.45,13.37-8.83,4.4-6.78-13.52L349.8,340.26l-.9-.25.33-46.93,36.23,28.65Z" transform="translate(-104.97 -193)" style="fill: #fff;stroke: #000;stroke-miterlimit: 10;stroke-width: 5px"/>
    </g>
  </g>
</svg>
